<svg version="1.1" xmlns="http://www.w3.org/2000/svg" style="display: block;" viewBox="0 0 2048 2048" width="2000" height="2000" preserveAspectRatio="none">
<path transform="translate(0,0)" fill="rgb(252,251,254)" d="M 0 0 L 2048 0 L 2048 2048 L 0 2048 L 0 0 z"/>
<path transform="translate(0,0)" fill="rgb(1,1,73)" d="M 1019.8 789.871 L 1031.59 790.116 C 1031.62 800.178 1032.48 821.899 1029.89 830.683 C 1025.81 843.198 1020.49 859.845 1012.25 870.332 C 997.799 888.725 991.052 906.057 986.433 928.943 C 985.494 933.599 980.126 937.355 982.579 944.216 C 983.854 947.782 984.306 950.04 987.528 952.282 C 987.834 945.8 988.184 944.481 992.633 938.9 C 998.573 931.451 1000.21 921.436 1003.79 913.909 C 1008.24 904.534 1024.92 873.962 1030.65 868.027 L 1031.7 866.964 C 1031.35 879.642 1032.18 892.33 1031.21 904.89 C 1029.83 922.761 1024.05 940.606 1021.48 957.868 C 1007.3 972.549 1010.52 988.012 998.468 1002.46 C 1001.78 1006.89 1003.04 1010.09 1008.71 1010.56 C 1017.67 1006.06 1017.6 989.853 1030.41 977.891 L 1031.58 976.81 C 1031.81 1010.2 1026.96 1043.71 1041.63 1074.33 C 1045.57 1082.57 1051.44 1090.63 1055.53 1098.9 C 1057.7 1103.27 1057.92 1103.84 1056.1 1109.11 C 1053.04 1109.68 1053.14 1108.74 1049.57 1106.34 C 1049.26 1109.47 1049.82 1109.19 1051.54 1112.5 C 1054.26 1115.02 1055.17 1115.46 1056.09 1119.07 C 1055.14 1122.87 1054.65 1123.5 1050.74 1125.1 L 1049.48 1126.92 C 1059.69 1144.37 1065.19 1182.41 1064.09 1202.83 C 1052.04 1198.7 1048.05 1197.75 1039.76 1188.07 L 1046.3 1179.85 C 1033.57 1167.14 1030.48 1144.59 1039.95 1129.27 C 1041.52 1126.72 1036.7 1115.65 1035.97 1112.22 C 1034.74 1106.49 1034.47 1101.08 1034.1 1095.35 L 1023.85 1105.67 C 1022.29 1111.49 1021.01 1120.58 1015.51 1123.3 L 1015.23 1124.39 C 1020.16 1143.73 1024.65 1166.83 1028.84 1186.72 C 1009.76 1177.46 1006.54 1170.68 995.033 1153.77 C 1000.43 1148.08 1002.09 1126.7 1001.15 1118.87 C 997.938 1118.59 998.157 1118.66 995.403 1116.98 L 995.139 1114.86 C 997.092 1112.18 998.644 1110.24 1000.79 1107.71 L 1000.52 1105.88 C 998.259 1105.38 997.268 1105.13 995.094 1104.36 C 994.26 1101.93 995.031 1086.96 995.012 1082.94 C 999.379 1076.29 1000.25 1074.73 1006.14 1069.25 C 987.705 1054.13 1002.03 1055.79 1006.23 1042.24 C 1004.11 1034.56 1003.73 1033.43 1005.68 1025.71 C 998.34 1026.69 991.736 1026.02 987.683 1032.63 C 986.832 1035.87 987.639 1037.39 989.045 1040.43 C 989.964 1042.97 986.899 1049.72 986.049 1052.36 C 981.407 1066.79 977.239 1080.68 977.316 1096.02 C 977.349 1102.57 981.971 1105.51 981.69 1110.39 C 981.645 1111.17 978.799 1111.82 978.203 1115.99 L 979.418 1117.22 C 982.395 1117.68 982.777 1117.64 985.517 1118.77 L 986.02 1121 L 985.025 1122.51 C 983.263 1122.29 981.878 1122.08 980.118 1121.75 L 978.614 1121.46 L 976.342 1124.07 C 973.179 1125.25 974.718 1125.26 971.569 1124.04 C 959.047 1109.56 965.438 1094.14 964.827 1078.63 C 964.397 1067.75 963.058 1063.33 963.478 1051.04 C 971.271 1041.78 973.607 1040.95 971.83 1028.34 L 980.189 1015.15 C 979.445 1007.97 978.857 1007.33 982.457 1001.31 L 983.48 999.622 C 987.041 993.676 983.359 997.026 982.035 991.619 C 983.247 990.518 983.99 989.872 985.314 988.869 L 986.383 988.074 C 987.489 985.188 988.116 984.457 987.659 981.436 L 983.667 984.589 C 980.207 982.458 983.823 980.517 980.522 977.423 C 976.489 981.577 974.504 983.489 971.373 988.283 C 967.776 993.788 964.256 1011.6 960.28 1015 C 955.908 1013.85 955.564 1013.34 953.764 1017.06 C 954.324 1020.13 954.603 1019.45 957.676 1022.03 C 956.851 1024.67 957.275 1023.47 954.319 1025.68 L 952.318 1025.23 C 948.006 1017.09 951.097 974.18 952.352 962.899 L 957.137 958.322 C 958.782 950.952 967.438 920.568 972.275 916.191 C 983.658 905.888 980.199 884.204 984.403 873.134 C 988.798 861.561 995.384 844.539 1000.57 833.269 C 1007.98 817.181 1015.13 807.682 1019.8 789.871 z"/>
<path transform="translate(0,0)" fill="rgb(5,5,54)" d="M 1051.54 1112.5 C 1054.26 1115.02 1055.17 1115.46 1056.09 1119.07 C 1055.14 1122.87 1054.65 1123.5 1050.74 1125.1 C 1046.99 1118.39 1046.59 1118.77 1050.36 1112.7 L 1051.54 1112.5 z"/>
<path transform="translate(0,0)" fill="rgb(228,228,249)" d="M 1049.48 1126.92 C 1045.03 1123.52 1041.65 1113.23 1046.99 1110.66 L 1050.36 1112.7 C 1046.59 1118.77 1046.99 1118.39 1050.74 1125.1 L 1049.48 1126.92 z"/>
<path transform="translate(0,0)" fill="rgb(228,228,249)" d="M 1005.71 1119.25 C 1007.31 1121.55 1007.53 1122.05 1009.58 1123.9 C 1011.71 1123.75 1013.39 1123.59 1015.51 1123.3 L 1015.23 1124.39 L 1010.74 1127.73 C 1007.14 1127.69 1008.59 1128.3 1006.07 1126.32 C 1005.12 1122.87 1004.9 1122.86 1005.71 1119.25 z"/>
<path transform="translate(0,0)" fill="rgb(1,1,73)" d="M 1700.59 967.186 C 1695.39 962.069 1687.4 958.4 1686.16 955.278 C 1690.99 948.265 1696.55 953.429 1702.26 954.426 C 1703.37 954.619 1706.66 950.754 1707.72 949.69 C 1712.71 949.721 1725.73 948.809 1728.9 952.107 C 1733.45 956.847 1742.48 957.957 1748.43 955.522 C 1746.92 953.478 1745.49 952.598 1743.48 951.087 C 1745.96 948.669 1768.29 949.837 1773.83 949.709 C 1768.39 952.448 1766.68 952.91 1760.92 953.785 C 1756.42 954.468 1748.66 964.998 1744.46 968.398 C 1733.29 977.444 1710.51 988.639 1701.76 998.839 C 1700.62 1005.54 1701.25 1018.75 1707.55 1022.73 C 1713.58 1024.03 1716.41 1021.61 1721.66 1018.35 C 1723.22 1009.46 1740.19 993.956 1747.63 987.103 C 1752.64 990.839 1757.18 995.194 1763.19 996.159 C 1759.52 1010.81 1720.44 1042.62 1702.79 1034.87 C 1701.96 1029 1701.21 1023.06 1699.7 1017.34 C 1689.38 1007.08 1694.98 1008.5 1691.17 1002.66 C 1689 1004.7 1689.23 1004.92 1688.31 1007.84 C 1685.29 1005.9 1684.64 1003.2 1682.78 999.609 L 1681.88 999.879 C 1680.22 1005.57 1680.15 1008.01 1679.72 1013.78 C 1685.49 1018.62 1685.94 1019.11 1690 1025.18 C 1690.07 1041.78 1692.2 1073.31 1690.27 1088.07 C 1684.7 1091.35 1687.75 1084.44 1683.91 1089.48 C 1684.27 1095.6 1683.76 1095.63 1689.62 1098.56 C 1692.4 1103.8 1691.39 1129.63 1690.54 1136.32 C 1687.77 1137.68 1687.61 1137.31 1684.36 1137.4 C 1681.85 1139.13 1682.75 1138.63 1680.74 1140.61 C 1671.59 1149.59 1629.45 1175.57 1624.15 1182.76 C 1624.08 1173.07 1623.37 1148.99 1624.51 1140.56 L 1626.1 1139.95 L 1628.23 1141.68 C 1633.82 1138.57 1635.9 1136.26 1640.66 1133.08 L 1640.15 1128.02 C 1637.89 1122.21 1632.4 1120.92 1626.91 1120.35 L 1625.64 1120.23 C 1622.9 1116.37 1624.03 1077.16 1624.06 1069.61 C 1631.09 1066.17 1637.25 1066.25 1640.82 1061.83 C 1642.24 1057.61 1640.74 1051.55 1640.05 1046.85 C 1634.43 1048.78 1630.76 1049.9 1625.72 1053.23 L 1624.56 1052.63 C 1623.6 1046.29 1623.37 993.286 1625.21 990.353 C 1643.26 997.516 1654.88 1006.49 1670.49 986.956 C 1677.71 977.912 1681.47 976.613 1692.4 975.892 L 1700.59 967.186 z"/>
<path transform="translate(0,0)" fill="rgb(228,228,249)" d="M 1640.15 1128.02 C 1641.28 1124.94 1641.19 1124.01 1641.15 1120.83 L 1642.16 1119.85 C 1645.75 1122.11 1647.67 1124.13 1650.86 1126.16 C 1648.23 1129.02 1644.09 1131.08 1640.66 1133.08 L 1640.15 1128.02 z"/>
<path transform="translate(0,0)" fill="rgb(252,251,254)" d="M 1675.12 1041.12 C 1660.03 1038.71 1656.05 1046.86 1662.59 1059.67 L 1663.11 1060.68 L 1662.25 1062.39 C 1660.66 1060.89 1661.3 1061.27 1659.34 1060.34 C 1658.06 1063 1657.38 1065.34 1654.96 1066.86 C 1646.29 1060.55 1654.34 1057 1655.53 1050.93 C 1652.15 1045.6 1642.16 1048.19 1642.96 1040.2 C 1649.83 1029.66 1663.78 1028.46 1675.2 1030.69 L 1684.91 1032.57 C 1686.74 1034.17 1686.58 1034.21 1687.55 1036.48 C 1685.29 1043.2 1681.26 1042.15 1675.12 1041.12 z"/>
<path transform="translate(0,0)" fill="rgb(25,26,81)" d="M 1684.91 1032.57 C 1686.74 1034.17 1686.58 1034.21 1687.55 1036.48 C 1685.29 1043.2 1681.26 1042.15 1675.12 1041.12 C 1677.73 1036.73 1678.51 1036.6 1683.23 1034.77 L 1684.22 1034.39 L 1684.91 1032.57 z"/>
<path transform="translate(0,0)" fill="rgb(228,228,249)" d="M 1657.94 1072.45 C 1661.42 1076.25 1664.15 1077.39 1667.72 1080.71 L 1667.19 1082.08 L 1662.26 1083.33 C 1659.88 1084.16 1654.05 1079.17 1651.86 1077.64 L 1657.94 1072.45 z"/>
<path transform="translate(0,0)" fill="rgb(1,1,73)" d="M 1295.23 970.336 C 1304.23 965.052 1315.97 964.782 1324.29 957.802 C 1330.33 952.735 1344.37 928.226 1353.62 932.3 C 1354.12 935.045 1353.97 935.36 1355.36 937.71 C 1358.79 934.759 1357.85 929.057 1360.72 923.654 C 1375.34 896.113 1375.98 892.718 1404.23 883.081 C 1372.59 929.869 1363.13 955.23 1305.71 975.276 C 1333.23 996.234 1352.04 973.034 1371.64 952.689 C 1369.68 973.415 1360.78 976.696 1359.18 991.135 L 1360.32 992.118 C 1363.64 990.203 1364.93 987.182 1366.91 983.834 C 1366.92 995.912 1367.07 1007.23 1368.15 1019.26 C 1368.63 1024.65 1370.54 1031.49 1370.63 1036.02 C 1367.93 1038.33 1367.15 1039.29 1363.54 1040.1 C 1364.36 1041 1365.08 1041.73 1366.39 1041.71 C 1376.46 1041.56 1380.17 1057.65 1383.18 1065.97 C 1369.63 1070.17 1355.97 1064.24 1343.35 1069.95 L 1341.98 1070.6 C 1336.58 1068.1 1331.95 1057.99 1329 1052.66 C 1335.83 1050.62 1335.39 1049.39 1340.52 1047.21 C 1345.55 1045.09 1354.61 1042.61 1360.02 1041.1 L 1361.34 1037.65 C 1363.85 1035.82 1363.17 1036.75 1364.48 1034.13 C 1363.4 1032.71 1363.68 1032.62 1361.98 1033.8 C 1358.48 1036.23 1354.45 1030.87 1348.22 1030.19 C 1341.93 1029.51 1336.84 1038.13 1330.95 1040.71 C 1323.01 1044.19 1316.17 1043.91 1309.09 1049.55 C 1307.84 1052.84 1307.82 1051.29 1308.71 1054.35 C 1317.23 1061.21 1334.14 1050.88 1333.39 1076 C 1333.31 1078.54 1342.88 1079.84 1346.83 1088.74 L 1347.29 1089.81 C 1349.18 1087.48 1348.68 1087.49 1351.08 1086.15 C 1353.24 1088.24 1354.65 1089.89 1356.59 1092.15 L 1358.04 1092.06 C 1358.66 1089.45 1357.38 1088.56 1355.72 1085.4 L 1356.19 1084.18 C 1360.76 1084.2 1359.36 1086.69 1364.25 1087.7 C 1368.84 1082.65 1372.74 1078.49 1380.15 1077.93 C 1394.92 1076.81 1391.53 1087.08 1399.63 1092.73 C 1405.55 1095.89 1408.85 1097.93 1414.4 1101.73 L 1399.18 1101.59 C 1398.72 1107.72 1399.4 1110.79 1400.34 1116.75 C 1395.6 1118.5 1381.73 1123.84 1377.42 1122.54 C 1369.7 1105.01 1363.21 1108.73 1346.27 1110.82 C 1342.83 1113.27 1342.57 1113.45 1339.99 1116.73 C 1342.64 1119.73 1344.49 1119.72 1347.2 1123.3 C 1352.88 1130.83 1353.99 1142.36 1364.89 1143.63 C 1376.02 1144.93 1388.65 1135.02 1399.08 1138.65 C 1400.21 1139.04 1400.22 1138.91 1401.59 1138.93 C 1404.77 1140.94 1404.17 1141.49 1406.07 1145.66 C 1409.41 1142.95 1407.73 1140.36 1406.59 1136.43 L 1407.51 1135.07 C 1415.62 1138.79 1412.08 1157.55 1398.82 1161.19 C 1396.84 1160.07 1396.94 1160.19 1395.67 1158.32 C 1391.71 1158.81 1395.64 1160.87 1392.77 1161.23 C 1386.36 1162.03 1376.64 1159.27 1370.45 1159.52 C 1361.39 1159.88 1366.43 1162.4 1360.22 1163.96 C 1348.66 1157.61 1349.31 1151.96 1345.27 1143.39 C 1344.59 1141.97 1338.39 1140.75 1335.84 1131.11 C 1336.88 1128.64 1337.13 1128.45 1337.38 1125.84 L 1336.21 1124.92 C 1335.3 1127.28 1334.6 1129.31 1333.8 1131.7 C 1331.99 1129.92 1332.36 1128.3 1331.52 1126.42 C 1327.41 1117.14 1334.16 1120.8 1335.41 1115.93 C 1332.74 1112.54 1334.34 1113.29 1330.97 1112.57 C 1327.84 1114.69 1329.11 1114.45 1325.74 1114.86 C 1309.59 1098.2 1294.01 1031.72 1293.99 1007.07 C 1297.85 1000.75 1302.64 1002.04 1310.37 999.23 C 1311.08 990.026 1294.53 989.252 1295.23 970.336 z"/>
<path transform="translate(0,0)" fill="rgb(3,2,9)" d="M 1406.07 1145.66 C 1409.41 1142.95 1407.73 1140.36 1406.59 1136.43 L 1407.51 1135.07 C 1415.62 1138.79 1412.08 1157.55 1398.82 1161.19 C 1396.84 1160.07 1396.94 1160.19 1395.67 1158.32 C 1400.91 1155 1402.46 1151.04 1403.95 1145.23 L 1406.07 1145.66 z"/>
<path transform="translate(0,0)" fill="rgb(5,5,54)" d="M 1399.63 1092.73 C 1405.55 1095.89 1408.85 1097.93 1414.4 1101.73 L 1399.18 1101.59 C 1399.61 1098.76 1399.55 1095.62 1399.63 1092.73 z"/>
<path transform="translate(0,0)" fill="rgb(228,228,249)" d="M 1347.66 990.566 C 1350.48 991.418 1349.21 990.704 1351.15 993.376 C 1351.94 998.24 1351.66 1000.61 1349.35 1004.99 C 1348.55 1001.83 1348.81 1003.37 1350.3 999.455 L 1349.49 998.731 C 1348.03 1001.71 1348.81 1001.1 1346.5 1003.02 L 1344.53 1001.94 C 1340.45 995.465 1342.85 995.536 1347.66 990.566 z"/>
<path transform="translate(0,0)" fill="rgb(228,228,249)" d="M 1326.87 1084.58 C 1327.83 1084.93 1328.84 1085.75 1329.74 1086.36 C 1330.04 1089.63 1327.86 1093.27 1326.39 1096.42 C 1323.78 1092.77 1321.69 1091.07 1322.81 1086.65 L 1326.87 1084.58 z"/>
<path transform="translate(0,0)" fill="rgb(1,1,73)" d="M 1182.88 786.614 C 1186.71 790.468 1195.79 802.708 1199.2 804.343 C 1210.25 809.631 1209.08 785.556 1221.92 793.598 C 1221.66 798.345 1218.07 798.717 1216.54 805.068 C 1217.66 806.96 1217.77 807.267 1218.32 809.329 L 1218.76 811.066 L 1220.42 811.874 L 1222.37 810.838 L 1222.68 809.327 L 1220.01 807.605 C 1220.64 805.227 1229.63 805.026 1233.28 802.542 C 1239.94 798.015 1234.3 798.107 1239.73 792.082 C 1242.96 792.395 1242.59 793.106 1245.56 796.065 C 1250.04 797.514 1253.41 796.952 1258.14 796.715 L 1257.84 811.451 C 1251.11 812.072 1242.59 813.696 1235.87 814.837 C 1222.83 828.891 1245.68 836.072 1256.13 841.726 C 1256.42 848.859 1255.43 854.753 1254.74 861.832 C 1257.12 863.811 1257.38 863.669 1258.51 866.462 C 1257.38 869.719 1257.5 868.77 1253.5 871.006 L 1253.26 872.649 L 1255.68 874.994 C 1258.47 878.98 1261.47 883.915 1256.54 887.278 L 1255.19 887.08 L 1253.5 884.036 C 1250.87 884.882 1250.8 885.694 1248.62 887.983 L 1248.23 887.161 L 1250.1 884.911 L 1249.24 883.873 L 1250.4 881.911 C 1242.56 881.108 1221.89 906.688 1215.52 911.828 C 1213.88 917.456 1211.52 922.542 1214.09 927.796 C 1219.08 930.716 1223.25 927.137 1227.15 923.854 C 1237.88 914.805 1249 906.293 1260.12 897.718 C 1259.46 907.615 1260.36 925.03 1253.3 930.152 C 1246.06 935.402 1240.71 964.998 1233.9 967.35 L 1232.01 964.143 C 1228.36 966.226 1223.37 968.737 1219.99 970.902 C 1216.51 972.742 1218.16 972.699 1214.93 971.706 C 1211.31 956.784 1220.28 956.331 1205.29 943.015 C 1205.27 943.712 1201.05 978.966 1201.57 977.694 L 1195.9 970.991 L 1182.58 971.404 C 1182.53 962.616 1181.3 912.253 1184.04 907.635 L 1186.36 907.886 C 1187.8 903.927 1187.76 903.968 1190.23 900.568 L 1183.6 898.43 C 1181.09 891.631 1182.62 839.509 1182.74 829.15 C 1184.96 826.778 1189.65 822.215 1190.07 819.264 C 1190.63 815.348 1193.41 817.442 1194.35 813.697 C 1190.59 812.619 1191.5 812.84 1188.59 810.038 C 1186.1 810.546 1185.94 810.592 1183.41 810.538 C 1181.42 805.782 1182.6 792.169 1182.88 786.614 z"/>
<path transform="translate(0,0)" fill="rgb(252,251,254)" d="M 1190.23 900.568 C 1188.23 892.003 1199.7 879.667 1199.09 871.418 C 1199.13 871.993 1196 866.278 1195.77 865.813 L 1198.37 863.632 L 1198.23 861.809 L 1192.62 860.004 L 1192.55 858.617 C 1194.96 857.687 1194.27 857.874 1196.74 857.515 C 1199.51 854.787 1204.39 848.962 1207.62 847.823 C 1213.02 856.57 1217.26 865.26 1218.54 875.567 L 1217.67 877.526 C 1205.09 880.898 1200.17 882.232 1193.06 893.84 C 1191.84 895.84 1192.24 897.372 1190.23 900.568 z"/>
<path transform="translate(0,0)" fill="rgb(5,5,54)" d="M 1255.68 874.994 C 1258.47 878.98 1261.47 883.915 1256.54 887.278 L 1255.19 887.08 L 1253.5 884.036 C 1250.87 884.882 1250.8 885.694 1248.62 887.983 L 1248.23 887.161 L 1250.1 884.911 L 1249.24 883.873 L 1250.4 881.911 C 1251.09 879.312 1253.73 877.076 1255.68 874.994 z"/>
<path transform="translate(0,0)" fill="rgb(1,1,73)" d="M 851.331 876.669 C 852.987 876.102 855.015 875.408 857.416 874.585 C 862.131 868.483 860.05 867.941 869.043 871.109 C 871.38 870.131 872.295 869.685 874.487 868.419 C 884.404 880.05 892.404 897.932 879.021 910.367 C 875.637 906.331 879.925 904.492 876.96 903.587 C 872.838 907.722 870.66 911.814 867.597 916.765 L 880.726 919.67 C 875.591 936.303 857.943 962.915 850.769 979.901 C 850.433 980.697 847.446 983.072 846.512 983.764 C 845.667 987.774 847.766 991.416 847.898 992.984 C 848.127 995.716 834.022 1009.37 832.196 1011.05 C 832.36 1015.37 831.603 1015.15 833.815 1017.58 C 835.852 1015.74 835.607 1015.1 836.551 1012.21 C 841.42 1011.72 841.523 1012.78 843.775 1017.03 L 843.086 1015.49 L 844.111 1016.98 L 842.605 1033.74 C 836.885 1040.75 820.236 1057.08 820.612 1065.3 C 820.638 1065.89 821.119 1069.04 821.256 1069.87 L 822.569 1070.38 C 824.427 1071.11 823.692 1070.79 825.469 1071.65 C 822.058 1073.06 821.619 1072.54 820.05 1075.08 L 821.151 1076.61 L 825.474 1076.84 L 825.823 1078.45 C 823.807 1080.03 824.635 1079.62 822.149 1080.17 C 821.896 1082.09 821.831 1082.99 821.804 1084.93 C 817.53 1086.68 819.617 1082.5 817.483 1086.24 C 825.439 1106.81 816.199 1102.77 817.256 1112.21 C 818.581 1114.66 819.893 1117.06 821.125 1119.56 C 818.963 1126.46 815.738 1132.19 818.088 1137.49 C 821.186 1144.48 814.212 1174.74 811.883 1182.31 C 801.706 1188.05 796.07 1191.36 784.98 1194.64 C 784.889 1178.57 786.35 1179.52 792.151 1164.32 C 793.124 1161.76 793.785 1156.76 795.113 1153.16 C 794.665 1149.02 795.156 1146.92 794.167 1142.64 L 791.396 1141.24 C 788.363 1144.58 787.97 1146.18 784.346 1147.29 L 783.086 1146.03 L 780.728 1146.92 C 778.729 1151.68 778.808 1156.39 778.434 1161.6 C 772.313 1148.85 770.946 1146.49 771.882 1132.5 C 772.72 1127.82 774.069 1126.78 772.675 1122 L 771.336 1121.7 C 764.156 1131.91 760.288 1153.06 757.748 1165.55 C 756.123 1173.55 780.458 1203.98 755.874 1201.12 C 751.359 1200.56 750.139 1197.13 745.098 1197.85 C 744.773 1200.47 745.044 1200.67 743.337 1202.56 C 740.8 1199.34 737.584 1191.28 738.239 1187.1 L 735.202 1185.25 L 734.857 1183.63 L 738.485 1181.71 C 722.934 1160.08 749.57 1147.71 748.424 1136.87 C 742.016 1133.62 742.768 1130.16 741.154 1123.31 C 756.685 1119.78 767.456 1112.38 779.744 1109 L 778.533 1111.51 L 775.563 1112.2 L 774.766 1113.65 L 775.376 1115.68 L 777.531 1114.58 C 782.166 1116.3 781.601 1119.61 786.959 1121.79 L 789.463 1120.41 C 795.266 1111.15 794.263 1104.18 794.183 1093.58 C 815.373 1070.69 828.966 1034.25 829.518 1003.16 C 829.757 993.666 829.462 982.506 829.616 973.425 C 829.896 956.934 841.603 925.473 853.523 914.531 C 856.01 911.899 855.962 911.149 856.808 907.691 L 851.017 910.167 L 848.68 907.357 L 844.533 913.566 C 843.589 910.586 843.723 912.152 844.775 908.711 L 840.153 909.266 C 838.596 907.512 839.363 908.459 837.876 906.407 C 833.072 908.536 836.189 911.67 832.039 910.716 C 829.143 902.876 835.549 893.005 840.925 887.54 C 845.655 887.419 844.18 891.605 845.997 888.099 C 847.729 884.757 849.818 880.08 851.331 876.669 z"/>
<path transform="translate(0,0)" fill="rgb(25,26,81)" d="M 771.882 1132.5 C 779.122 1138.29 776.944 1142.45 783.086 1146.03 L 780.728 1146.92 C 778.729 1151.68 778.808 1156.39 778.434 1161.6 C 772.313 1148.85 770.946 1146.49 771.882 1132.5 z"/>
<path transform="translate(0,0)" fill="rgb(25,26,81)" d="M 856.808 907.691 C 859.045 911.248 864.787 910.76 865.432 918.121 C 863.851 920.073 864.666 919.872 862.956 920.151 L 861.805 916.794 C 855.751 917.017 857.72 917.799 853.523 914.531 C 856.01 911.899 855.962 911.149 856.808 907.691 z"/>
<path transform="translate(0,0)" fill="rgb(228,228,249)" d="M 795.163 1130.99 C 795.292 1133.22 795.382 1132.09 794.842 1134.38 C 797.958 1139.47 795.985 1147.31 795.113 1153.16 C 794.665 1149.02 795.156 1146.92 794.167 1142.64 L 791.396 1141.24 L 791.443 1140.88 L 789.986 1139.23 L 790.302 1135.55 C 792.199 1132.48 791.931 1132.48 795.163 1130.99 z"/>
<path transform="translate(0,0)" fill="rgb(5,5,54)" d="M 738.239 1187.1 C 742.925 1190.43 742.787 1192.8 745.098 1197.85 C 744.773 1200.47 745.044 1200.67 743.337 1202.56 C 740.8 1199.34 737.584 1191.28 738.239 1187.1 z"/>
<path transform="translate(0,0)" fill="rgb(1,1,73)" d="M 1182.66 1016.47 C 1182.41 1008.49 1180.63 983.251 1184.14 978.03 L 1185.48 978.382 C 1186.89 981.594 1187.08 983.898 1189.46 984.956 C 1192.33 982.505 1195.01 978.158 1196.68 977.958 C 1195.98 982.27 1195.38 980.697 1197.06 983.566 C 1199.33 983.37 1200.4 983.154 1202.64 982.679 C 1205.29 985.482 1202.85 994.022 1202.57 998.379 C 1204.65 995.324 1205.61 992.845 1208.56 991.365 C 1212.79 993.262 1211.8 994.702 1216.92 995.886 C 1226.89 1008.11 1209.53 1019.46 1241.43 1016.95 C 1245.94 1024.45 1255.77 1045.63 1259.32 1049.29 C 1257.33 1060.98 1251.44 1087.85 1247.8 1099.48 C 1244.51 1098.48 1240.6 1097.13 1237.27 1096.53 C 1231.62 1080.73 1226.99 1066.13 1218.05 1051.78 L 1218.9 1050.85 C 1222.05 1047.4 1222.41 1046.92 1226.22 1044.46 L 1226.86 1044.78 L 1227.06 1044.07 L 1228.19 1044.81 L 1228.47 1043.88 L 1227.72 1044.73 C 1224.12 1042.56 1222.6 1034.67 1215.61 1029.22 C 1211.73 1033.76 1207.84 1036.86 1206.71 1042.16 C 1207.8 1045.66 1209.17 1049.43 1210.16 1052.87 L 1204.66 1060.48 C 1205.3 1063.98 1207.14 1074.76 1208.47 1077.43 C 1211.52 1083.59 1218.56 1091.06 1220.57 1097.86 C 1225.12 1113.28 1225.47 1122.33 1231.8 1137.81 C 1227.27 1147.29 1226.7 1149.58 1219.91 1157.12 C 1216.6 1155.84 1214.65 1155.24 1211.8 1153.06 C 1205.56 1148.29 1200.38 1129.39 1191.58 1132.73 C 1188.14 1138.12 1189.03 1145.13 1188.69 1151.25 C 1188.1 1161.47 1192.55 1162.1 1181.09 1165.45 L 1180.78 1166.99 C 1185.2 1169.77 1190.14 1172.33 1192.55 1176.87 C 1192.73 1180.98 1193.1 1178.97 1190.71 1182.93 C 1181.71 1186.06 1153.8 1132.72 1152.64 1124.46 C 1149.82 1121.47 1147.32 1119.16 1147.28 1115.13 C 1148.36 1112.08 1150.17 1111.29 1152.85 1109.4 C 1157.85 1105.44 1160.08 1101.09 1164.6 1097.62 C 1167.87 1105.37 1172.88 1120.04 1183.08 1118.81 C 1189.25 1115.35 1191.97 1108.42 1193.8 1101.95 L 1194.13 1100.74 C 1187.29 1093.74 1181.65 1088.91 1174.24 1082.6 C 1177.28 1073.1 1179.77 1064.68 1184.21 1055.9 C 1186.75 1050.88 1199.8 1040.85 1197.45 1037.21 C 1186.29 1019.97 1198.08 1022.56 1201.84 1010.91 C 1199.78 1007.63 1198.8 1006.32 1196.32 1003.33 C 1189.74 1008.86 1200.58 1008.58 1182.66 1016.47 z"/>
<path transform="translate(0,0)" fill="rgb(5,5,54)" d="M 1152.85 1109.4 C 1153.47 1113.51 1152.47 1120.05 1152.64 1124.46 C 1149.82 1121.47 1147.32 1119.16 1147.28 1115.13 C 1148.36 1112.08 1150.17 1111.29 1152.85 1109.4 z"/>
<path transform="translate(0,0)" fill="rgb(1,1,73)" d="M 409.209 790.832 C 454.803 791.627 454.902 784.905 431.086 829.176 C 429.318 832.462 430.429 842.772 426.861 846.299 C 425.454 844.601 426.304 845.138 424.415 844.534 C 422.367 853.256 417.517 851.887 412.372 860.246 C 416.542 861.981 419.142 863.011 421.39 866.885 C 421.58 871.063 421.924 869.04 419.845 873.075 C 417.444 874.776 407.396 874.174 403.757 874.175 C 398.874 887.184 395.306 899.979 393.79 913.694 C 393.62 915.238 391.403 916.03 389.933 916.944 C 389.305 923.015 392.094 933.988 385.553 937.778 C 381.677 937.655 381.447 937.563 378.342 935.239 L 376.905 935.631 C 376.371 938.385 375.719 943.965 377.568 945.98 C 381.103 943.665 379.884 945.174 381.48 941.393 C 382.444 946.648 378.524 946.788 379.194 951.819 C 381.082 953.374 381.438 953.685 383.016 955.541 C 382.089 963.266 378.623 966.814 377.317 973.795 C 377.087 975.025 380.894 978.733 382.154 980.182 C 381.933 986.444 380.45 978.933 377.781 986.396 C 375.887 991.694 374.014 1011.99 372.606 1014.63 L 368.922 1014.99 C 368.234 1015.87 367.013 1027.14 366.112 1030.58 L 362.54 1032.39 C 363.859 1035.37 364.887 1039.56 365.797 1042.81 L 361.965 1053.38 C 355.432 1048.11 337.143 1039.89 349.712 1028.72 C 353.778 1030.39 351.386 1032.22 355.615 1036.56 C 362.268 1029.61 350.537 1018.75 347.989 1011.81 C 342.524 996.934 345.18 985.613 347.841 970.879 C 349.476 961.83 349.115 951.3 352.63 942.457 C 352.632 942.453 356.516 939.305 356.87 939.018 C 352.568 937.064 353.875 938.561 351.952 935.195 C 352.962 922.153 360.505 918.502 363.904 907.449 C 362.752 904.754 362.423 904.405 362.081 901.548 C 364.184 897.925 364.268 897.449 367.52 895.003 L 370.518 895.58 C 374.929 886.882 367.041 888.459 364.141 885.531 C 363.652 876.412 370.145 878.523 372.466 871.996 L 371.73 867.461 C 369.198 852.048 383.091 860.556 388.475 848.522 C 388.731 848.122 388.986 847.721 389.242 847.32 C 386.059 829.764 390.709 818.285 398.698 802.809 C 400.457 799.401 404.047 799.496 407.379 799.142 C 409.736 795.467 408.954 795.893 409.209 790.832 z"/>
<path transform="translate(0,0)" fill="rgb(1,1,73)" d="M 1545.11 1072.66 C 1547.69 1073.83 1562.6 1092.94 1565.38 1096.3 C 1551.95 1109.7 1541.35 1115.22 1528.5 1126.17 L 1528.31 1129.38 C 1524.24 1133.15 1522.08 1132.28 1518.04 1137.38 C 1520.63 1152.11 1525.69 1143.11 1534.89 1150.26 C 1544.38 1139.08 1561.69 1123.96 1573.18 1111.97 C 1580.17 1119.7 1584.69 1124.93 1590.26 1133.73 C 1581.7 1145.5 1539.54 1180.97 1523.2 1186.77 C 1520.57 1187.7 1519.18 1185.93 1517.47 1184.42 L 1514.1 1186.9 L 1512.14 1186.59 C 1511.6 1184.72 1511.72 1184.29 1511.93 1182.4 L 1512.15 1180.48 L 1510.83 1179.91 C 1508.55 1181.98 1509.43 1181.57 1506.74 1182.71 L 1505.7 1180.79 C 1506.56 1176.28 1506.41 1175.44 1504.65 1171.2 C 1502.9 1166.57 1505.6 1161.88 1507.48 1157.16 C 1504.08 1149.75 1503.52 1147.42 1502.08 1139.75 C 1493.33 1142.38 1487.93 1146.5 1481 1149.05 C 1471.37 1152.59 1453.66 1146.75 1447 1157.85 C 1444.64 1161.78 1439.54 1164.44 1434.47 1164.02 C 1428.66 1159.79 1426.09 1149.52 1422.56 1142.49 C 1420.8 1143.95 1420.67 1146.69 1419.94 1149.47 L 1418.77 1149.92 C 1416.67 1147.34 1416.31 1147.13 1414.94 1143.99 C 1415.14 1139.21 1416.87 1130.14 1422.59 1129.32 C 1422.41 1130.88 1422.25 1132.12 1421.98 1133.69 L 1421.74 1135.05 L 1422.88 1135.71 C 1433.22 1132.22 1443.94 1098.54 1458.6 1135.07 C 1474.39 1112.25 1483.06 1119.83 1504.45 1105.96 C 1518.65 1096.75 1533.07 1084.53 1545.11 1072.66 z"/>
<path transform="translate(0,0)" fill="rgb(1,1,73)" d="M 623.722 809.195 C 630.95 805.224 651.44 787.752 658.954 789.63 C 662.577 797.314 656.041 800.169 651.167 806.092 C 639.567 820.372 634.794 839.538 630.76 857.185 C 628.625 866.528 629.731 872.696 620.779 875.859 L 620.304 877.433 L 623.063 879.933 L 622.452 881.782 L 618.222 883.286 L 617.748 885.54 C 619.076 887.829 619.138 887.785 619.743 890.332 L 617.952 891.973 C 616.595 893.765 616.885 892.761 617.054 894.977 C 619.1 899.538 610.711 922.64 608.468 928.208 C 604.693 930.588 599.934 932.633 599.402 937.316 C 601.269 938.528 601.5 938.578 603.622 938.986 L 605.408 939.315 C 602.605 945.234 602.566 951.172 600.187 958.148 C 598.086 958.822 598.764 958.359 597.22 959.834 L 597.989 961.727 C 600.594 962.5 601.36 962.326 602.971 964.347 C 602.798 982.417 597.012 983.601 589.062 998.533 C 587.491 1001.48 585.114 1011.46 583.993 1015.5 C 581.72 1016.52 582.418 1016.07 580.472 1017.71 C 583.407 1020.35 582.825 1018.83 583.151 1022.01 C 580.754 1025.37 581.098 1024.43 576.629 1026.33 C 581.871 1028.21 579.042 1025.45 582.727 1029.61 C 584.176 1035.81 580.969 1038.92 579.41 1044.68 C 577.558 1051.53 576.89 1058.7 576.13 1065.73 L 574.611 1066.6 L 572.753 1065.47 L 572.398 1061.81 C 571.606 1063.68 571.321 1067.82 571.04 1070.16 C 568.281 1074.54 566.171 1076.59 562.695 1080.36 C 573.68 1083.86 568.201 1095.08 564.032 1102.16 C 566.303 1104.61 570.877 1108.69 571.513 1111.38 C 567.966 1111.25 567.278 1110.78 564.225 1112.08 L 563.845 1116.93 L 562.558 1118.02 C 554.226 1115.02 542.716 1080.61 540.679 1071.67 C 549.242 1065.68 549.475 1060.9 550.627 1050.36 C 551.649 1041.01 557.367 1038.55 558.543 1032.48 C 561.176 1018.91 563.559 1010.09 559.41 996.522 C 560.496 992.848 573.45 973.001 576.597 967.985 L 579.068 968.456 C 584.892 962.293 576.666 953.314 585.852 940.273 C 586.411 917.413 595.997 902.848 603.327 881.746 C 606.239 873.36 608.754 860.038 611.507 850.571 C 615.246 837.716 621.782 821.815 623.722 809.195 z"/>
<path transform="translate(0,0)" fill="rgb(228,228,249)" d="M 617.054 894.977 C 614.343 892.921 610.859 890.521 610.534 886.891 C 613.469 887.1 615.301 889.627 617.952 891.973 C 616.595 893.765 616.885 892.761 617.054 894.977 z"/>
<path transform="translate(0,0)" fill="rgb(1,1,73)" d="M 1561.72 1287.38 C 1585.75 1288.46 1601.85 1300.3 1604.58 1324.85 C 1608.09 1356.43 1596.97 1377.95 1564 1381.84 C 1538.87 1380.4 1522.77 1369.38 1519.99 1343.18 C 1516.69 1311.92 1528.81 1289.96 1561.72 1287.38 z"/>
<path transform="translate(0,0)" fill="rgb(252,251,254)" d="M 1557.27 1303.25 C 1570.38 1302.57 1581.38 1306.58 1584.76 1320.16 C 1589.34 1338.57 1587.62 1360.46 1566.53 1365.85 C 1554.56 1366.33 1543.8 1362.52 1540.38 1350.29 C 1535.21 1331.77 1536.6 1309.84 1557.27 1303.25 z"/>
<path transform="translate(0,0)" fill="rgb(1,1,73)" d="M 1624.16 1288.86 C 1643.5 1288.66 1674.03 1285.55 1689.24 1298.63 C 1707.81 1314.61 1706.8 1350.2 1691.67 1368.31 C 1674.95 1384.09 1646.52 1380.42 1624.15 1380.27 L 1624.16 1288.86 z"/>
<path transform="translate(0,0)" fill="rgb(252,251,254)" d="M 1642.19 1303.98 C 1664.67 1303.71 1683.71 1303.66 1684.21 1332.2 C 1684.41 1343.27 1683.78 1349.21 1676.98 1358.41 C 1665.01 1366.77 1656.42 1365.2 1642.2 1365.08 L 1642.19 1303.98 z"/>
<path transform="translate(0,0)" fill="rgb(1,1,73)" d="M 303.083 876.154 C 303.073 875.26 303.154 873.675 303.078 872.826 C 301.098 850.807 342.435 814.751 341.033 796.614 C 337.5 795.758 336.644 795.747 333.614 793.587 C 334.066 786.786 373.019 789.826 380.338 789.944 C 380.313 801.553 378.198 805.879 374.756 816.583 C 374.327 817.919 376.347 817.867 375.293 821.541 C 373.024 820.694 373.891 820.82 371.453 820.846 C 370.525 824.401 371.863 825.481 373.499 829.612 C 370.788 833.892 372.858 829.406 366.789 831.611 C 364.228 838.186 365.705 851.296 366.184 858.517 C 359.556 865.325 356.312 871.03 352.749 879.731 C 348.871 889.201 349.154 883.385 344.347 886.968 C 341.525 896.831 346.009 891.299 347.869 896.197 C 345.499 898.62 345.95 897.832 341.532 898.239 C 338.199 901.596 342.777 901.132 340.109 906.228 C 337.488 906.987 338.269 906.456 336.265 908.053 C 338.463 912.019 337.286 907.295 342.17 911.203 C 345.022 919.975 350.689 931.919 341.405 938.594 C 338.423 940.738 338.094 941.612 338.304 944.963 L 336.125 947.219 C 334.587 948.788 325.266 973.681 325.122 976.827 C 329.71 986.793 327.773 987.02 320.339 994.831 C 319.428 955.607 322.618 915.908 320.317 876.639 C 320.199 874.623 317.843 873.48 316.441 872.556 C 310.237 871.79 308.856 873.2 303.083 876.154 z"/>
<path transform="translate(0,0)" fill="rgb(1,1,73)" d="M 1520.36 824.006 C 1523.57 818.38 1522.83 818.021 1528.38 814.688 C 1528.05 810.436 1527.02 801.834 1527.78 798.032 C 1535.7 797.679 1588.57 834.123 1588.95 844.528 C 1588 845.415 1570.7 852.3 1567.29 853.732 C 1564.39 850.279 1562.12 823.935 1551.87 831.524 C 1548.19 838.735 1548.46 848.046 1551.69 855.312 C 1549.41 860.128 1549.23 861.764 1544.79 863.954 C 1542.37 863.514 1542.74 863.364 1540.4 863.606 C 1539.86 866.472 1539.55 867.975 1538.71 870.834 C 1533.43 872.877 1525.71 868.209 1520.22 870.696 C 1518.12 871.647 1519.8 871.341 1517.02 871.361 C 1514.75 866.482 1515 861.72 1509.31 861.267 C 1508.28 864.227 1506.55 872.554 1507.87 875.079 L 1512.32 874.493 L 1513.54 875.694 C 1512.47 878.592 1513.45 877.599 1510.95 879.085 C 1494.03 871.899 1477.72 864.956 1459.9 860.286 C 1450.75 857.89 1445.97 853.895 1443.32 844.55 L 1444.18 843.017 C 1447.04 842.643 1447.64 843.228 1450.58 844.117 C 1453.46 843.347 1450.68 837.474 1454.46 832.35 L 1456.52 832.104 L 1457.72 833.22 L 1456.38 836.96 C 1456.74 839.859 1456.23 838.915 1457.82 841.043 C 1458.73 835.301 1457.98 831.102 1463.84 829.124 L 1465.27 829.299 C 1468.52 821.968 1477.61 815.179 1485.53 816.426 C 1488.39 816.876 1486.37 814.797 1490.28 815.274 C 1491.6 818.364 1490.6 818.474 1488.89 822.862 C 1489.6 825.783 1488.75 824.794 1491.06 826.235 C 1493.78 824.474 1492.69 824.766 1495.69 824.224 C 1497.17 826.297 1496.43 827.679 1496.24 830.984 C 1499.96 836.17 1500.91 837.171 1501.5 843.687 C 1514.98 826.115 1517.04 824.53 1493.72 816.354 C 1498.29 813.792 1505.44 808.853 1510.11 809.056 C 1514.53 811.136 1517.86 819.287 1520.36 824.006 z"/>
<path transform="translate(0,0)" fill="rgb(228,228,249)" d="M 1463.84 829.124 L 1465.27 829.299 C 1468.95 837.638 1470.77 842.204 1468.95 851.218 L 1467.99 850.484 C 1465.28 843.5 1464.78 836.558 1463.84 829.124 z"/>
<path transform="translate(0,0)" fill="rgb(1,1,73)" d="M 1658.78 791.535 C 1667.86 790.686 1681.61 791.051 1691.05 791.025 C 1691.1 798.031 1691.74 818.198 1690.46 823.484 C 1684.02 825.469 1689.72 821.142 1685.6 821.472 C 1675.13 822.31 1664.49 823.607 1654.04 824.756 C 1652.04 823.728 1650.37 822.873 1649.04 822.192 C 1646.86 823.792 1647.75 822.75 1647.03 825.948 C 1648.75 833.256 1653.64 837.147 1658.92 842.35 C 1664.21 839.455 1666.75 836.908 1671.78 841.373 C 1678.76 839.528 1684.03 839.157 1691.05 837.937 C 1691.07 845.082 1692.08 878.818 1689.56 882.351 C 1686.47 881.89 1687.95 882.444 1685.41 879.667 L 1686.14 875.058 L 1685.1 874.268 C 1681.85 877.794 1681.4 878.966 1676.57 877.886 C 1675.52 874.197 1674.1 873.47 1670.69 873.306 L 1672.14 872.717 L 1670.98 872.565 C 1669.99 876.485 1671.07 875.32 1668.62 877.374 C 1664.73 875.656 1666.96 873.624 1663.85 872.586 C 1666.16 876.334 1662.9 871.943 1663.32 877.493 C 1649.33 879.279 1633.89 879.782 1622.23 887.136 C 1621.83 880.051 1621.36 862.028 1622.4 855.632 L 1623.46 855.222 C 1625.57 857.982 1625.51 858.507 1628.37 860.283 C 1637.87 854.304 1641.51 855.001 1651.79 857.327 C 1654.48 854.921 1656.52 853.45 1658.31 850.3 C 1656.74 846.797 1654.46 849.476 1652.18 845.676 C 1654.37 843.336 1653.95 844.402 1654.73 841.606 L 1652.98 841.201 C 1648.87 844.126 1653.03 842.953 1649.43 847.355 C 1646.26 845.158 1643.75 841.048 1641.44 837.829 C 1638.85 839.363 1638.66 839.376 1635.76 840.28 C 1633.24 838.895 1630.13 836.936 1627.41 837.943 C 1626.52 840.844 1626.78 841.347 1624.81 843.333 L 1623.7 842.732 C 1621.18 836.161 1622.07 810.169 1622.12 801.403 C 1633.19 794.085 1644.87 792.335 1657.56 791.814 C 1657.97 791.721 1658.38 791.628 1658.78 791.535 z"/>
<path transform="translate(0,0)" fill="rgb(1,1,73)" d="M 270.413 819.017 C 276.523 811.639 283.651 804.258 285.717 795.102 C 286.153 793.17 286.803 792.516 288.168 791.197 C 293.219 788.947 297.774 790.973 302.91 792.719 C 305.077 795.016 306.729 797.731 309.101 798.368 L 309.647 797.54 L 307.863 794.949 C 309.044 791.13 315.484 787.453 319.387 788.303 C 319.153 790.807 319.573 789.68 317.687 791.559 L 313.939 791.896 L 313.023 793.365 C 314.4 796.822 318.286 802.488 318.885 803.561 C 320.506 806.466 315.532 825.96 314.01 828.943 C 308.509 839.721 302.564 852.622 295.722 862.533 C 293.635 865.555 288.044 870.666 285.306 874.05 C 279.978 874.082 265.44 874.782 261.201 873.494 L 259.461 870.811 C 258.943 871.29 256.238 873.693 255.611 873.691 C 245.121 873.661 235.329 875.13 224.869 874.165 L 223.636 872.823 C 225.655 866.923 224.963 865.056 223.785 858.958 L 230.765 858.428 C 237.65 850.778 234.181 844.006 238.293 836.745 C 243.502 827.545 254.84 819.029 262.417 811.286 C 263.828 823.71 260.999 838.414 261.593 842.547 C 265.213 843.277 270.367 842.233 273.799 840.984 C 272.501 837.066 270.999 835.192 268.723 831.693 C 269.52 827.096 270.185 823.715 270.413 819.017 z"/>
<path transform="translate(0,0)" fill="rgb(228,228,249)" d="M 223.785 858.958 L 230.765 858.428 C 232.739 864.717 227.964 868.614 224.869 874.165 L 223.636 872.823 C 225.655 866.923 224.963 865.056 223.785 858.958 z"/>
<path transform="translate(0,0)" fill="rgb(228,228,249)" d="M 252.655 848.444 C 257.042 848.821 258.214 849.12 260.081 852.926 C 259.392 856.794 259.747 855.481 256.96 858.812 C 252.22 856.321 250.877 857.981 248.452 853.794 C 249.225 850.952 250.4 850.362 252.655 848.444 z"/>
<path transform="translate(0,0)" fill="rgb(1,1,73)" d="M 391.084 1057.82 C 392.049 1058.7 400.769 1066.06 400.706 1065.93 C 410.554 1086.65 405.954 1112.32 402.782 1133.87 C 400.374 1135.73 401.016 1134.91 399.418 1137.37 C 408.65 1148.05 399.799 1147.26 398.122 1153.96 C 398.122 1153.96 405.829 1165.18 406.328 1166.74 C 409.202 1175.71 407.877 1193.13 407.619 1202.45 C 397.599 1202.29 387.298 1202.35 377.256 1202.3 C 373.014 1202.42 362.45 1203.06 358.917 1201.47 C 360.683 1198.39 362.248 1196.5 362.186 1193.01 C 360.306 1189.28 359.306 1188.11 359.351 1184.1 C 360.556 1180.27 362.963 1180.22 366.081 1177.53 C 369.041 1174.98 366.026 1168.25 368.148 1164.58 C 368.696 1163.43 376.41 1154.81 375.6 1154.07 C 370.184 1149.15 375.478 1145.57 375.935 1139.24 L 372.604 1137.86 C 369.559 1131.65 375.182 1122.59 378.775 1117.54 L 376.299 1108.54 C 380.719 1092.19 375.953 1067.14 391.084 1057.82 z"/>
<path transform="translate(0,0)" fill="rgb(1,1,73)" d="M 591.785 835.762 C 588.131 838.638 585.108 847.119 586.064 851.524 L 587.065 852.051 L 589.104 848.475 L 589.946 848.573 C 590.476 856.812 582.845 857.448 589.225 865.519 C 590.255 871.506 565.813 911.326 561.031 919.16 C 559.118 918.923 559.705 919.027 558.217 918.737 L 557.277 918.547 C 555.375 923.82 560.002 932.725 557.614 938.42 C 555.914 936.852 556.497 937.473 555.058 935.843 L 554.105 934.746 L 552.916 935.374 C 541.965 961.543 541.511 992.56 540.717 1019.92 C 540.572 1024.91 536.105 1041.52 532.2 1044.13 L 530.553 1043.74 C 527.195 1038.77 523.497 991.663 523.998 983.354 C 527.381 927.283 546.386 873.109 587.891 834.448 L 591.785 835.762 z"/>
<path transform="translate(0,0)" fill="rgb(1,1,73)" d="M 1452.44 784.454 C 1462.41 784.269 1495.3 785.83 1503.37 790.638 L 1503.25 791.863 C 1496.71 795.813 1475.62 799.897 1468.06 803.073 C 1465.25 804.25 1458.94 818.954 1457.22 822.714 C 1453.82 824.037 1449.63 827.447 1447.46 828.238 C 1437.49 831.876 1422.1 837.5 1411.87 838.505 C 1405.29 840.237 1404.15 841.592 1399.19 846.358 C 1396.76 843.064 1395.77 840.766 1392.39 840.014 L 1390.18 842.61 C 1385.78 841.237 1388.94 838.586 1383.49 835.985 L 1380.79 837.601 L 1380.21 835.966 L 1382.07 832.385 C 1381.32 828.304 1375.05 821.809 1372.13 816.062 C 1373.75 809.111 1381.38 805.931 1387.17 802.8 C 1407.75 791.666 1429.11 785.751 1452.44 784.454 z"/>
<path transform="translate(0,0)" fill="rgb(228,228,249)" d="M 1430.87 794.457 C 1438.51 798.998 1433.33 806.233 1427.45 809.699 C 1426.85 809.295 1425.36 807.819 1424.77 807.268 C 1423.63 802.176 1423.27 801.691 1424.76 796.917 C 1427.18 794.279 1426.39 795.113 1430.87 794.457 z"/>
<path transform="translate(0,0)" fill="rgb(228,228,249)" d="M 1399.51 801.846 C 1411.06 805.042 1406.5 810.825 1401.58 818.445 C 1400.88 819.873 1401.4 819.083 1399.7 820.575 L 1398.74 819.525 C 1398.94 813.63 1399.2 807.736 1399.51 801.846 z"/>
<path transform="translate(0,0)" fill="rgb(1,1,73)" d="M 1828.02 1288.79 L 1851.29 1288.81 C 1861.97 1319.21 1872.47 1349.68 1882.78 1380.22 L 1863.81 1380.28 C 1862.05 1374.43 1859.5 1364.79 1856.67 1359.73 L 1854.25 1359.14 L 1821.91 1359.14 L 1815.18 1380.25 L 1796.44 1380.25 L 1828.02 1288.79 z"/>
<path transform="translate(0,0)" fill="rgb(252,251,254)" d="M 1838.99 1307.53 C 1842.08 1310.39 1850.21 1338.35 1851.97 1343.97 L 1841.71 1344 L 1826.92 1343.99 C 1830.79 1331.86 1834.58 1319.47 1838.99 1307.53 z"/>
<path transform="translate(0,0)" fill="rgb(1,1,73)" d="M 609.496 1021.22 C 614.53 1023.18 614.513 1030.42 616.154 1035.82 C 619.16 1045.75 622.958 1055.43 627.513 1064.75 C 623.489 1071.53 621.953 1073.95 619.465 1081.36 C 621.111 1090.25 622.807 1099.14 624.553 1108.02 C 623.692 1109.37 622.096 1111.82 621.834 1113.34 C 620.066 1123.56 613.846 1118.57 609.042 1124.73 C 607.183 1131.57 615.293 1136.34 617.238 1143 C 618.589 1147.62 615.248 1150.14 615.046 1152.78 C 614.603 1158.59 619.088 1163.34 615.445 1169.47 C 611.956 1171.26 612.855 1170.67 608.377 1170.46 C 599.371 1165.17 580.613 1145.92 575.668 1136.78 C 582.796 1131.77 585.951 1129.96 593.797 1126.45 C 592.646 1121.22 591.634 1115.55 591.738 1110.19 C 591.896 1102.01 590.207 1094.79 589.463 1086.72 C 595.694 1079.72 594.706 1068.39 598.21 1059.96 C 603.975 1046.08 606.956 1035.91 609.496 1021.22 z"/>
<path transform="translate(0,0)" fill="rgb(1,1,73)" d="M 1722.18 1288.8 L 1740.27 1288.83 L 1740.29 1328.53 C 1751.08 1316.06 1762.31 1301.68 1772.83 1288.81 L 1792.58 1288.86 C 1781.36 1303.2 1769.26 1317.76 1757.79 1331.97 L 1782.02 1362.5 L 1796.05 1380.2 L 1774.46 1380.26 L 1740.32 1338.47 L 1740.24 1380.24 L 1722.15 1380.27 L 1722.18 1288.8 z"/>
<path transform="translate(0,0)" fill="rgb(1,1,73)" d="M 898.148 934.918 C 911.402 933.865 910.397 951.106 910.427 960.37 C 910.482 977.041 907.463 993.877 905.031 1010.35 L 898.72 1016.54 C 898.706 1022.49 898.134 1025.57 901.739 1030.39 C 903.395 1032.61 898.184 1038.26 899.379 1042.58 C 901.171 1049.05 900.588 1052 899.209 1058.33 C 892.511 1057.25 885.533 1056.37 878.793 1055.43 C 888.466 1062.4 890.859 1064.4 899.179 1073.02 C 890.928 1088.83 883.926 1103.71 873.054 1117.87 L 868.418 1126.43 C 870.892 1105.19 867.152 1082.97 878.812 1062.92 C 878.425 1059.28 878.211 1058.29 878.707 1054.56 C 879.897 1052.94 881.07 1051.31 882.225 1049.67 C 891.682 1036.17 886.04 996.626 883.085 979.793 C 880.931 982.041 882.176 981.285 879.237 982.192 L 877.938 980.547 C 878.411 976.783 878.176 978.029 881.275 974.696 C 879.359 973.875 880.128 974.154 878.177 973.513 L 876.823 973.078 C 876.043 969.293 882.394 953.771 884.129 949.3 C 890.725 945.574 892.567 944.722 894.405 936.69 L 898.148 934.918 z"/>
<path transform="translate(0,0)" fill="rgb(1,1,73)" d="M 340.488 1068.63 C 342.596 1064.86 343.577 1062.11 347.154 1059.97 C 355.762 1058.95 353.266 1069.9 352.595 1075.05 C 350.677 1077 349.426 1078.78 347.802 1080.95 C 351.499 1084.22 350.946 1082.77 351.648 1086.82 L 350.912 1088.59 C 349.133 1092.95 348.431 1093.51 349.582 1097.95 C 351.681 1099.33 352.376 1099.69 354.662 1100.75 L 354.999 1102.43 C 352.829 1104.08 351.847 1104.25 349.299 1105.2 C 343.138 1114.96 356.737 1127.06 353.596 1136.54 C 351.54 1137.65 349.504 1138.8 347.49 1139.98 L 347.479 1141.76 C 350.862 1144.35 350.953 1143.6 352.299 1146.98 C 350.396 1155.17 344.525 1151.45 340.404 1164.07 C 342.356 1170.03 343.57 1171.32 347.512 1175.98 C 345.661 1180.3 342.129 1179.14 341.777 1182.91 C 341.232 1188.74 344.963 1198.13 339.611 1201.79 C 337.356 1200.35 338.281 1201.32 337.376 1198.31 L 335.996 1199.06 C 328.97 1202.82 329.337 1201.84 321.641 1202.14 L 320.03 1202.2 C 319.867 1175.05 320.152 1147.9 320.886 1120.76 C 321.296 1109.13 325.149 1096.66 322.536 1086.31 C 321.917 1083.86 322.287 1082.92 322.948 1080.51 L 324.476 1079.05 C 327.515 1080.34 329.845 1085.34 331.796 1088.48 C 335.49 1089.98 336.572 1091.28 339.465 1090.34 L 339.684 1088.1 C 336.171 1079.69 335.855 1076.47 340.488 1068.63 z"/>
<path transform="translate(0,0)" fill="rgb(5,5,54)" d="M 340.488 1068.63 C 342.596 1064.86 343.577 1062.11 347.154 1059.97 C 355.762 1058.95 353.266 1069.9 352.595 1075.05 C 350.677 1077 349.426 1078.78 347.802 1080.95 L 345.335 1075.68 L 345.39 1074 C 341.329 1073.43 341.735 1072.04 340.488 1068.63 z"/>
<path transform="translate(0,0)" fill="rgb(5,5,54)" d="M 340.488 1068.63 C 341.735 1072.04 341.329 1073.43 345.39 1074 L 345.335 1075.68 L 344.888 1076.9 L 344.011 1077.08 C 339.034 1085.18 341.113 1080.32 339.684 1088.1 C 336.171 1079.69 335.855 1076.47 340.488 1068.63 z"/>
<path transform="translate(0,0)" fill="rgb(1,1,73)" d="M 1494.63 1288.79 L 1513.2 1288.83 L 1507.96 1304.59 L 1482.39 1380.26 L 1460.61 1380.27 L 1429.67 1288.82 L 1448.86 1288.81 C 1456.32 1312.26 1463.99 1335.65 1471.88 1358.96 C 1479.62 1335.62 1487.2 1312.23 1494.63 1288.79 z"/>
<path transform="translate(0,0)" fill="rgb(1,1,73)" d="M 643.011 1085.58 C 649.596 1088.62 670.022 1107.32 672.295 1114.61 C 675.918 1126.23 665.194 1140.5 659.909 1150.83 C 648.208 1173.7 664.011 1177.82 671.464 1198.52 L 671.553 1199.16 L 670.574 1200.04 C 658.017 1198.21 645.62 1192.78 633.812 1188.09 C 634.628 1171.91 629.649 1160.19 630.84 1142.88 C 631.495 1128.38 640.394 1112.21 639.788 1098.26 C 639.484 1091.26 636.018 1093.14 643.011 1085.58 z"/>
<path transform="translate(0,0)" fill="rgb(1,1,73)" d="M 796.544 880.198 C 798.547 874.763 800.488 869.2 802.7 863.851 C 806.33 855.076 806.45 853.228 815.559 850.445 L 816.427 849.397 C 811.807 845.054 810.215 839.101 809.43 832.629 L 811.415 830.345 L 812.273 830.667 C 812.409 833.832 812.016 835.03 813.441 837.562 C 816.1 835.815 818.623 823.088 830.25 815.732 C 834.716 820.224 848.09 832.357 848.996 837.807 C 843.126 853.989 837.606 869.686 832.02 885.935 C 827.355 899.504 819.025 911.474 816.163 927.204 C 811.263 921.381 800.769 907.429 797.004 900.829 L 800.093 899.482 C 801.759 897.802 803.848 896.441 803.942 894.564 C 804.15 890.427 798.986 883.844 796.544 880.198 z"/>
<path transform="translate(0,0)" fill="rgb(1,1,73)" d="M 1689.4 886.692 C 1692 889.322 1691.34 936.125 1693.31 944.204 C 1693.82 946.282 1693.14 947.315 1691.8 948.672 C 1688.44 947.631 1688.59 947.437 1685.2 948.069 C 1682.58 950.188 1682.39 952.484 1681.45 955.793 L 1681.05 957.267 C 1678.7 954.286 1677.87 953.164 1675.08 950.661 L 1673.78 950.928 C 1671.9 958.965 1673.22 958.415 1667.81 965.521 C 1659.13 961.174 1658.76 955.593 1650.62 960.828 L 1650.84 962.091 L 1658.09 963.973 L 1658.78 965.169 C 1657.13 967.496 1656.07 967.822 1653.6 969.067 C 1640.96 973.936 1637.61 975.093 1624.06 977.71 L 1624.05 948.598 C 1645.23 934.004 1669.77 915.865 1684.08 894.199 C 1686.35 890.762 1686.16 890.046 1689.4 886.692 z"/>
<path transform="translate(0,0)" fill="rgb(228,228,249)" d="M 1646.05 940.832 C 1649.63 943.786 1653.91 947.994 1657.39 951.218 C 1654.59 953.988 1651.62 956.367 1648.6 958.889 L 1647.73 959.46 L 1646.56 958.962 L 1647.59 954.885 C 1646.37 952.662 1645.34 952.786 1642.56 951.386 C 1641.8 948.494 1644.53 944.25 1646.05 940.832 z"/>
<path transform="translate(0,0)" fill="rgb(1,1,73)" d="M 1496.14 1170.34 L 1498 1169.07 C 1502.75 1170 1503.46 1176.11 1502.67 1180.12 C 1502.11 1183.44 1501.53 1183.71 1498.04 1184.92 C 1497.74 1186.82 1492.96 1197.29 1491.8 1200.06 C 1464.1 1210.18 1425.36 1206.81 1399.84 1191.76 C 1393.64 1188.11 1383.77 1185.98 1382.9 1178.51 C 1384.82 1174.57 1383.43 1175.95 1386.83 1173.85 C 1393.75 1173.13 1402.53 1177.12 1408.05 1181.1 C 1409.36 1185.15 1409.33 1185.55 1412.15 1188.57 L 1413.84 1188.61 L 1418.35 1183.27 C 1421.13 1183.29 1421.54 1184.42 1424.33 1186.5 L 1425.94 1185.65 C 1430.52 1173.79 1430.13 1180.83 1438.18 1177.98 C 1451.8 1173.14 1441.47 1175.67 1451.15 1177.39 C 1454.67 1175.8 1455.24 1175.23 1458.33 1172.79 C 1476.7 1186.63 1476.84 1165.61 1493.69 1171.41 L 1496.14 1170.34 z"/>
<path transform="translate(0,0)" fill="rgb(228,228,249)" d="M 1496.14 1170.34 L 1498 1169.07 C 1502.75 1170 1503.46 1176.11 1502.67 1180.12 C 1502.11 1183.44 1501.53 1183.71 1498.04 1184.92 C 1497.14 1180.81 1494.99 1175.8 1493.69 1171.41 L 1496.14 1170.34 z"/>
<path transform="translate(0,0)" fill="rgb(3,2,9)" d="M 1496.14 1170.34 L 1498 1169.07 C 1502.75 1170 1503.46 1176.11 1502.67 1180.12 C 1497.96 1176.99 1497.67 1175.5 1496.14 1170.34 z"/>
<path transform="translate(0,0)" fill="rgb(1,1,73)" d="M 828.612 1168.56 C 829.834 1153.43 835.479 1134.23 838.776 1118.61 L 842.78 1116.1 C 844.056 1112.33 841.61 1106.59 841.593 1102.48 C 841.524 1086.02 845.662 1070.66 850.37 1055.11 C 853.644 1044.29 853.826 1032.87 858.712 1022.33 C 861.93 1015.4 865.136 1014.66 869.232 1009.52 C 868.081 1006.54 868.16 1007.36 867.853 1004.3 C 870.465 1003.08 869.102 1003.34 872.085 1004.06 C 877.087 1009.64 876.231 1031.13 872.713 1037.12 C 866.462 1047.77 864.199 1059.77 860.193 1071.5 L 862.077 1075.05 C 861.769 1085.44 861.624 1097.8 855.174 1106.06 C 854.637 1112.8 854.375 1112.04 851.959 1117.97 L 853.682 1119.66 C 854.616 1133.59 845.701 1129.38 855.773 1143.39 C 848.055 1151.58 837.947 1162.86 828.612 1168.56 z"/>
<path transform="translate(0,0)" fill="rgb(25,26,81)" d="M 851.959 1117.97 C 849.543 1117.22 849.564 1116.74 847.467 1114.84 C 845.177 1108.6 850.335 1107.35 855.174 1106.06 C 854.637 1112.8 854.375 1112.04 851.959 1117.97 z"/>
<path transform="translate(0,0)" fill="rgb(1,1,73)" d="M 692.243 1118.68 C 701.723 1121.14 713.559 1122.31 723.429 1123.58 C 719.444 1135.56 719.739 1136.31 709.202 1143.53 C 706.197 1145.59 705.913 1145.96 705.581 1148.65 C 707.926 1152.79 710.974 1154.96 714.578 1158.12 L 711.743 1175.95 C 717.973 1186.06 715.868 1190.22 720.989 1199.94 C 722.239 1202.31 725.042 1201.94 727.952 1202.27 L 728.8 1203.51 L 728.297 1205.23 L 725.361 1206.76 C 710.538 1207.41 698.054 1205.48 683.573 1202.08 C 687.59 1199.22 691.984 1196.25 690.596 1190.75 C 688.417 1182.1 687.877 1181.69 691.533 1174.04 C 689.121 1169.91 690.142 1171.27 685.379 1168.76 C 682.031 1163.22 684.518 1157.41 685.109 1151.57 C 685.315 1149.54 683.302 1152.29 682.578 1147.19 C 688.105 1132.32 695.431 1141.38 692.243 1118.68 z"/>
<path transform="translate(0,0)" fill="rgb(1,1,73)" d="M 763.288 840.137 C 766.58 836.984 771.105 824.303 771.793 820.036 C 770.339 818.489 769.787 817.998 768.129 816.666 C 772.229 804.321 780.739 805.372 778.015 791.01 L 778.969 789.782 C 790.4 795.999 781.419 796.34 799.218 794.607 C 800.122 807.595 804.573 818.343 801.53 829.367 C 796.47 827.912 797.459 827.135 794.172 828.865 C 790.729 835.843 788.592 842.624 785.542 849.643 C 781.248 859.524 776.68 868.417 773.043 878.62 C 768.762 877.11 752.473 872.038 750.07 869.464 L 749.893 867.905 L 750.817 863.848 C 752.848 858.283 755.075 852.666 756.518 846.939 C 757.718 843.866 758.459 840.571 761.012 838.821 L 763.288 840.137 z"/>
<path transform="translate(0,0)" fill="rgb(228,228,249)" d="M 756.518 846.939 C 757.718 843.866 758.459 840.571 761.012 838.821 L 763.288 840.137 C 764.102 845.514 764.338 844.852 762.689 850.105 L 760.878 851.149 C 758.429 850.264 758.061 849.129 756.518 846.939 z"/>
<path transform="translate(0,0)" fill="rgb(228,228,249)" d="M 750.817 863.848 C 753.783 863.114 754.176 862.403 756.181 860.274 L 757.576 860.729 C 758.019 864.765 758.297 862.827 756.374 866.694 C 753.162 868.676 754.301 868.088 749.893 867.905 L 750.817 863.848 z"/>
<path transform="translate(0,0)" fill="rgb(1,1,73)" d="M 1349.42 852.752 L 1350 852.779 C 1350.96 856.682 1351.64 862.291 1353.85 865.615 C 1356.96 870.302 1392.27 853.534 1405.4 856.713 C 1408.51 859.705 1410.24 864.577 1412.1 868.649 C 1346.3 873.845 1361.21 915.318 1332.69 924.934 C 1328.18 926.456 1322.11 927.806 1317.68 925.5 C 1317.53 924.798 1317.38 924.096 1317.23 923.394 C 1321.62 915.632 1328.39 903.382 1332.48 895.937 L 1330.92 890.914 C 1334.25 886.187 1341.45 888.079 1342.42 882.73 C 1338.69 877.287 1330.96 878.752 1330.72 871.501 C 1332.96 868.827 1332.74 868.961 1336.04 867.82 C 1340.48 868.978 1341.07 870.557 1343.65 874.785 L 1344.15 875.603 L 1345.18 874.503 C 1344.7 872.511 1344.41 871.111 1344.09 869.087 C 1348.77 863.367 1348.41 860.127 1349.42 852.752 z"/>
<path transform="translate(0,0)" fill="rgb(1,1,73)" d="M 688.214 803.635 C 689.164 799.394 693.127 788.399 692.979 786.392 L 689.022 785.32 C 687.813 782.944 687.899 784.158 688.682 781.685 C 695.246 778.811 715.064 776.852 722.376 776.599 C 720.376 777.912 712.255 782.995 711.649 784.481 C 704.902 801.022 710.633 806.88 695.066 818.66 C 696.168 823.671 696.807 822.997 695.467 827.2 C 686.272 835.341 690.971 833.687 688.346 843.661 C 683.206 863.184 665.874 877.583 650.105 888.878 C 648.605 881.148 651.167 887.817 650.62 882.547 C 654.663 880.507 658.592 879.028 660.109 874.94 C 658.933 872.474 658.714 872.583 656.546 870.815 C 657.387 864.864 658.83 858.305 660.597 852.543 C 662.375 846.745 670.731 835.172 669.312 829.291 C 665.935 827.089 665.066 827.408 663.997 824.402 L 665.325 822.447 C 671.744 821.379 671.01 823.628 675.974 821.405 L 675.462 819.989 C 674.058 816.027 673.234 814.655 673.567 810.489 C 675.921 806.793 682.211 806.33 688.214 803.635 z"/>
<path transform="translate(0,0)" fill="rgb(1,1,73)" d="M 1061.55 1106.69 C 1066 1107.91 1078.95 1117.95 1084.04 1120.81 C 1089.49 1123.86 1091.84 1124.78 1097.73 1127.04 C 1091.57 1145.71 1088.57 1148.79 1088.11 1168.97 C 1089.53 1171.09 1090.84 1173.27 1092.06 1175.5 C 1095.47 1181.89 1101.8 1202.29 1100.04 1208.35 L 1097.64 1208.78 C 1089.81 1206.98 1083.43 1205.6 1075.51 1204.39 C 1073.52 1198.19 1070.08 1175.55 1071.07 1168.88 C 1073.82 1167.09 1073.92 1166.96 1076.21 1164.57 C 1077.24 1160.7 1077.3 1162.52 1076.42 1158.91 C 1074.58 1159.79 1073.09 1160.42 1071.2 1161.18 C 1062.63 1157.14 1067.6 1133.94 1064.76 1124.83 C 1063.61 1121.14 1060.78 1109.55 1061.55 1106.69 z"/>
<path transform="translate(0,0)" fill="rgb(1,1,73)" d="M 949.762 905.291 C 945.498 875.13 954.263 849.71 965.173 822.561 C 967.201 817.516 965.44 813.618 967.95 808.411 C 970.474 803.175 976.965 802.404 979.414 797.902 C 979.838 797.122 980.898 793.268 981.72 792.188 C 982.992 790.533 984.833 789.408 986.887 789.032 C 991.934 788.154 1001.71 789.361 1002.73 795.644 C 1001.53 798.679 1000.09 799.063 997.423 800.601 C 993.572 807.341 989.708 818.348 983.763 822.611 C 976.858 827.562 983.455 826.243 984.795 834.528 L 983.642 835.997 C 980.388 835.853 978.811 835.478 975.868 836.887 C 971.868 843.087 974.778 848.857 974.571 853.998 C 974.175 863.848 962.276 893.331 956.61 899.55 L 953.175 894.589 C 953.214 898.533 953.208 902.15 953.061 906.091 L 952.149 906.935 C 950.923 906.258 950.554 906.275 949.762 905.291 z"/>
<path transform="translate(0,0)" fill="rgb(3,2,9)" d="M 949.762 905.291 C 949.85 901.093 949.772 899.719 950.723 895.704 L 953.175 894.589 C 953.214 898.533 953.208 902.15 953.061 906.091 L 952.149 906.935 C 950.923 906.258 950.554 906.275 949.762 905.291 z"/>
<path transform="translate(0,0)" fill="rgb(1,1,73)" d="M 489.91 789.467 C 495.855 789.548 503.02 789.478 508.836 789.852 C 504.07 800.885 497.061 816.363 490.993 826.645 L 491.782 830.67 C 484.995 835.861 479.733 824.516 479.479 838.558 C 474.479 844.969 462.474 859.535 455.214 862.251 L 453.287 860.119 C 451.032 849.709 443.483 854.433 445.72 844.619 C 448.616 842.548 446.928 843.297 451.5 843.585 C 452.171 838.938 451.967 829.85 454.02 827.076 C 457.012 827.784 455.883 827.411 458.492 829.541 C 459.558 822.067 455.363 822.043 461.692 817.061 C 465.682 813.92 467.871 813.707 469.532 809.533 C 468.689 805.121 466.287 800.236 466.976 796.204 L 468.63 794.265 C 470.857 794.752 472.671 796.884 472.631 796.885 C 479.009 796.673 485.944 794.336 489.91 789.467 z"/>
<path transform="translate(0,0)" fill="rgb(1,1,73)" d="M 740.725 780.248 C 747.271 781.054 752.803 782.152 759.26 783.436 C 758.12 784.418 757.004 785.428 755.913 786.464 C 741.355 800.094 739.746 815.632 734.861 833.48 C 731.06 847.366 730.116 842.459 729.603 858.081 C 725.436 858.385 722.337 858.841 718.207 859.514 C 722.525 862.502 723.341 861.983 724.972 865.98 L 724.184 867.359 L 720.913 867.421 C 713.673 866.173 704.649 864.864 697.481 866.671 C 695.973 867.052 696.876 867.056 695.007 866.373 C 695.526 864.9 695.306 865.037 696.267 863.926 C 704.283 854.66 706.953 838.425 716.925 831.046 C 719.186 829.373 719.663 829.757 720.53 827.019 C 719.204 824.319 716.787 819.441 718.622 816.753 C 726.672 804.958 733.359 792.386 740.725 780.248 z"/>
<path transform="translate(0,0)" fill="rgb(1,1,73)" d="M 1841.21 1064.9 C 1842.07 1053.48 1853.82 1036.56 1849.86 1025.49 C 1852.86 1017.54 1857.58 1014.47 1857.48 1007.17 C 1857.25 988.726 1856.54 953.029 1865.16 937.223 L 1866.47 936.772 C 1868.12 939.369 1870.95 958.816 1871.8 963.243 C 1874.39 970.594 1878.25 983.618 1878.38 991.272 L 1877.18 992.304 C 1873.71 991.741 1872.55 991.339 1869.09 992.605 C 1860.34 1000.18 1870.29 1008.82 1858.41 1017.99 C 1861.11 1024.01 1866.29 1032.74 1863.8 1038.34 C 1860.48 1045.79 1855.81 1052.73 1852.59 1060.14 C 1850.25 1065.55 1851.1 1070.88 1847.83 1076.29 L 1846.45 1076.28 C 1844.39 1071.69 1844.55 1068.32 1844.53 1063.27 C 1842.04 1063.55 1843.2 1063.16 1841.21 1064.9 z"/>
<path transform="translate(0,0)" fill="rgb(1,1,73)" d="M 1130.61 1135.67 C 1136.28 1139.07 1136.25 1140.94 1142.46 1138.1 L 1143.37 1139.44 C 1142.99 1140.69 1142.54 1142.2 1142.01 1143.98 C 1148.29 1159.39 1162.45 1183.28 1167.75 1197.93 C 1161.21 1200.12 1155.17 1202.11 1148.53 1203.97 C 1143.83 1195.84 1132.49 1171.05 1125.97 1166.23 L 1122.94 1165.93 C 1121.7 1165.45 1121.26 1165.01 1120.15 1164.24 C 1121.38 1160.53 1121.71 1155.32 1122.27 1151.2 C 1124.43 1145.71 1127.23 1140.5 1130.61 1135.67 z"/>
<path transform="translate(0,0)" fill="rgb(1,1,73)" d="M 213.777 789.674 C 226.759 789.639 240.158 789.775 253.102 789.529 C 251.023 799.707 246.959 811.515 238.229 817.885 C 236.168 819.389 230.05 823.437 229.313 825.471 C 225.052 837.229 225.731 839.93 217.776 850.368 L 219.941 851.814 L 214.028 852.402 C 213.829 831.493 213.745 810.584 213.777 789.674 z"/>
<path transform="translate(0,0)" fill="rgb(1,1,73)" d="M 1259.19 944.682 L 1260.05 945.106 C 1260.45 970.715 1259.7 996.653 1260.05 1022.46 C 1255.61 1017.94 1248.77 1008.98 1244.74 1003.94 C 1239.03 996.936 1230.52 985.221 1232.82 975.95 L 1233.48 975.786 L 1237.21 978.925 C 1240.66 976.875 1241.83 948.295 1259.19 944.682 z"/>
<path transform="translate(0,0)" fill="rgb(1,1,73)" d="M 1669.96 1163.27 C 1675.99 1158.74 1679.96 1155.34 1687.71 1154.59 C 1690.77 1155.82 1689.67 1154.81 1691.18 1157.66 C 1690.29 1167.36 1673.22 1174.14 1671.2 1179.49 L 1671.95 1180.23 C 1677.62 1178.07 1684.64 1179.26 1691.1 1178.87 L 1691.27 1195.33 L 1664.57 1195.01 C 1656.29 1195.17 1647.84 1195.47 1639.6 1194.92 L 1639.28 1193.69 L 1643.31 1188.4 C 1643.52 1181.71 1656.92 1172.42 1662.91 1170.52 C 1665.1 1168.54 1667.86 1165.46 1669.96 1163.27 z"/>
<path transform="translate(0,0)" fill="rgb(5,5,54)" d="M 1671.95 1180.23 C 1677.62 1178.07 1684.64 1179.26 1691.1 1178.87 L 1691.27 1195.33 L 1664.57 1195.01 L 1662.69 1193.46 L 1663.47 1190.18 C 1664.14 1187.89 1663.75 1188.59 1665.62 1186.86 C 1668.24 1187.39 1669.11 1187.61 1671.75 1187.69 C 1673.12 1184.52 1672.43 1184.25 1671.95 1180.23 z"/>
<path transform="translate(0,0)" fill="rgb(3,2,9)" d="M 1643.31 1188.4 L 1645.03 1188.92 C 1650.53 1191.07 1654.27 1190.55 1659.99 1189.08 L 1663.47 1190.18 L 1662.69 1193.46 L 1664.57 1195.01 C 1656.29 1195.17 1647.84 1195.47 1639.6 1194.92 L 1639.28 1193.69 L 1643.31 1188.4 z"/>
<path transform="translate(0,0)" fill="rgb(25,26,81)" d="M 1662.91 1170.52 C 1665.1 1168.54 1667.86 1165.46 1669.96 1163.27 C 1672.7 1164.47 1675.27 1165.61 1677.96 1166.92 C 1675.52 1169.18 1672.39 1168.13 1668.94 1167.8 L 1667.97 1168.71 L 1668.2 1171.34 C 1665.61 1171.74 1665.46 1171.41 1662.91 1170.52 z"/>
<path transform="translate(0,0)" fill="rgb(228,228,249)" d="M 1645.03 1188.92 C 1649.9 1186.17 1655.38 1185.28 1659.99 1189.08 C 1654.27 1190.55 1650.53 1191.07 1645.03 1188.92 z"/>
<path transform="translate(0,0)" fill="rgb(1,1,73)" d="M 1101.01 1159.26 C 1101.22 1158.93 1101.43 1158.59 1101.63 1158.26 C 1108.48 1146.41 1102.43 1130.35 1121.06 1126.59 L 1122.78 1127.76 C 1125.33 1134.24 1123.08 1144.06 1122.27 1151.2 C 1121.71 1155.32 1121.38 1160.53 1120.15 1164.24 C 1121.26 1165.01 1121.7 1165.45 1122.94 1165.93 L 1121.79 1168.17 C 1119.18 1167.61 1120.01 1167.47 1117.59 1167.93 L 1117.2 1170.55 C 1128.5 1181.24 1117.3 1194.07 1135.43 1208.43 L 1114.87 1207.6 C 1111.65 1190.3 1112.31 1173.19 1101.01 1159.26 z"/>
<path transform="translate(0,0)" fill="rgb(5,5,54)" d="M 1823.47 905.898 C 1809.06 879.699 1808.15 885.714 1812.87 853.869 C 1814.42 857.288 1816.57 861.394 1817.16 865.005 L 1821.04 864.927 C 1823.28 867.303 1822.93 867.55 1823.99 870.855 C 1827.09 875.484 1833.46 891.995 1836.15 897.807 L 1835.19 899.409 L 1833.16 899.739 C 1833.21 904.297 1836.16 904.076 1836.51 905.653 C 1839.45 918.932 1837.74 932.149 1843.74 944.705 C 1844.54 946.388 1842.81 948.403 1841.81 949.722 C 1838.46 950.135 1840.08 950.435 1836.95 948.239 C 1834.94 944.331 1829.31 927.757 1827.36 922.709 C 1826.95 921.641 1828.12 917.39 1828.54 915.981 C 1826.6 910.85 1824.41 914.704 1823.15 908.107 L 1823.47 905.898 z"/>
<path transform="translate(0,0)" fill="rgb(228,228,249)" d="M 1817.16 865.005 L 1821.04 864.927 C 1823.28 867.303 1822.93 867.55 1823.99 870.855 L 1821.92 872.812 L 1819.93 872.587 C 1817.68 869.743 1817.76 868.552 1817.16 865.005 z"/>
<path transform="translate(0,0)" fill="rgb(228,228,249)" d="M 1823.47 905.898 C 1825.37 903.595 1827.56 900.356 1829.34 897.885 C 1829.5 903.126 1830.45 903.453 1828.03 906.675 L 1823.15 908.107 L 1823.47 905.898 z"/>
<path transform="translate(0,0)" fill="rgb(5,5,54)" d="M 402.954 965.359 C 409.047 970.335 407.652 992.543 407.122 1000.28 C 406.104 1015.12 409.822 1041.46 401.615 1054.42 L 399.538 1053.54 C 396.028 1051.98 393.453 1052.3 391.229 1049.77 C 390.102 1035.28 397.582 977.862 402.954 965.359 z"/>
<path transform="translate(0,0)" fill="rgb(1,1,73)" d="M 1835.75 1161.09 C 1844.14 1155.8 1856.73 1110.84 1869.92 1112.67 L 1871.05 1115.53 C 1870.17 1118.83 1871.13 1118.15 1871.39 1120.56 C 1872.91 1134.81 1859.24 1155.74 1852.53 1167.55 L 1849.64 1165.88 C 1847.2 1167.01 1847.81 1167.28 1846.47 1170.96 C 1845.57 1173.47 1844.71 1176 1843.91 1178.55 L 1842.78 1178.5 C 1841.91 1173.3 1842.82 1173.58 1842.61 1169.89 C 1841.8 1166.67 1838.13 1163.44 1835.75 1161.09 z"/>
<path transform="translate(0,0)" fill="rgb(5,5,54)" d="M 1844.49 791.43 C 1846.74 792.469 1845.92 792.328 1847.69 795.119 C 1850.75 794.707 1856.82 794.531 1858.4 797.553 C 1873.63 826.691 1881.65 877.753 1880.94 909.526 L 1880.52 910.28 C 1877.61 901.383 1876.1 891.28 1873.99 882.085 C 1868.18 856.703 1864.16 833.831 1853.43 809.871 C 1844.95 804.889 1840.01 801.322 1844.49 791.43 z"/>
<path transform="translate(0,0)" fill="rgb(1,1,73)" d="M 1637.96 887.939 C 1641.58 887.839 1650.79 888.89 1654.84 889.26 C 1660.99 914.789 1659.37 907.479 1639.59 916.706 C 1633.64 917.609 1630.78 921.417 1624.06 923.58 L 1622.82 922.332 C 1623 914.729 1621.89 905.308 1623.39 898.089 C 1623.81 896.053 1635.17 889.807 1637.96 887.939 z"/>
<path transform="translate(0,0)" fill="rgb(1,1,73)" d="M 1813.26 815.809 C 1810.44 809.126 1806.38 800.144 1808.95 792.853 L 1810.64 792.125 C 1817.39 794.349 1821.89 802.671 1826.08 808.671 C 1834.97 819.949 1837.2 822.715 1842.49 835.702 C 1841.27 836.492 1840.26 837.227 1838.96 837.848 L 1838.81 839.589 L 1838 839.942 L 1839.36 837.728 L 1836.88 840.461 C 1839.95 841.587 1840.1 838.297 1844.68 839.884 C 1836.75 843.725 1838.28 846.895 1832.9 850.733 C 1830.44 841.099 1818.45 828.904 1818.14 817.582 C 1814.38 817.587 1815.93 818.222 1813.26 815.809 z"/>
<path transform="translate(0,0)" fill="rgb(5,5,54)" d="M 1813.26 815.809 C 1810.44 809.126 1806.38 800.144 1808.95 792.853 L 1810.64 792.125 C 1817.39 794.349 1821.89 802.671 1826.08 808.671 C 1817.68 811.995 1820.2 814.69 1813.26 815.809 z"/>
<path transform="translate(0,0)" fill="rgb(1,1,73)" d="M 1800.74 1004.79 C 1801.7 1004.03 1801.07 1004.34 1802.81 1004.32 C 1804.86 1008.46 1801.45 1025.77 1800.68 1031.75 C 1790.61 1032.62 1779.07 1030.11 1767.75 1030.27 C 1766.34 1030.37 1765.57 1030.1 1764.14 1029.86 L 1764.04 1028.41 C 1771.1 1021.24 1785.33 1004.16 1793.74 1005.64 C 1795.06 1005.87 1797.48 1005.48 1798.95 1005.18 L 1800.74 1004.79 z"/>
<path transform="translate(0,0)" fill="rgb(5,5,54)" d="M 1844.68 839.884 C 1845.79 844.042 1846.27 843.193 1844.97 846.379 L 1841.9 848.553 L 1841.81 850.039 L 1846.58 850.543 C 1853.58 860.927 1852.43 887.392 1858.3 898.912 L 1854.54 901.508 C 1852.86 898.366 1846.42 888.94 1846.16 888.27 C 1844.33 883.496 1842.53 871.057 1840.33 865.323 C 1836.98 856.606 1832.99 860.855 1832.9 850.733 C 1838.28 846.895 1836.75 843.725 1844.68 839.884 z"/>
<path transform="translate(0,0)" fill="rgb(5,5,54)" d="M 1821.95 1099.05 C 1823.68 1103.94 1824.99 1109.77 1826.7 1114.97 L 1829.61 1118.91 C 1829.18 1122.34 1828.82 1132.05 1827.14 1133.67 L 1823.43 1129.21 L 1822.28 1130.01 C 1820.82 1134.78 1818.63 1141.72 1819.1 1146.53 C 1819.63 1151.84 1819.4 1151.84 1815.47 1155.5 L 1814.39 1154.9 C 1812.09 1143.21 1812.09 1122.99 1813.37 1110.93 C 1813.62 1108.6 1820.04 1101.26 1821.95 1099.05 z"/>
<path transform="translate(0,0)" fill="rgb(1,1,73)" d="M 1825.44 1027.35 C 1825.83 1018.77 1820.89 1024.47 1827.49 1014.2 C 1829.38 1011.27 1830.82 1008.68 1830.11 1005.01 L 1827.21 1002.5 C 1827.52 996.964 1830.88 998.751 1832.21 994.395 C 1833.29 990.849 1829.8 984.788 1831.97 982.272 C 1834.01 981.998 1837.48 980.832 1838.95 982.483 C 1844.58 988.794 1839.82 994.479 1837.4 1001.26 C 1839.28 1004.9 1842.83 1010.43 1842.47 1014.11 C 1829.85 1020.5 1840.23 1022.45 1835.81 1031.51 C 1834.04 1032.36 1832.77 1032.96 1830.94 1033.65 C 1827.76 1031.99 1827.26 1030.45 1825.44 1027.35 z"/>
<path transform="translate(0,0)" fill="rgb(1,1,73)" d="M 505.54 842.672 C 506.26 845.199 505.88 848.864 507.135 851.397 C 509.489 856.152 506.358 861.976 508.2 866.594 C 513.576 880.076 498.132 874.361 491.565 872.777 L 488.36 875.702 C 487.242 875.793 487.993 875.829 486.268 874.86 C 485.866 870.5 488.576 869.814 489.691 866.63 C 490.832 863.37 487.132 859.844 487.173 855.125 C 489.838 852.109 495.232 848.405 499.063 847.499 L 500.683 849.721 C 502.303 847.237 503.806 845.076 505.54 842.672 z"/>
<path transform="translate(0,0)" fill="rgb(25,26,81)" d="M 1747.63 987.103 C 1752.13 984.186 1750.38 984.4 1754.91 984.821 C 1753.65 981.654 1753.55 983.106 1754.24 980.314 C 1758.73 976.053 1762.33 973.538 1768.44 973.751 C 1774.26 973.954 1780.61 972.122 1785.69 976.347 C 1786.97 980.307 1785.58 983.619 1781.34 984.412 L 1778.65 981.598 C 1777.54 983.89 1777.76 984.433 1777.62 987.036 L 1776.1 988.217 C 1773.03 987.81 1773.48 987.595 1770.65 985.632 C 1769.02 987.99 1764.18 994.172 1763.19 996.159 C 1757.18 995.194 1752.64 990.839 1747.63 987.103 z"/>
<path transform="translate(0,0)" fill="rgb(5,5,54)" d="M 1349.42 852.752 L 1347.2 850.642 C 1343.02 851.949 1339.14 856.237 1334.84 855.044 C 1334.27 853.403 1333.67 853.123 1334.7 851.555 C 1338.83 845.254 1353.16 826.581 1359.88 824.583 C 1361.05 827.514 1360.16 833.806 1361.92 840.065 C 1359.1 846.794 1358.47 847.875 1351.7 850.247 L 1350 852.779 L 1349.42 852.752 z"/>
<path transform="translate(0,0)" fill="rgb(5,5,54)" d="M 1813.67 950.834 L 1816.46 953.269 C 1813.77 959.299 1815.58 962.189 1814.55 967.459 C 1813.31 973.831 1809 993.432 1804.07 996.994 L 1802.55 995.661 C 1802.35 994.978 1797.8 980.143 1797.72 980.268 C 1801.15 974.837 1804.46 968.224 1807.77 962.977 C 1811.14 957.619 1809.59 954.887 1813.67 950.834 z"/>
<path transform="translate(0,0)" fill="rgb(5,5,54)" d="M 1835.75 1161.09 C 1838.13 1163.44 1841.8 1166.67 1842.61 1169.89 C 1835.73 1177.12 1836.41 1182.49 1830.24 1190.16 C 1823.6 1192.95 1822.41 1193.76 1817.35 1198.9 C 1817.07 1195.17 1816.13 1190.4 1815.49 1186.63 C 1827.08 1173.56 1825.93 1178.94 1835.75 1161.09 z"/>
<path transform="translate(0,0)" fill="rgb(5,5,54)" d="M 1826.7 1114.97 C 1827.39 1109.99 1826.2 1105.26 1826.68 1100.54 C 1827.74 1090.24 1836.11 1074.36 1841.21 1064.9 C 1839.18 1079.31 1841.37 1092.8 1835.41 1107.46 C 1833.73 1105.77 1833.57 1105.24 1832.37 1103.13 L 1831.04 1103.48 C 1828.88 1109.23 1830.86 1113 1829.61 1118.91 L 1826.7 1114.97 z"/>
<path transform="translate(0,0)" fill="rgb(1,1,73)" d="M 1535.72 872.885 C 1536.26 873.723 1536.4 873.722 1536.56 874.984 C 1537.23 880.109 1542.12 882.223 1546.48 884.803 C 1546.2 886.854 1546.68 886.513 1545.2 887.602 C 1542.79 889.381 1539.79 890.163 1536.82 889.786 C 1536.28 889.7 1535.73 889.613 1535.19 889.526 C 1533.31 890.647 1532.84 890.998 1531.27 892.433 L 1529.9 893.69 L 1526.95 892.886 C 1523.21 890.499 1518.52 887.804 1516.86 883.728 L 1522.43 885.427 L 1523.79 884.458 C 1525 878.039 1523.16 884.245 1522.46 878.902 C 1526.76 875.667 1530.57 876.138 1535.72 872.885 z"/>
<path transform="translate(0,0)" fill="rgb(5,5,54)" d="M 455.214 862.251 C 459.322 864.975 461.072 866.027 461.298 871.331 C 456.643 877.755 439.135 876.644 433.006 872.16 C 431.479 868.755 431.848 870.541 432.244 866.544 C 436.444 865.478 433.06 869.748 438.001 871.4 C 442.778 868.122 439.911 866.834 443.89 863.587 L 446.276 865.359 C 449.947 864.86 449.947 863.566 453.287 860.119 L 455.214 862.251 z"/>
<path transform="translate(0,0)" fill="rgb(5,5,54)" d="M 1324.8 869.48 C 1325.3 869.747 1326.11 870.597 1326.58 871.037 C 1326.75 879.054 1327.26 879.716 1322.63 885.092 C 1325 886.385 1324.23 885.418 1325.37 887.659 C 1319.51 894.696 1317.64 899.604 1311.75 905.68 C 1309.98 906.39 1310.94 906.221 1308.84 906.046 C 1306.45 899.923 1319.98 874.47 1324.8 869.48 z"/>
<path transform="translate(0,0)" fill="rgb(25,26,81)" d="M 1830.94 1033.65 C 1828.47 1041.46 1818 1049.81 1818.08 1058.26 C 1818.12 1061.96 1818.72 1062.06 1815.66 1063.75 L 1813.69 1062.79 C 1808.73 1054.23 1817.28 1047.93 1819.5 1040.65 C 1820.83 1036.31 1817.43 1029.1 1822.76 1025.5 L 1825.44 1027.35 C 1827.26 1030.45 1827.76 1031.99 1830.94 1033.65 z"/>
<path transform="translate(0,0)" fill="rgb(5,5,54)" d="M 219.941 851.814 L 223.349 852.764 C 224.798 855.868 224.325 854.971 223.785 858.958 C 224.963 865.056 225.655 866.923 223.636 872.823 C 220.006 874.546 218.297 875.509 214.884 873.454 C 212.27 868.164 213.673 858.66 214.028 852.402 L 219.941 851.814 z"/>
<path transform="translate(0,0)" fill="rgb(5,5,54)" d="M 1878.79 1176.23 C 1883.76 1178.53 1888.59 1187.52 1885.64 1193.14 C 1882.87 1195.44 1881.82 1195.17 1878.23 1195.37 L 1863.61 1195.53 C 1872.03 1187.81 1873.33 1186.13 1878.79 1176.23 z"/>
<path transform="translate(0,0)" fill="rgb(5,5,54)" d="M 947.29 789.091 L 963.053 789.256 C 959.232 795.995 956.239 800.877 951.9 807.288 C 950.536 811.443 949.11 815.578 947.622 819.691 C 946.93 808.846 947.071 799.877 947.29 789.091 z"/>
<path transform="translate(0,0)" fill="rgb(25,26,81)" d="M 1876.03 1074.82 C 1876.44 1070.3 1877.01 1055.72 1880.13 1053.06 C 1881.72 1058.57 1880.33 1068.48 1879.78 1074.47 C 1879.64 1082.11 1880.22 1092.5 1876.58 1098.98 L 1874.53 1098.51 C 1871.81 1090.81 1874.29 1082.39 1876.03 1074.82 z"/>
<path transform="translate(0,0)" fill="rgb(5,5,54)" d="M 1876.03 1074.82 C 1876.44 1070.3 1877.01 1055.72 1880.13 1053.06 C 1881.72 1058.57 1880.33 1068.48 1879.78 1074.47 C 1877.67 1076.65 1877.75 1078.16 1877.2 1081.2 L 1877 1082.38 L 1877.07 1079.99 L 1876.18 1079.4 L 1876.03 1074.82 z"/>
<path transform="translate(0,0)" fill="rgb(5,5,54)" d="M 1816.26 932.602 C 1814.73 929.122 1814.27 929.727 1815.27 927.117 C 1821.59 926.574 1823.61 931.066 1821.84 936.765 L 1819.03 937.591 C 1816.05 944.439 1824.97 946.621 1816.46 953.269 L 1813.67 950.834 C 1810.59 943.804 1811.82 938.701 1816.26 932.602 z"/>
<path transform="translate(0,0)" fill="rgb(3,2,9)" d="M 1816.26 932.602 C 1814.73 929.122 1814.27 929.727 1815.27 927.117 C 1821.59 926.574 1823.61 931.066 1821.84 936.765 C 1819.94 935.756 1817.99 933.991 1816.26 932.602 z"/>
<path transform="translate(0,0)" fill="rgb(3,2,9)" d="M 976.033 1125.95 L 980.036 1125.06 C 984.009 1126.28 986.968 1132.9 987.132 1136.98 C 985.555 1140.66 986.807 1139.33 983.295 1141.14 C 974.352 1140.02 973.866 1133.21 976.033 1125.95 z"/>
<path transform="translate(0,0)" fill="rgb(175,179,218)" d="M 976.033 1125.95 L 980.036 1125.06 C 980.356 1129.29 982.137 1131.38 982.108 1134.85 C 979.373 1132.38 977.862 1129.17 976.033 1125.95 z"/>
<path transform="translate(0,0)" fill="rgb(5,5,54)" d="M 1772.41 949.876 C 1778.51 949.662 1793.71 948.422 1798.21 951.305 L 1798.19 953.289 L 1795.24 955.779 C 1787.06 957.156 1784.94 956.867 1777.15 953.878 L 1776.15 953.487 C 1774.65 953.889 1774.89 953.668 1773.16 953.334 L 1772.41 949.876 z"/>
<path transform="translate(0,0)" fill="rgb(66,66,106)" d="M 1214.93 971.706 C 1218.16 972.699 1216.51 972.742 1219.99 970.902 C 1223.1 974.123 1223.62 974.329 1224.57 978.502 C 1223.77 982.266 1224.67 980.739 1221.85 983.282 C 1218.14 984.278 1218.29 984.162 1214.74 983.383 C 1212.59 981.658 1212.77 981.752 1211.98 979.078 C 1212.54 975.72 1212.45 974.028 1214.93 971.706 z"/>
<path transform="translate(0,0)" fill="rgb(5,5,54)" d="M 1303.53 925.185 C 1305.59 925.615 1306.3 925.936 1308.29 926.644 C 1311.25 932.151 1305.61 937.451 1304.08 944.755 L 1303.08 946.398 L 1301.59 946.094 C 1298.34 939.704 1301.12 931.404 1303.53 925.185 z"/>
<path transform="translate(0,0)" fill="rgb(5,5,54)" d="M 1868.35 796.016 L 1880.88 796.56 L 1880.95 811.414 C 1875.64 806.671 1869.89 802.782 1868.35 796.016 z"/>
<path transform="translate(0,0)" fill="rgb(3,2,9)" d="M 587.891 834.448 C 593.214 829.117 597.183 825.645 603 820.817 C 599.857 826.601 595.43 834.592 593.609 841.435 C 593.095 841.631 592.581 841.827 592.067 842.023 L 593.799 840.929 L 592.215 843.683 C 591.351 840.324 591.432 840.562 592.565 837.251 L 591.785 835.762 L 587.891 834.448 z"/>
<path transform="translate(0,0)" fill="rgb(3,2,9)" d="M 1555.87 894.735 C 1556.02 895.437 1556.04 897.648 1556.07 898.46 C 1554.05 902.723 1549.84 907.588 1546.5 910.966 C 1545 908.931 1544.72 908.985 1544.51 906.535 C 1546.6 902.482 1552.19 898.165 1555.87 894.735 z"/>
<path transform="translate(0,0)" fill="rgb(3,2,9)" d="M 1869.92 1112.67 C 1869.53 1108.24 1869.59 1108.47 1871.62 1104.44 L 1873.29 1103.26 C 1877.38 1106.13 1876.9 1110.98 1874.62 1114.91 C 1872.29 1116.1 1873.49 1115.94 1871.05 1115.53 L 1869.92 1112.67 z"/>
<path transform="translate(0,0)" fill="rgb(3,2,9)" d="M 1237.33 1100.66 C 1240.45 1101.81 1242.14 1102.38 1245.47 1102.92 C 1247.03 1105.77 1246.27 1105.53 1245.21 1109.82 C 1239.62 1112.38 1237.25 1105.02 1237.33 1100.66 z"/>
<path transform="translate(0,0)" fill="rgb(3,2,9)" d="M 1854.54 901.508 L 1858.3 898.912 C 1861.35 906.436 1861.86 911.054 1862.86 919.138 C 1858.74 912.752 1857.12 908.715 1854.54 901.508 z"/>
<path transform="translate(0,0)" fill="rgb(3,2,9)" d="M 1500.61 796.364 C 1505.36 797.846 1508.17 801.907 1507.46 806.843 C 1503.49 805.62 1503.06 805.654 1500.03 802.988 C 1498.82 798.79 1498.85 800.93 1500.61 796.364 z"/>
<path transform="translate(0,0)" fill="rgb(3,2,9)" d="M 650.105 888.878 C 646.406 892.495 644.695 894.475 640.215 897.178 C 639.868 898.35 649.404 881.167 648.887 881.887 L 650.62 882.547 C 651.167 887.817 648.605 881.148 650.105 888.878 z"/>
<path transform="translate(0,0)" fill="rgb(3,2,9)" d="M 1191.61 1165.72 C 1197.39 1167.87 1199.07 1173.2 1199.02 1178.84 L 1196.65 1178.38 C 1193.45 1174.63 1192.58 1170.48 1191.61 1165.72 z"/>
<path transform="translate(0,0)" fill="rgb(3,2,9)" d="M 797.004 900.829 C 793.801 896.084 787.179 891.44 785.807 886.814 C 791.667 891.111 794.907 894.398 800.093 899.482 L 797.004 900.829 z"/>
<path transform="translate(0,0)" fill="rgb(3,2,9)" d="M 1236.4 1113.69 C 1238.8 1113.74 1239.59 1113.85 1241.96 1114.25 L 1242.7 1115.77 L 1240.27 1122.33 C 1240.26 1122.71 1240.33 1122.44 1239.69 1123.26 C 1237.71 1120.14 1237.3 1117.29 1236.4 1113.69 z"/>
<path transform="translate(0,0)" fill="rgb(3,2,9)" d="M 352.595 1075.05 C 354.065 1072.17 354.855 1069.88 357.4 1067.95 L 358.491 1068.65 L 358.468 1070.95 L 354.272 1077.83 L 353.088 1078.08 L 352.595 1075.05 z"/>
<path transform="translate(0,0)" fill="rgb(3,2,9)" d="M 338.304 944.963 C 341.353 947.726 342.15 947.535 343.191 950.858 C 340.172 951.104 338.401 949.216 336.125 947.219 L 338.304 944.963 z"/>
</svg>