<svg xmlns="http://www.w3.org/2000/svg" xmlns:xlink="http://www.w3.org/1999/xlink" width="96" zoomAndPan="magnify" viewBox="0 0 72 89.999999" height="120" preserveAspectRatio="xMidYMid meet" version="1.0"><rect x="-7.2" width="86.4" fill="#ffffff" y="-9" height="107.999999" fill-opacity="1"/><rect x="-7.2" width="86.4" fill="#ffffff" y="-9" height="107.999999" fill-opacity="1"/><path fill="#010139" d="M 29.503906 26.121094 C 29.09375 27.265625 28.585938 28.164062 27.867188 29.144531 C 27.09375 30.210938 26.378906 31.316406 25.722656 32.457031 C 25.023438 33.640625 24.292969 34.554688 23.261719 35.476562 L 22.480469 36.277344 C 20.855469 37.863281 19.121094 38.882812 17.117188 39.921875 L 16.296875 40.355469 C 14.292969 41.402344 14.292969 41.402344 13.585938 41.402344 C 13.855469 42.21875 13.855469 42.21875 14.523438 42.964844 C 15.667969 43.355469 16.78125 43.355469 17.972656 43.179688 C 19.398438 42.761719 20.28125 41.972656 21.332031 40.9375 C 21.769531 40.472656 22.207031 40.003906 22.636719 39.53125 C 23.148438 38.976562 23.148438 38.976562 23.574219 38.597656 L 24.199219 38.597656 C 24.109375 40.003906 23.886719 40.882812 23.105469 42.066406 L 22.683594 42.691406 C 22.253906 43.390625 22.089844 44.019531 22.015625 44.835938 L 22.949219 44.835938 L 22.949219 44.210938 L 23.574219 44.210938 C 23.6875 45.59375 23.796875 46.976562 23.90625 48.363281 L 24.003906 49.554688 L 24.09375 50.699219 L 24.175781 51.753906 C 24.199219 52.632812 24.199219 52.632812 23.886719 53.566406 L 24.511719 53.566406 C 24.773438 54.007812 25.035156 54.449219 25.292969 54.890625 L 25.730469 55.636719 C 26.070312 56.375 26.070312 56.375 26.070312 57.621094 C 24.910156 57.738281 23.746094 57.828125 22.578125 57.914062 L 21.582031 58.015625 C 20.636719 58.078125 19.820312 58.109375 18.890625 57.933594 C 18.09375 57.261719 17.8125 56.703125 17.332031 55.75 C 18.238281 54.777344 19.207031 54.300781 20.453125 53.878906 C 21.382812 53.640625 22.320312 53.433594 23.261719 53.253906 C 23.0625 52.632812 23.0625 52.632812 22.636719 52.007812 C 21.890625 51.65625 21.890625 51.65625 21.039062 51.460938 L 20.175781 51.234375 L 19.515625 51.070312 L 19.203125 52.007812 C 18.339844 52.476562 18.339844 52.476562 17.253906 52.941406 C 15.339844 53.738281 15.339844 53.738281 13.585938 54.8125 L 13.585938 56.0625 L 14.15625 56.074219 C 14.925781 56.121094 15.640625 56.199219 16.394531 56.375 C 17.15625 57.015625 17.15625 57.015625 17.644531 57.933594 C 17.910156 58.765625 18.09375 59.570312 18.269531 60.429688 L 18.851562 60.546875 C 19.515625 60.738281 19.515625 60.738281 20.140625 61.363281 C 21.199219 61.625 21.199219 61.625 22.324219 61.675781 C 23.0625 61.464844 23.0625 61.464844 23.574219 61.050781 L 23.886719 60.429688 C 25.058594 60.039062 26.09375 59.972656 27.320312 60.117188 C 27.867188 60.507812 27.867188 60.507812 28.257812 61.050781 C 29.121094 61.972656 29.960938 62.621094 31.066406 63.234375 L 30.753906 63.859375 L 28.882812 63.546875 L 29.195312 66.042969 C 28.246094 66.765625 27.523438 67.25 26.34375 67.484375 L 25.449219 67.289062 L 24.84375 66.375 L 24.199219 65.417969 C 23.160156 65.097656 22.386719 65.039062 21.316406 65.230469 C 20.710938 65.378906 20.113281 65.550781 19.515625 65.730469 L 19.515625 66.976562 C 19.898438 67.449219 20.285156 67.921875 20.695312 68.375 C 21.078125 68.847656 21.078125 68.847656 21.390625 69.707031 L 21.703125 70.40625 C 22.554688 70.902344 23.199219 71.027344 24.179688 71.109375 C 25.140625 71.074219 25.140625 71.074219 26.011719 70.71875 C 27.28125 70.320312 28.496094 70.238281 29.816406 70.40625 L 30.753906 71.03125 L 30.753906 70.097656 L 31.378906 70.097656 C 31.4375 70.992188 31.4375 70.992188 31.378906 71.96875 L 30.441406 72.589844 L 30.167969 73.238281 L 29.816406 73.839844 C 29.117188 74.027344 29.117188 74.027344 28.257812 74.074219 L 27.328125 74.125 C 25.972656 74.160156 24.621094 74.171875 23.261719 74.152344 L 22.015625 74.152344 C 21.15625 73.46875 21.15625 73.46875 20.453125 72.589844 C 20.355469 71.714844 20.355469 71.714844 20.453125 71.03125 L 19.691406 70.757812 L 18.890625 70.40625 C 18.46875 69.5625 18.558594 68.84375 18.578125 67.914062 L 17.332031 67.601562 L 17.957031 66.042969 L 17.078125 65.828125 C 16.082031 65.417969 16.082031 65.417969 15.554688 64.734375 C 13.042969 59.351562 11.28125 53.699219 11.304688 47.710938 L 11.398438 47.015625 L 12.023438 46.394531 C 12.84375 46.199219 12.84375 46.199219 13.585938 46.082031 C 13.714844 45.367188 13.714844 45.367188 13.585938 44.523438 C 12.851562 43.660156 12.851562 43.660156 12.023438 42.964844 L 11.710938 42.652344 C 11.699219 42.027344 11.699219 41.402344 11.710938 40.78125 L 12.824219 40.390625 C 15.125 39.519531 15.125 39.519531 16.949219 37.9375 C 17.320312 37.445312 17.6875 36.949219 18.050781 36.453125 C 18.78125 35.535156 19.40625 35.066406 20.453125 34.542969 C 21.351562 34.464844 21.351562 34.464844 22.015625 34.542969 L 22.363281 33.664062 C 23.363281 31.351562 24.425781 29.015625 26.382812 27.371094 L 27.027344 26.824219 C 27.847656 26.292969 28.535156 26.121094 29.503906 26.121094 M 20.140625 44.210938 C 19.707031 44.71875 19.292969 45.238281 18.890625 45.769531 L 19.515625 46.082031 L 19.515625 46.707031 L 21.078125 47.015625 C 21.292969 46.125 21.292969 46.125 21.390625 45.144531 L 20.765625 44.210938 Z M 16.082031 60.738281 C 15.894531 61.332031 15.894531 61.332031 15.769531 61.988281 L 16.082031 62.609375 L 17.019531 62.609375 L 17.332031 61.050781 Z M 16.082031 60.738281 " fill-opacity="1" fill-rule="nonzero"/><path fill="#010137" d="M 54.480469 59.179688 L 55.414062 59.179688 C 55.917969 59.703125 55.917969 59.703125 56.410156 60.390625 L 56.910156 61.070312 L 57.289062 61.675781 L 57.289062 62.300781 L 57.914062 62.300781 C 57.605469 63.308594 57.308594 63.839844 56.542969 64.582031 L 55.648438 65.28125 L 54.71875 66.015625 C 54.070312 66.503906 53.425781 66.96875 52.742188 67.40625 C 51.910156 67.890625 51.910156 67.890625 51.359375 68.847656 L 50.734375 68.847656 L 50.421875 71.34375 L 53.542969 72.277344 L 54.167969 71.03125 C 54.589844 70.566406 54.589844 70.566406 55.070312 70.136719 L 55.605469 69.652344 L 56.15625 69.160156 C 56.515625 68.835938 56.878906 68.511719 57.238281 68.1875 L 57.75 67.722656 C 58.34375 67.179688 58.914062 66.617188 59.472656 66.042969 C 60.183594 66.277344 60.65625 66.59375 61.164062 67.136719 C 62.007812 68.222656 62.007812 68.222656 62.285156 68.847656 C 62.234375 69.636719 62.234375 69.636719 61.972656 70.40625 C 61.515625 70.9375 61.515625 70.9375 60.917969 71.421875 L 60.234375 71.984375 L 59.472656 72.589844 L 58.675781 73.257812 C 57.804688 73.980469 56.925781 74.691406 56.039062 75.398438 C 55.878906 75.527344 55.71875 75.65625 55.554688 75.792969 C 55.070312 76.183594 54.578125 76.570312 54.089844 76.957031 L 53.207031 77.660156 C 52.140625 78.296875 51.34375 78.445312 50.109375 78.515625 C 49.074219 78.222656 49.074219 78.222656 48.234375 77.582031 C 47.835938 76.765625 47.679688 75.988281 47.613281 75.085938 C 47.714844 74.359375 47.816406 73.628906 47.921875 72.902344 C 47.78125 72.136719 47.554688 71.460938 47.300781 70.71875 C 46.226562 70.855469 45.355469 71.0625 44.355469 71.480469 C 42.71875 72.140625 40.984375 72.214844 39.242188 72.367188 L 38.246094 72.589844 C 37.808594 73.183594 37.808594 73.183594 37.621094 73.839844 C 37.035156 74.25 37.035156 74.25 36.375 74.460938 C 35.632812 74.394531 35.226562 74.222656 34.617188 73.800781 C 33.996094 72.949219 33.8125 72.042969 33.5625 71.03125 L 32.941406 71.96875 L 32.316406 71.96875 L 32.316406 69.785156 L 33.097656 69.609375 C 34.375 69.085938 35.097656 68.378906 36.054688 67.402344 L 36.6875 66.976562 C 37.542969 67.070312 37.542969 67.070312 38.246094 67.289062 L 38.246094 67.914062 L 38.871094 67.914062 L 39.808594 69.160156 L 40.433594 69.160156 L 40.625 68.613281 C 41.082031 67.871094 41.542969 67.457031 42.277344 66.992188 C 43.113281 66.570312 43.976562 66.277344 44.859375 65.964844 C 47.460938 64.992188 49.414062 63.476562 51.503906 61.6875 L 52.058594 61.210938 C 52.417969 60.902344 52.773438 60.589844 53.128906 60.273438 C 53.566406 59.894531 54.019531 59.535156 54.480469 59.179688 " fill-opacity="1" fill-rule="nonzero"/><path fill="#010139" d="M 52.292969 11.152344 L 52.917969 11.152344 L 52.917969 11.777344 L 54.792969 12.085938 L 55.105469 13.023438 L 56.039062 13.023438 L 56.039062 13.648438 L 56.558594 13.71875 C 57.554688 14.046875 58.183594 14.613281 58.988281 15.285156 L 59.863281 16.011719 C 60.707031 16.75 61.5 17.523438 62.285156 18.324219 L 61.972656 19.261719 C 60.796875 19.765625 59.8125 19.960938 58.539062 19.882812 L 57.914062 17.078125 L 55.726562 16.453125 L 55.746094 17.15625 C 55.726562 18.011719 55.726562 18.011719 55.570312 18.597656 C 55.371094 19.332031 55.371094 19.332031 55.414062 20.390625 C 55.414062 21.445312 55.414062 21.445312 55.105469 22.066406 L 54.5 22.203125 L 53.855469 22.378906 L 53.230469 23.316406 C 52.285156 23.519531 51.375 23.46875 50.421875 23.316406 C 49.503906 22.710938 49.503906 22.710938 48.859375 22.066406 L 48.234375 21.753906 L 48.234375 24.25 C 47.375 24.085938 46.574219 23.90625 45.738281 23.625 L 45.738281 23.003906 L 44.785156 22.882812 C 42.496094 22.527344 39.832031 22.113281 37.972656 20.644531 L 37.308594 19.882812 L 37.308594 18.949219 L 38.558594 18.949219 L 38.871094 17.703125 L 39.808594 17.703125 L 39.808594 16.765625 L 40.742188 17.078125 L 41.054688 20.195312 L 41.992188 20.195312 L 41.054688 15.828125 C 42.457031 14.511719 42.457031 14.511719 43.242188 13.957031 C 44.160156 13.839844 44.160156 13.839844 44.800781 13.957031 L 44.898438 14.5625 L 45.113281 15.207031 L 46.050781 15.519531 C 46.347656 16.164062 46.347656 16.164062 46.578125 16.941406 C 46.65625 17.199219 46.734375 17.457031 46.816406 17.722656 L 46.988281 18.324219 C 47.925781 18.089844 47.925781 18.089844 48.449219 17.488281 C 48.9375 16.757812 48.9375 16.757812 48.917969 15.753906 L 48.859375 14.894531 L 46.363281 14.269531 L 46.363281 13.648438 C 47.242188 13.160156 47.242188 13.160156 48.234375 12.710938 L 49.171875 13.023438 L 49.796875 13.957031 L 49.796875 14.894531 L 50.734375 14.894531 C 51.292969 14.597656 51.292969 14.597656 51.667969 13.957031 C 51.828125 13.128906 51.898438 12.308594 51.980469 11.464844 Z M 39.496094 8.597656 L 40.457031 8.597656 C 42.890625 8.613281 45.21875 8.816406 47.613281 9.28125 L 47.613281 9.90625 C 47.046875 10.046875 46.480469 10.191406 45.914062 10.332031 L 44.882812 10.597656 C 44.011719 10.804688 43.148438 10.964844 42.265625 11.113281 C 41.601562 11.242188 41.601562 11.242188 41.054688 11.464844 C 40.601562 12.144531 40.601562 12.144531 40.433594 13.023438 C 39.777344 14.402344 39.421875 15.035156 38.167969 15.925781 C 37.230469 16.394531 36.289062 16.675781 35.265625 16.902344 C 33.867188 17.222656 32.496094 17.644531 31.121094 18.042969 L 30.128906 18.324219 L 29.433594 18.542969 L 28.882812 18.636719 C 27.878906 18.214844 27.152344 17.847656 26.382812 17.078125 L 25.449219 14.894531 L 24.824219 14.269531 C 24.878906 13.652344 24.878906 13.652344 25.136719 13.023438 C 25.859375 12.507812 26.617188 12.039062 27.398438 11.621094 L 28.078125 11.246094 C 31.734375 9.296875 35.375 8.59375 39.496094 8.597656 M 33.5625 10.214844 L 33.5625 12.398438 L 35.125 12.710938 C 35.527344 12.003906 35.527344 12.003906 35.75 11.152344 C 35.398438 10.414062 35.398438 10.414062 34.8125 9.90625 C 34.164062 9.859375 34.164062 9.859375 33.5625 10.214844 M 29.195312 11.464844 L 29.195312 14.582031 L 29.816406 14.894531 C 30.453125 13.730469 30.753906 13.125 30.753906 11.777344 Z M 45.09375 75.964844 L 45.738281 76.023438 C 46.191406 76.925781 46.132812 77.75 46.117188 78.75 C 46.050781 79.453125 46.050781 79.453125 45.71875 80.367188 C 45.113281 81.011719 45.113281 81.011719 44.222656 81.355469 C 41.09375 82.175781 37.015625 82.050781 33.855469 81.433594 C 32.898438 81.160156 31.96875 80.8125 31.066406 80.386719 L 29.933594 79.863281 C 28.917969 79.363281 27.933594 78.867188 27.007812 78.203125 C 26.71875 77.53125 26.71875 77.53125 26.695312 76.957031 L 27.007812 76.644531 C 27.828125 76.527344 27.828125 76.527344 28.882812 76.644531 C 29.6875 77.074219 30.414062 77.566406 31.066406 78.203125 L 31.066406 78.828125 L 32.101562 78.496094 L 33.25 78.203125 L 34.1875 78.515625 L 34.5 77.582031 C 39.101562 76.507812 39.101562 76.507812 41.394531 76.917969 C 42.75 77.007812 43.742188 76.050781 45.09375 75.964844 " fill-opacity="1" fill-rule="nonzero"/><path fill="#010138" d="M 20.453125 21.132812 L 21.078125 21.132812 L 21.078125 22.691406 C 23.679688 22.425781 23.679688 22.425781 26.109375 21.5625 C 27.320312 20.984375 28.371094 21.03125 29.695312 21.039062 L 30.441406 21.132812 L 31.066406 21.753906 L 31.066406 23.003906 L 30.085938 23.199219 C 27.695312 23.710938 25.570312 24.242188 23.605469 25.773438 C 22.40625 26.980469 21.617188 28.40625 20.765625 29.863281 C 20.441406 30.34375 20.109375 30.820312 19.769531 31.289062 L 19.347656 31.875 C 18.816406 32.441406 18.367188 32.703125 17.644531 32.984375 C 16.914062 33.007812 16.1875 33.011719 15.457031 32.984375 C 15.644531 31.816406 15.980469 30.910156 16.53125 29.863281 C 16.949219 29.066406 17.332031 28.296875 17.652344 27.453125 C 17.753906 27.21875 17.851562 26.988281 17.957031 26.746094 C 18.617188 26.335938 18.617188 26.335938 19.203125 26.121094 C 18.953125 25.515625 18.953125 25.515625 18.578125 24.875 L 17.644531 24.25 L 17.644531 23.316406 L 19.203125 23.625 L 19.203125 24.25 L 20.140625 24.25 Z M 20.453125 21.132812 " fill-opacity="1" fill-rule="nonzero"/><path fill="#050422" d="M 21.703125 15.828125 L 22.324219 15.828125 C 22.695312 18.03125 22.695312 18.03125 22.5 19.046875 C 21.824219 19.777344 21.089844 20.027344 20.152344 20.34375 C 19.402344 20.539062 18.730469 20.582031 17.957031 20.507812 C 19.011719 18.792969 20.257812 17.234375 21.703125 15.828125 M 27.007812 76.644531 C 27.828125 76.527344 27.828125 76.527344 28.882812 76.644531 C 29.734375 77.046875 30.421875 77.515625 31.066406 78.203125 C 31.359375 79.238281 31.359375 79.238281 31.378906 80.078125 L 32.316406 80.386719 L 31.691406 80.699219 C 30.890625 80.347656 30.101562 79.964844 29.332031 79.550781 L 28.667969 79.214844 C 28.042969 78.882812 28.042969 78.882812 27.007812 78.203125 C 26.769531 77.558594 26.769531 77.558594 26.695312 76.957031 Z M 15.457031 39.21875 C 16.160156 39.335938 16.160156 39.335938 16.707031 39.53125 L 16.707031 40.15625 C 16.304688 40.367188 15.902344 40.574219 15.496094 40.78125 L 14.816406 41.128906 C 14.210938 41.402344 14.210938 41.402344 13.585938 41.402344 L 13.585938 44.210938 C 12.648438 43.898438 12.648438 43.898438 12.121094 43.371094 C 11.710938 42.652344 11.710938 42.652344 11.652344 41.636719 L 11.710938 40.78125 L 12.882812 40.351562 C 13.597656 40.085938 14.242188 39.824219 14.910156 39.453125 Z M 15.457031 39.21875 " fill-opacity="1" fill-rule="nonzero"/><path fill="#01013a" d="M 53.230469 24.25 L 53.484375 24.835938 C 53.839844 25.589844 53.839844 25.589844 54.792969 26.121094 C 54.140625 26.773438 53.820312 26.925781 52.957031 27.175781 C 52.285156 27.335938 52.285156 27.335938 51.667969 27.371094 C 50.890625 26.785156 50.890625 26.785156 50.421875 26.121094 L 51.046875 26.121094 L 51.359375 24.5625 C 52.003906 24.390625 52.558594 24.25 53.230469 24.25 " fill-opacity="1" fill-rule="nonzero"/><path fill="#040322" d="M 34.5 68.847656 L 34.8125 69.472656 L 34.5 70.097656 C 34.394531 70.992188 34.394531 70.992188 34.5 71.96875 C 34.933594 72.847656 34.933594 72.847656 35.4375 73.527344 L 36.316406 73.234375 L 38.246094 72.589844 C 38.011719 73.175781 38.011719 73.175781 37.621094 73.839844 C 37.035156 74.25 37.035156 74.25 36.375 74.460938 C 35.632812 74.394531 35.226562 74.222656 34.617188 73.800781 C 33.996094 72.949219 33.8125 72.042969 33.5625 71.03125 L 32.941406 71.96875 L 32.316406 71.96875 L 32.316406 69.785156 L 33.234375 69.492188 C 34.140625 69.253906 34.140625 69.253906 34.5 68.847656 " fill-opacity="1" fill-rule="nonzero"/><path fill="#050422" d="M 17.957031 66.664062 C 18.8125 66.878906 18.8125 66.878906 19.828125 67.289062 C 20.570312 68.070312 20.570312 68.070312 21.078125 68.847656 L 21.078125 69.472656 L 19.828125 69.785156 L 19.828125 70.40625 L 18.890625 70.40625 C 18.46875 69.5625 18.558594 68.84375 18.578125 67.914062 L 17.332031 67.601562 Z M 23.574219 38.597656 L 24.199219 38.597656 C 24.054688 40.085938 23.8125 41.105469 22.949219 42.339844 L 20.453125 42.027344 C 22.652344 39.417969 22.652344 39.417969 23.574219 38.597656 M 15.769531 23.9375 L 16.707031 24.25 C 16.160156 26.167969 15.496094 27.996094 14.210938 29.550781 L 13.585938 29.550781 C 13.757812 28.089844 14.171875 26.996094 14.855469 25.691406 C 15.023438 25.363281 15.195312 25.03125 15.371094 24.691406 Z M 15.769531 23.9375 " fill-opacity="1" fill-rule="nonzero"/><path fill="#040324" d="M 30.753906 70.097656 L 31.378906 70.097656 C 31.4375 70.992188 31.4375 70.992188 31.378906 71.96875 L 30.441406 72.589844 C 30.070312 73.230469 30.070312 73.230469 29.816406 73.839844 L 28.882812 73.839844 L 29.175781 73.117188 C 29.40625 72.53125 29.621094 71.941406 29.816406 71.34375 L 29.195312 71.03125 L 29.195312 70.40625 L 30.753906 71.03125 Z M 30.753906 70.097656 " fill-opacity="1" fill-rule="nonzero"/><path fill="#040323" d="M 12.023438 52.320312 L 12.335938 53.253906 L 12.960938 53.253906 L 12.960938 53.878906 L 13.898438 53.878906 L 13.585938 56.0625 L 14.523438 56.375 L 12.648438 56.6875 C 12.152344 55.164062 11.957031 53.9375 12.023438 52.320312 " fill-opacity="1" fill-rule="nonzero"/><path fill="#050422" d="M 29.503906 26.121094 C 29.054688 27.402344 28.410156 28.441406 27.632812 29.550781 L 26.695312 28.929688 L 26.851562 28.363281 C 27.042969 27.644531 27.042969 27.644531 27.007812 26.746094 C 28.804688 26.121094 28.804688 26.121094 29.503906 26.121094 " fill-opacity="1" fill-rule="nonzero"/><path fill="#040322" d="M 22.949219 44.210938 L 23.574219 44.210938 L 23.574219 47.953125 L 22.949219 47.953125 L 22.324219 45.769531 L 21.390625 45.769531 L 22.015625 44.835938 L 22.949219 44.835938 Z M 22.949219 44.210938 " fill-opacity="1" fill-rule="nonzero"/><path fill="#050422" d="M 48.234375 12.710938 L 49.171875 13.023438 C 49.542969 13.824219 49.542969 13.824219 49.796875 14.582031 L 48.859375 14.269531 L 48.253906 14.425781 C 47.613281 14.582031 47.613281 14.582031 46.910156 14.445312 L 46.363281 14.269531 L 46.363281 13.648438 C 47.242188 13.160156 47.242188 13.160156 48.234375 12.710938 " fill-opacity="1" fill-rule="nonzero"/><path fill="#040324" d="M 37.308594 18.949219 L 37.878906 19.335938 L 38.636719 19.84375 L 39.382812 20.351562 C 40.019531 20.757812 40.683594 21.121094 41.367188 21.445312 L 41.367188 21.753906 C 40.367188 21.695312 39.496094 21.628906 38.621094 21.109375 C 38.109375 20.703125 38.109375 20.703125 37.308594 19.882812 Z M 37.308594 18.949219 " fill-opacity="1" fill-rule="nonzero"/><path fill="#040327" d="M 21.078125 37.039062 L 20.765625 37.972656 C 20.050781 38.40625 20.050781 38.40625 19.183594 38.8125 C 18.898438 38.949219 18.609375 39.082031 18.316406 39.222656 L 17.644531 39.53125 L 17.644531 38.597656 L 18.269531 38.597656 L 18.269531 37.972656 C 20.023438 37.039062 20.023438 37.039062 21.078125 37.039062 " fill-opacity="1" fill-rule="nonzero"/><path fill="#050422" d="M 39.808594 16.765625 L 40.742188 17.078125 L 41.054688 20.195312 L 40.121094 19.882812 C 39.808594 17.816406 39.808594 17.816406 39.808594 16.765625 M 23.261719 50.136719 L 23.886719 50.136719 C 24.160156 52.023438 24.160156 52.023438 24.199219 52.632812 L 23.886719 53.253906 L 23.261719 53.253906 C 22.910156 51.1875 22.910156 51.1875 23.261719 50.136719 M 12.648438 33.605469 L 13.585938 33.605469 C 13.332031 34.679688 13.332031 34.679688 12.960938 35.789062 L 12.023438 36.101562 C 12.117188 35.371094 12.222656 34.644531 12.335938 33.917969 Z M 12.023438 46.394531 C 12.84375 46.355469 12.84375 46.355469 13.585938 46.394531 L 13.273438 47.015625 L 12.335938 47.015625 L 11.710938 49.511719 L 11.398438 49.511719 C 11.339844 47.625 11.339844 47.625 11.398438 47.015625 Z M 54.480469 59.179688 L 55.414062 59.179688 L 56.664062 61.363281 L 55.726562 61.050781 L 55.28125 60.546875 L 54.792969 60.117188 C 54.117188 60.1875 54.117188 60.1875 53.542969 60.429688 C 53.953125 59.804688 53.953125 59.804688 54.480469 59.179688 M 48.234375 22.691406 L 48.234375 24.25 C 47.183594 24.078125 46.648438 23.921875 45.738281 23.316406 C 47.535156 22.691406 47.535156 22.691406 48.234375 22.691406 M 20.453125 71.96875 L 20.910156 72.308594 L 21.507812 72.746094 L 22.097656 73.1875 L 22.636719 73.527344 L 23.261719 73.527344 L 22.949219 74.460938 C 21.902344 74.011719 21.203125 73.449219 20.453125 72.589844 Z M 56.039062 28.304688 L 56.664062 28.304688 C 56.429688 28.890625 56.429688 28.890625 56.039062 29.550781 C 55.375 29.941406 55.375 29.941406 54.792969 30.175781 C 54.890625 29.589844 54.890625 29.589844 55.105469 28.929688 Z M 56.039062 28.304688 " fill-opacity="1" fill-rule="nonzero"/><path fill="#040324" d="M 61.035156 17.390625 L 61.972656 17.703125 C 62.1875 18.34375 62.1875 18.34375 62.285156 18.949219 L 61.035156 18.949219 Z M 61.035156 17.390625 " fill-opacity="1" fill-rule="nonzero"/><path fill="#050422" d="M 46.988281 10.839844 L 47.921875 11.152344 L 47.921875 12.085938 L 46.988281 11.777344 Z M 46.988281 10.839844 " fill-opacity="1" fill-rule="nonzero"/></svg>