<svg xmlns="http://www.w3.org/2000/svg" xmlns:xlink="http://www.w3.org/1999/xlink" width="96" zoomAndPan="magnify" viewBox="0 0 72 89.999999" height="120" preserveAspectRatio="xMidYMid meet" version="1.0"><rect x="-7.2" width="86.4" fill="#ffffff" y="-9" height="107.999999" fill-opacity="1"/><rect x="-7.2" width="86.4" fill="#ffffff" y="-9" height="107.999999" fill-opacity="1"/><path fill="#010014" d="M 22.230469 7.695312 L 28.277344 7.695312 C 27.925781 9.445312 27.480469 10.324219 26.542969 11.808594 L 25.789062 13.007812 C 25.078125 14.097656 25.078125 14.097656 24.5 14.816406 C 23.871094 15.722656 23.582031 16.632812 23.230469 17.675781 C 22.195312 20.464844 20.609375 22.675781 18.644531 24.890625 C 17.832031 26.015625 17.429688 27.164062 17.03125 28.476562 L 16.8125 29.171875 C 16.601562 29.835938 16.394531 30.5 16.1875 31.167969 C 15.523438 33.253906 15.523438 33.253906 15.121094 33.65625 C 15.035156 35.820312 15.035156 35.820312 15.476562 37.925781 L 16.1875 37.925781 L 16.121094 36.945312 L 16.1875 35.789062 L 16.652344 35.1875 C 17.488281 34.050781 17.890625 32.8125 18.386719 31.5 C 19.324219 29.101562 20.386719 27.199219 22.019531 25.191406 C 22.574219 24.429688 22.796875 23.910156 22.941406 22.988281 L 23.652344 22.988281 C 23.875 34.847656 23.875 34.847656 21.875 38.992188 C 21.355469 39.808594 20.804688 40.597656 20.246094 41.386719 C 19.589844 42.4375 19.257812 43.492188 18.910156 44.675781 C 18.609375 45.597656 18.152344 46.367188 17.609375 47.171875 C 18.054688 47.734375 18.054688 47.734375 18.675781 48.238281 L 20.097656 48.238281 L 20.539062 47.339844 L 21.121094 46.171875 L 21.695312 45.007812 C 22.230469 43.96875 22.230469 43.96875 22.941406 42.902344 L 23.652344 42.902344 C 23.6875 45.660156 23.710938 48.417969 23.726562 51.175781 C 23.734375 52.457031 23.746094 53.734375 23.761719 55.015625 C 23.777344 56.253906 23.785156 57.488281 23.789062 58.726562 C 23.792969 59.425781 23.804688 60.125 23.816406 60.824219 L 23.816406 62.121094 L 23.824219 63.257812 L 23.652344 64.242188 C 22.957031 65.03125 22.957031 65.03125 22.230469 65.664062 C 21.832031 66.488281 21.523438 67.320312 21.210938 68.179688 L 20.808594 68.863281 C 20.148438 69.15625 20.148438 69.15625 19.386719 69.21875 C 18.40625 69.0625 17.5 68.777344 16.542969 68.507812 C 16.742188 67.667969 16.980469 66.839844 17.253906 66.019531 L 16.1875 65.664062 C 16.253906 62.257812 16.253906 62.257812 16.960938 61.015625 C 17.453125 60.441406 17.453125 60.441406 18.320312 59.617188 C 17.90625 58.753906 17.429688 57.925781 16.898438 57.128906 C 17.238281 56.527344 17.59375 55.933594 17.964844 55.351562 L 18.675781 54.996094 L 18.652344 53.636719 C 18.636719 52.632812 18.703125 52.0625 19.03125 51.082031 L 15.832031 51.4375 L 15.710938 52.257812 C 15.398438 54.300781 15.003906 56.199219 14.3125 58.140625 C 13.871094 59.441406 13.59375 60.761719 13.339844 62.105469 L 13.195312 62.867188 C 12.996094 64.074219 12.976562 64.925781 13.320312 66.109375 L 13.695312 67.085938 L 13.695312 68.507812 C 13.164062 69.308594 13.164062 69.308594 12.628906 69.929688 L 11.5625 69.574219 C 10.792969 68.125 10.511719 66.597656 10.40625 64.972656 C 10.460938 63.574219 10.628906 62.179688 10.808594 60.789062 C 10.851562 59.949219 10.726562 59.355469 10.496094 58.550781 C 10.363281 57.351562 10.363281 57.351562 10.496094 56.0625 C 11.082031 55.34375 11.675781 54.632812 12.273438 53.925781 L 12.273438 51.792969 C 12.664062 51.195312 12.664062 51.195312 13.164062 50.570312 C 13.667969 49.960938 13.667969 49.960938 14.050781 49.304688 C 14.140625 47.984375 14.140625 47.984375 14.050781 46.816406 L 14.761719 46.105469 C 14.890625 45.511719 15.007812 44.917969 15.121094 44.324219 C 15.34375 43.726562 15.578125 43.132812 15.832031 42.546875 L 14.761719 42.902344 L 14.761719 41.835938 L 14.097656 42.546875 L 13.339844 43.257812 L 12.628906 43.257812 L 12.421875 43.972656 C 12.230469 44.621094 12.035156 45.261719 11.839844 45.90625 C 11.640625 46.570312 11.449219 47.234375 11.273438 47.902344 L 10.851562 48.59375 C 10.144531 48.734375 9.433594 48.855469 8.71875 48.949219 C 8.636719 41.226562 8.636719 41.226562 9.074219 39.347656 L 9.785156 38.636719 C 10.035156 37.925781 10.261719 37.203125 10.472656 36.480469 L 10.851562 35.222656 C 11.0625 34.5 11.277344 33.773438 11.488281 33.046875 L 11.742188 32.210938 L 11.953125 31.488281 C 12.273438 30.8125 12.273438 30.8125 12.984375 30.136719 C 13.753906 29.429688 13.753906 29.429688 14.042969 28.441406 L 14.273438 27.390625 L 14.535156 26.25 C 14.796875 24.960938 15.042969 23.667969 15.253906 22.367188 C 15.523438 21.386719 16.015625 20.660156 16.542969 19.789062 C 16.855469 18.964844 17.148438 18.132812 17.429688 17.296875 C 17.953125 15.746094 18.503906 14.410156 19.386719 13.03125 C 19.6875 12.507812 19.980469 11.980469 20.277344 11.453125 L 20.710938 10.675781 C 21.238281 9.695312 21.734375 8.695312 22.230469 7.695312 M 56.726562 53.925781 L 57.792969 54.28125 C 58.214844 55.371094 58.214844 55.371094 58.503906 56.417969 L 57.792969 57.128906 C 57.753906 58.835938 58.0625 60.59375 58.859375 62.105469 L 59.574219 62.863281 C 60.457031 64.132812 60.824219 65.207031 61.074219 66.734375 C 60.996094 67.796875 60.996094 67.796875 60.429688 68.882812 C 59.707031 69.867188 58.949219 70.789062 58.148438 71.707031 L 57.4375 72.777344 L 56.371094 72.777344 L 55.660156 71.351562 L 53.882812 71.707031 L 53.789062 72.667969 C 53.738281 73.085938 53.691406 73.503906 53.636719 73.929688 C 53.570312 74.550781 53.570312 74.550781 53.5 75.183594 C 53.171875 76.332031 53.171875 76.332031 52.296875 77.191406 L 51.394531 77.753906 L 50.683594 77.753906 C 50.027344 76.59375 49.375 75.429688 48.726562 74.265625 L 48.160156 73.265625 L 47.625 72.300781 L 47.128906 71.414062 C 46.769531 70.640625 46.769531 70.640625 46.769531 69.574219 L 47.480469 69.574219 L 47.480469 68.507812 L 45.703125 68.507812 C 45.144531 67.15625 44.679688 65.980469 44.480469 64.53125 C 44.636719 63.527344 44.636719 63.527344 45.304688 62.507812 L 46.058594 61.75 L 46.769531 61.75 L 46.769531 66.730469 L 47.835938 66.375 L 48.191406 64.597656 C 48.855469 64.675781 48.855469 64.675781 49.613281 64.953125 C 50.066406 65.660156 50.066406 65.660156 50.414062 66.53125 L 50.777344 67.394531 C 51.039062 68.152344 51.039062 68.152344 51.039062 68.863281 C 52.691406 68.464844 52.691406 68.464844 54.214844 67.730469 C 54.664062 67.039062 54.664062 67.039062 54.839844 65.953125 C 54.707031 64.609375 54.707031 64.609375 53.957031 63.800781 C 53.246094 63.089844 52.511719 62.40625 51.75 61.75 C 52.691406 58.835938 53.632812 56.605469 55.882812 54.460938 Z M 62.773438 27.609375 C 63.585938 27.726562 63.585938 27.726562 64.195312 27.964844 L 64.195312 28.679688 L 63.484375 28.679688 L 63.484375 29.390625 C 62.730469 30.003906 62.730469 30.003906 61.75 30.679688 L 60.777344 31.359375 L 59.929688 31.878906 L 59.214844 31.878906 L 59.214844 32.589844 L 57.792969 32.945312 L 57.792969 33.65625 L 58.929688 33.632812 C 60.285156 33.65625 60.285156 33.65625 61.21875 33.902344 L 62.0625 34.011719 C 63.039062 33.628906 63.039062 33.628906 63.839844 32.945312 C 64.3125 32.210938 64.3125 32.210938 64.550781 31.523438 L 65.261719 31.523438 C 65.472656 32.789062 65.671875 34.054688 65.863281 35.324219 L 66.042969 36.410156 C 66.4375 39.054688 66.4375 39.054688 65.917969 40.46875 C 65.261719 41.125 65.261719 41.125 64.535156 41.375 L 62.417969 41.480469 L 62.0625 43.257812 L 62.773438 43.257812 L 62.773438 44.679688 L 60.640625 45.035156 C 60.609375 43.765625 60.6875 42.707031 60.996094 41.480469 C 61.128906 40.390625 61.183594 39.363281 60.996094 38.28125 C 60.171875 37.351562 60.171875 37.351562 59.214844 36.855469 L 59.0625 38.058594 C 58.859375 39.347656 58.859375 39.347656 58.503906 40.058594 C 58.375 40.886719 58.257812 41.714844 58.148438 42.546875 L 56.792969 42.371094 C 54.867188 42.152344 52.972656 42.167969 51.039062 42.191406 L 50.683594 36.5 L 52.460938 35.433594 C 54.113281 34.285156 55.667969 33.007812 57.214844 31.722656 C 58.507812 30.664062 59.808594 29.625 61.152344 28.632812 L 61.992188 28.007812 Z M 58.148438 19.074219 L 58.859375 19.074219 L 59.214844 20.5 L 59.929688 20.5 C 60.226562 21.007812 60.523438 21.519531 60.816406 22.03125 L 61.316406 22.894531 C 61.707031 23.699219 61.707031 23.699219 61.707031 24.765625 L 60.683594 25.320312 C 59.582031 25.949219 58.558594 26.648438 57.527344 27.390625 C 55.957031 28.507812 54.335938 29.433594 52.632812 30.328125 C 51.894531 30.734375 51.183594 31.183594 50.503906 31.679688 L 49.613281 32.234375 L 48.546875 31.878906 C 48.054688 30.988281 48.054688 30.988281 47.59375 29.902344 L 47.121094 28.808594 L 46.769531 27.964844 C 48.460938 26.460938 50.21875 25.121094 52.058594 23.804688 C 53.578125 22.6875 55.050781 21.511719 56.515625 20.324219 C 57.050781 19.898438 57.597656 19.480469 58.148438 19.074219 M 14.40625 7.695312 L 19.03125 7.695312 L 17.609375 9.117188 C 17.199219 9.804688 17.199219 9.804688 16.898438 10.519531 C 16.324219 11.738281 15.65625 12.722656 14.761719 13.742188 L 15.476562 14.453125 L 15.476562 15.519531 L 13.695312 15.519531 L 13.667969 16.40625 C 13.464844 20.414062 12.300781 23.1875 10.269531 26.601562 L 9.785156 27.253906 L 9.074219 27.253906 L 9.429688 28.679688 L 8.71875 28.679688 C 8.023438 25.855469 8.246094 22.699219 8.964844 19.894531 C 9.535156 17.988281 10.203125 16.117188 10.894531 14.25 C 11.300781 13.125 11.671875 11.988281 12.035156 10.847656 C 12.339844 10.007812 12.691406 9.386719 13.339844 8.761719 L 14.40625 8.761719 Z M 41.792969 8.40625 C 42.304688 8.507812 42.8125 8.613281 43.324219 8.71875 L 44.1875 8.894531 C 44.992188 9.117188 44.992188 9.117188 46.058594 9.828125 C 45.691406 11.039062 45.238281 12.21875 44.703125 13.363281 C 43.835938 15.269531 43.210938 17.25 42.5625 19.234375 C 42.105469 20.621094 41.609375 21.984375 41.078125 23.34375 L 35.390625 21.921875 C 35.875 20.945312 36.386719 19.980469 36.921875 19.03125 C 38.835938 15.589844 40.367188 12.074219 41.792969 8.40625 M 33.613281 7.695312 C 34.691406 7.625 34.691406 7.625 35.96875 7.652344 L 37.25 7.671875 L 38.234375 7.695312 L 38.589844 8.40625 C 38.257812 8.972656 37.921875 9.539062 37.582031 10.101562 C 37.105469 11.019531 36.824219 11.929688 36.523438 12.917969 C 35.777344 15.269531 34.714844 17.4375 33.257812 19.433594 L 32.1875 19.789062 L 31.476562 21.210938 L 27.566406 21.210938 C 28.261719 19.015625 29.136719 16.980469 30.1875 14.941406 C 31.109375 13.132812 31.816406 11.269531 32.503906 9.363281 C 32.902344 8.40625 32.902344 8.40625 33.613281 7.695312 M 24.367188 68.863281 L 26.144531 68.863281 C 29.199219 75.296875 29.199219 75.296875 29.015625 78.734375 C 28.96875 80.195312 29.175781 81.640625 29.34375 83.089844 C 28.015625 83.402344 26.796875 83.566406 25.433594 83.445312 L 24.722656 82.378906 C 24.855469 81.601562 24.855469 81.601562 25.078125 80.953125 L 25.789062 80.953125 C 25.4375 80.0625 25.070312 79.171875 24.695312 78.289062 L 24.320312 77.398438 L 23.941406 76.507812 C 23.632812 75.554688 23.585938 74.839844 23.652344 73.84375 C 24.007812 72.292969 24.375 71.132812 25.433594 69.929688 L 24.722656 69.929688 Z M 17.964844 69.929688 L 18.675781 69.929688 L 18.675781 70.640625 L 20.097656 70.640625 C 21.007812 72.292969 21.234375 74.007812 21.566406 75.84375 L 21.761719 76.863281 C 22.164062 79.09375 22.292969 81.179688 22.230469 83.445312 L 17.964844 83.445312 L 18.007812 82.222656 C 18.003906 79.6875 17.433594 77.476562 16.1875 75.265625 L 16.898438 74.554688 C 16.933594 73.644531 16.871094 72.761719 16.816406 71.855469 L 16.898438 70.996094 C 17.386719 70.351562 17.386719 70.351562 17.964844 69.929688 M 37.167969 67.796875 C 36.828125 68.714844 36.484375 69.53125 35.945312 70.351562 C 34.917969 72.199219 34.46875 74.289062 33.96875 76.332031 L 31.121094 75.976562 L 31.121094 76.6875 L 30.410156 76.6875 C 30.011719 75.890625 30.007812 75.4375 30.011719 74.554688 L 30.007812 73.796875 C 30.054688 73.132812 30.054688 73.132812 30.410156 72.417969 L 29.699219 72.417969 L 30.054688 68.863281 L 31.273438 68.71875 L 32.855469 68.53125 L 33.660156 68.4375 C 34.851562 68.292969 36.019531 67.796875 37.167969 67.796875 " fill-opacity="1" fill-rule="nonzero"/><path fill="#010014" d="M 56.371094 43.96875 L 57.082031 43.96875 L 57.082031 45.035156 L 57.792969 45.035156 L 57.792969 44.324219 L 58.503906 44.324219 C 58.515625 44.828125 58.523438 45.332031 58.527344 45.835938 L 58.539062 46.6875 C 58.507812 47.492188 58.375 48.175781 58.148438 48.949219 L 57.4375 48.949219 L 57.4375 48.238281 L 56.726562 48.238281 L 56.371094 50.015625 L 55.328125 50.328125 L 54.238281 50.726562 L 53.882812 51.4375 C 53.296875 51.808594 52.703125 52.164062 52.105469 52.503906 L 51.039062 53.214844 L 49.96875 53.214844 C 50.132812 51.402344 50.304688 49.566406 51.039062 47.882812 C 52.449219 46.359375 54.050781 45.335938 56.015625 44.679688 Z M 66.328125 50.371094 C 66.125 52.660156 65.71875 54.78125 65.105469 56.996094 L 64.871094 57.863281 C 64.421875 59.519531 63.960938 61.171875 63.484375 62.816406 L 62.773438 62.816406 L 62.410156 61.703125 L 61.929688 60.238281 L 61.6875 59.503906 C 61.296875 58.308594 60.890625 57.164062 60.285156 56.0625 L 60.996094 55.304688 L 61.707031 54.28125 C 61.824219 53.140625 61.824219 53.140625 61.707031 52.148438 C 62.273438 51.851562 62.847656 51.554688 63.417969 51.261719 L 64.378906 50.761719 C 65.261719 50.371094 65.261719 50.371094 66.328125 50.371094 M 48.546875 11.253906 C 49.75 11.445312 50.355469 11.628906 51.394531 12.320312 C 50.765625 15.148438 49.269531 17.871094 47.792969 20.34375 C 47.210938 21.40625 46.914062 22.15625 46.769531 23.34375 L 45.347656 23.699219 L 44.992188 25.476562 L 43.570312 25.121094 C 43.988281 23.578125 44.476562 22.097656 45.046875 20.597656 C 45.710938 18.808594 46.320312 16.996094 46.941406 15.1875 L 47.261719 14.269531 L 47.542969 13.445312 C 47.832031 12.683594 48.171875 11.972656 48.546875 11.253906 M 42.503906 72.0625 C 43.335938 72.167969 44.164062 72.285156 44.992188 72.417969 L 45.058594 73.621094 C 45.25 75.285156 45.945312 76.535156 46.785156 77.96875 C 47.125 78.820312 47.125 78.820312 47.050781 79.785156 L 46.769531 80.597656 C 45.949219 81.089844 45.949219 81.089844 44.992188 81.308594 C 44.277344 81.246094 44.277344 81.246094 43.570312 80.953125 C 43.066406 80.234375 43.066406 80.234375 42.636719 79.355469 C 42.367188 78.8125 42.085938 78.28125 41.792969 77.753906 L 41.078125 77.398438 L 41.414062 76.753906 C 41.828125 75.945312 41.828125 75.945312 42.148438 74.910156 L 41.078125 74.910156 L 40.722656 73.84375 L 41.433594 73.84375 L 41.769531 73.152344 C 42.148438 72.417969 42.148438 72.417969 42.503906 72.0625 " fill-opacity="1" fill-rule="nonzero"/><path fill="#010014" d="M 39.65625 69.929688 L 40.722656 69.929688 C 41.269531 72.707031 40.949219 75.472656 40.132812 78.183594 L 40.011719 78.820312 L 40.546875 79.886719 L 41.078125 80.953125 C 40.992188 81.777344 40.992188 81.777344 40.722656 82.378906 L 40.367188 82.734375 C 39.777344 82.746094 39.183594 82.75 38.589844 82.734375 L 38.472656 81.953125 C 38.148438 79.988281 37.722656 78.46875 36.8125 76.6875 C 36.90625 75.574219 37.238281 75.15625 37.878906 74.199219 L 37.167969 74.199219 C 37.449219 72.679688 38.148438 71.535156 39.125 70.351562 Z M 32.902344 77.042969 L 33.96875 77.398438 C 34.324219 78.15625 34.324219 78.15625 34.679688 79.175781 L 35.257812 80.421875 C 35.746094 81.667969 35.746094 81.667969 35.746094 83.445312 L 31.121094 83.445312 C 30.726562 82.65625 30.644531 82.050781 30.542969 81.175781 C 30.511719 80.902344 30.476562 80.628906 30.441406 80.347656 C 30.410156 79.523438 30.527344 78.894531 30.765625 78.109375 L 31.632812 77.976562 L 32.542969 77.753906 Z M 8.71875 74.199219 L 9.429688 74.199219 L 9.429688 76.332031 L 10.140625 76.332031 C 11.007812 78.761719 11.355469 80.867188 11.207031 83.445312 C 10.496094 83.460938 9.785156 83.457031 9.074219 83.445312 L 8.71875 83.089844 C 8.6875 82.429688 8.679688 81.769531 8.683594 81.109375 L 8.6875 79.898438 L 8.695312 78.621094 L 8.699219 77.339844 C 8.703125 76.292969 8.710938 75.246094 8.71875 74.199219 M 53.882812 14.808594 L 54.949219 14.808594 L 55.304688 16.230469 L 53.882812 16.230469 L 53.617188 16.988281 C 53.109375 18.148438 52.503906 19.125 51.75 20.144531 L 51.039062 20.144531 C 51.347656 18.453125 51.347656 18.453125 51.75 17.652344 L 52.460938 17.652344 L 52.769531 16.832031 C 53.171875 15.875 53.171875 15.875 53.882812 14.808594 M 13.339844 69.929688 L 14.050781 69.929688 L 14.761719 70.996094 C 14.808594 71.953125 14.808594 71.953125 14.761719 72.777344 L 13.339844 73.132812 C 12.820312 72.191406 12.628906 71.746094 12.628906 70.640625 L 13.339844 70.640625 Z M 10.496094 7.339844 C 10.257812 8.832031 9.480469 9.972656 8.71875 11.253906 L 8.363281 11.253906 L 8.363281 7.695312 C 9.785156 7.339844 9.785156 7.339844 10.496094 7.339844 M 65.972656 42.191406 L 66.683594 42.191406 L 66.683594 43.96875 C 65.742188 44.488281 65.300781 44.679688 64.195312 44.679688 L 64.550781 43.257812 L 65.617188 43.257812 Z M 51.75 43.613281 L 52.816406 43.96875 C 52.328125 44.503906 52.328125 44.503906 51.75 45.035156 L 51.039062 45.035156 L 51.039062 43.96875 Z M 51.75 43.613281 " fill-opacity="1" fill-rule="nonzero"/></svg>