<svg xmlns="http://www.w3.org/2000/svg" xmlns:xlink="http://www.w3.org/1999/xlink" width="96" zoomAndPan="magnify" viewBox="0 0 72 89.999999" height="120" preserveAspectRatio="xMidYMid meet" version="1.0"><rect x="-7.2" width="86.4" fill="#ffffff" y="-9" height="107.999999" fill-opacity="1"/><rect x="-7.2" width="86.4" fill="#ffffff" y="-9" height="107.999999" fill-opacity="1"/><path fill="#01003b" d="M 27.042969 36.914062 C 27.835938 36.808594 27.835938 36.808594 28.765625 36.804688 L 29.691406 36.789062 L 30.53125 36.914062 C 30.886719 37.257812 31.234375 37.605469 31.578125 37.960938 C 32.371094 38.160156 32.371094 38.160156 33.214844 38.199219 L 34.066406 38.269531 L 34.71875 38.308594 L 34.367188 36.914062 L 37.507812 36.914062 C 34.550781 40.648438 30.53125 43.410156 26.347656 45.632812 L 25.648438 45.632812 L 25.824219 46.332031 C 26.039062 47.632812 26.019531 48.847656 25.996094 50.167969 L 25.300781 50.167969 C 24.558594 49.164062 24.558594 49.164062 23.902344 48.074219 L 23.902344 47.375 L 23.25 47.050781 L 21.8125 46.332031 C 21.539062 47.25 21.382812 47.832031 21.460938 48.773438 C 21.914062 49.40625 21.914062 49.40625 22.496094 50.046875 C 23.289062 51.175781 23.550781 51.890625 23.726562 53.273438 C 23.785156 54.863281 23.738281 56.449219 23.6875 58.035156 C 23.675781 58.59375 23.664062 59.148438 23.65625 59.707031 C 23.632812 61.058594 23.597656 62.414062 23.554688 63.769531 L 20.066406 63.417969 L 19.71875 64.117188 L 22.160156 63.769531 L 22.640625 64.75 C 23.1875 65.875 23.1875 65.875 23.902344 66.90625 C 23.984375 67.570312 23.984375 67.570312 23.972656 68.304688 L 23.964844 69.105469 L 23.949219 69.9375 L 23.9375 70.777344 C 23.929688 71.464844 23.917969 72.148438 23.902344 72.835938 L 23.027344 73.21875 C 21.546875 74.023438 20.347656 75.019531 19.0625 76.105469 C 17.449219 77.46875 15.847656 78.710938 14.027344 79.796875 C 13.382812 80.175781 13.382812 80.175781 12.632812 80.789062 L 12.042969 81.203125 L 10.996094 81.203125 L 10.648438 74.578125 L 13.089844 73.53125 C 14 72.953125 14 72.953125 14.789062 72.3125 L 15.59375 71.691406 C 16.316406 71.101562 16.316406 71.101562 16.578125 70.046875 C 15.367188 70.203125 14.25 70.355469 13.089844 70.742188 L 10.996094 69.695312 L 10.996094 60.28125 L 13.789062 59.234375 C 14.214844 58.21875 14.214844 58.21875 13.984375 57.25 L 13.789062 56.445312 L 10.996094 56.792969 L 10.996094 45.285156 C 13.558594 45.710938 13.558594 45.710938 14.835938 46.332031 L 15.183594 47.027344 C 15.425781 46.902344 15.671875 46.777344 15.921875 46.644531 L 16.882812 46.15625 L 17.839844 45.664062 C 18.671875 45.285156 18.671875 45.285156 19.371094 45.285156 L 19.632812 44.671875 C 20.160156 43.71875 20.597656 43.179688 21.460938 42.496094 C 22.265625 42.183594 23.066406 41.929688 23.894531 41.695312 C 24.667969 41.480469 24.667969 41.480469 25.300781 40.75 L 25.300781 39.703125 C 24.273438 38.933594 24.273438 38.933594 23.207031 38.308594 L 23.554688 37.261719 L 25.667969 37.605469 L 26.347656 37.613281 Z M 17.277344 49.816406 L 17.277344 52.609375 L 16.097656 52.914062 C 14.832031 53.199219 14.832031 53.199219 14.136719 54.003906 L 14.136719 55.398438 C 14.945312 56.035156 14.945312 56.035156 15.882812 56.445312 L 16.578125 56.445312 L 16.207031 57.03125 C 15.800781 57.84375 15.800781 57.84375 16.011719 58.796875 L 16.230469 59.582031 C 17.054688 59.386719 17.867188 59.152344 18.671875 58.886719 L 18.324219 57.839844 C 18.277344 56.574219 18.277344 56.574219 18.324219 55.398438 L 18.671875 55.050781 L 19.828125 54.917969 C 21.097656 54.789062 21.097656 54.789062 21.964844 54.15625 C 22.144531 53.988281 22.324219 53.824219 22.507812 53.652344 L 22.160156 52.609375 L 20.832031 52.410156 L 20.082031 52.300781 C 19.296875 52.210938 19.296875 52.210938 18.324219 52.609375 L 18.324219 49.816406 Z M 16.925781 60.628906 L 16.230469 62.023438 C 16.621094 62.589844 16.621094 62.589844 17.277344 63.070312 C 18.367188 63.15625 18.367188 63.15625 19.371094 63.070312 C 19.355469 62.398438 19.355469 62.398438 19.019531 61.675781 C 17.980469 61.054688 17.980469 61.054688 16.925781 60.628906 M 13.789062 65.511719 L 13.789062 66.207031 L 14.484375 66.207031 L 14.484375 65.511719 Z M 15.882812 67.953125 L 16.578125 68.648438 L 16.925781 67.953125 Z M 22.859375 5.875 L 23.902344 6.574219 C 23.980469 7.488281 24.003906 8.320312 23.96875 9.234375 L 23.953125 9.980469 C 23.941406 10.585938 23.925781 11.195312 23.902344 11.804688 L 22.792969 11.78125 C 21.054688 11.777344 19.335938 11.945312 17.609375 12.109375 C 16.691406 12.148438 16.046875 12.085938 15.183594 11.804688 C 15.546875 13.417969 15.546875 13.417969 16.332031 14.84375 C 16.902344 15.347656 16.902344 15.347656 17.648438 15.40625 L 18.46875 15.382812 L 19.359375 15.367188 L 20.285156 15.335938 C 20.894531 15.320312 21.5 15.308594 22.109375 15.292969 L 22.921875 15.269531 L 23.554688 15.292969 L 23.902344 15.640625 C 23.90625 16.210938 23.894531 16.78125 23.863281 17.351562 L 23.808594 18.398438 L 23.75 19.5 L 23.695312 20.601562 C 23.652344 21.507812 23.605469 22.410156 23.554688 23.3125 L 22.859375 23.3125 L 22.507812 22.617188 C 20.6875 22.257812 18.890625 22.136719 17.082031 22.550781 L 15.882812 22.964844 C 15.222656 23.105469 14.558594 23.234375 13.898438 23.355469 L 12.933594 23.535156 C 12.042969 23.660156 12.042969 23.660156 10.648438 23.660156 L 10.648438 19.128906 C 12.699219 18.617188 14.464844 18.355469 16.578125 18.429688 L 16.925781 16.6875 L 15.925781 16.359375 C 14.835938 15.988281 14.835938 15.988281 14.136719 15.640625 C 13.542969 15.617188 12.945312 15.609375 12.347656 15.621094 L 11.386719 15.628906 L 10.648438 15.640625 C 10.609375 14.382812 10.582031 13.128906 10.5625 11.871094 L 10.527344 10.789062 L 10.511719 9.75 L 10.492188 8.792969 L 10.648438 7.96875 C 11.578125 7.082031 12.511719 6.683594 13.753906 6.367188 C 16.691406 5.796875 19.878906 5.625 22.859375 5.875 " fill-opacity="1" fill-rule="nonzero"/><path fill="#01003a" d="M 22.859375 25.058594 L 23.902344 25.40625 L 24.253906 36.566406 L 22.160156 36.214844 L 22.160156 37.613281 L 21.113281 37.613281 L 21.113281 36.914062 L 20.066406 36.914062 L 19.9375 38.113281 L 19.71875 39.355469 L 19.019531 39.703125 C 18.15625 39.316406 17.386719 38.804688 16.578125 38.308594 L 16.664062 37.503906 L 16.578125 36.566406 C 15.914062 35.921875 15.914062 35.921875 15.183594 35.519531 L 14.484375 36.214844 C 14.578125 36.910156 14.578125 36.910156 14.835938 37.613281 L 15.183594 38.65625 L 16.230469 39.007812 L 16.230469 39.703125 L 17.277344 39.703125 L 17.277344 40.402344 C 16.6875 40.628906 16.101562 40.855469 15.511719 41.078125 L 14.515625 41.457031 C 13.347656 41.824219 12.214844 42 10.996094 42.144531 C 10.65625 40.523438 10.457031 38.984375 10.710938 37.335938 C 11.074219 36.363281 11.546875 35.882812 12.308594 35.179688 C 13.648438 34.109375 15.058594 33.15625 16.492188 32.21875 C 18.246094 31.023438 19.765625 29.675781 21.046875 27.976562 L 21.644531 27.199219 C 22.121094 26.507812 22.503906 25.820312 22.859375 25.058594 M 37.507812 41.796875 C 38.492188 41.730469 38.492188 41.730469 39.644531 41.753906 L 40.800781 41.773438 L 41.695312 41.796875 L 41.34375 43.191406 L 40.296875 43.191406 L 40.296875 43.890625 L 38.902344 43.890625 L 38.554688 44.933594 L 37.855469 44.933594 L 37.792969 45.675781 C 37.421875 46.984375 36.703125 47.824219 35.765625 48.773438 C 35.066406 49.355469 34.371094 49.933594 33.671875 50.515625 L 33.0625 51.390625 C 32.277344 52.257812 32.277344 52.257812 31.121094 52.734375 L 29.832031 53.066406 L 28.546875 53.410156 C 27.390625 53.652344 27.390625 53.652344 25.996094 53.652344 L 25.996094 51.210938 L 26.8125 51.121094 C 27.160156 51.074219 27.511719 51.023438 27.871094 50.972656 L 28.925781 50.839844 L 29.832031 50.515625 C 30.203125 49.730469 30.203125 49.730469 30.53125 48.773438 C 31.15625 47.933594 31.867188 47.179688 32.582031 46.417969 L 33.140625 45.796875 L 33.691406 45.203125 L 34.1875 44.667969 C 34.8125 44.160156 35.339844 44.074219 36.113281 43.890625 C 36.519531 43.21875 36.519531 43.21875 36.808594 42.496094 Z M 37.507812 41.796875 " fill-opacity="1" fill-rule="nonzero"/><path fill="#030228" d="M 57.390625 35.519531 L 58.4375 35.867188 C 58.714844 36.628906 58.714844 36.628906 58.921875 37.621094 L 59.148438 38.699219 L 59.375 39.835938 L 59.613281 40.960938 C 60.179688 43.707031 60.179688 43.707031 60.179688 44.933594 L 59.199219 45.023438 L 58.089844 45.632812 C 57.570312 46.996094 57.292969 48.382812 57.042969 49.816406 L 56.34375 49.816406 L 57.042969 50.863281 C 57.398438 52.042969 57.492188 53.125 57.390625 54.351562 C 56.945312 55.472656 56.410156 56.488281 55.824219 57.542969 C 55.160156 58.796875 54.867188 59.941406 54.601562 61.328125 L 53.902344 61.328125 C 53.574219 60.285156 53.320312 59.273438 53.203125 58.1875 C 53.640625 57.011719 53.640625 57.011719 53.953125 56.421875 C 54.445312 55.308594 54.558594 54.132812 54.730469 52.9375 C 54.949219 51.910156 54.949219 51.910156 55.480469 50.652344 C 56.199219 48.800781 56.179688 46.945312 56.214844 44.980469 C 56.402344 37.496094 56.402344 37.496094 57.390625 35.519531 " fill-opacity="1" fill-rule="nonzero"/><path fill="#030226" d="M 46.925781 6.226562 L 47.972656 6.226562 C 48.460938 6.734375 48.460938 6.734375 48.953125 7.449219 L 49.5 8.230469 L 50.066406 9.058594 L 50.628906 9.863281 C 51.605469 11.269531 52.546875 12.65625 53.203125 14.246094 L 52.855469 14.941406 L 52.160156 14.941406 L 52.160156 15.988281 L 53.902344 15.640625 L 53.554688 17.734375 L 54.25 17.734375 C 55.085938 19.953125 55.574219 22.140625 55.964844 24.472656 C 56.191406 25.796875 56.53125 26.957031 57.042969 28.195312 L 57.042969 29.242188 L 56.34375 29.242188 C 54.890625 26.546875 53.742188 24.085938 53.09375 21.066406 C 52.769531 19.847656 52.214844 19.085938 51.460938 18.082031 C 51.339844 17.617188 51.226562 17.152344 51.113281 16.6875 C 50.902344 16.238281 50.679688 15.796875 50.441406 15.363281 L 50.035156 14.613281 L 49.609375 13.832031 C 47.257812 9.449219 47.257812 9.449219 46.578125 7.621094 C 46.722656 6.84375 46.722656 6.84375 46.925781 6.226562 " fill-opacity="1" fill-rule="nonzero"/><path fill="#010038" d="M 58.785156 67.253906 L 59.832031 67.253906 C 59.675781 68.0625 59.515625 68.867188 59.3125 69.667969 C 59.195312 70.140625 59.097656 70.613281 59.011719 71.09375 C 58.550781 73.574219 57.558594 75.726562 56.15625 77.820312 L 55.648438 78.414062 L 54.949219 78.414062 L 54.949219 79.113281 L 54.25 79.113281 L 53.96875 79.789062 L 53.554688 80.507812 L 52.507812 80.855469 C 52.140625 81.472656 52.140625 81.472656 51.851562 82.207031 C 51.375 83.234375 51.136719 83.625 50.21875 84.34375 C 49.367188 84.691406 49.367188 84.691406 48.320312 84.691406 C 48.210938 83.929688 48.210938 83.929688 48.320312 82.949219 C 49.148438 81.96875 49.148438 81.96875 50.066406 81.203125 L 50.761719 81.203125 L 50.894531 80.585938 C 51.113281 79.800781 51.402344 79.230469 51.824219 78.535156 L 52.257812 77.808594 L 52.726562 77.042969 C 54.066406 74.808594 55.320312 72.558594 56.496094 70.234375 C 57.058594 69.320312 57.578125 68.914062 58.4375 68.300781 Z M 58.785156 67.253906 " fill-opacity="1" fill-rule="nonzero"/><path fill="#030227" d="M 22.160156 77.019531 C 22.902344 77.171875 22.902344 77.171875 23.554688 77.367188 L 23.554688 78.414062 C 22.710938 79.40625 22.015625 80.0625 20.832031 80.617188 L 20.066406 80.855469 L 20.066406 81.902344 L 23.554688 81.902344 C 23.6875 82.714844 23.804688 83.527344 23.902344 84.34375 L 23.554688 84.691406 C 22.859375 84.722656 22.160156 84.730469 21.460938 84.726562 L 20.175781 84.722656 L 18.824219 84.714844 L 17.46875 84.710938 C 16.359375 84.707031 15.246094 84.699219 14.136719 84.691406 C 14.746094 82.691406 14.746094 82.691406 15.554688 81.871094 L 16.425781 81.226562 L 17.363281 80.519531 L 18.324219 79.808594 C 18.90625 79.351562 19.488281 78.894531 20.066406 78.4375 C 20.761719 77.894531 21.371094 77.414062 22.160156 77.019531 M 18.324219 81.902344 L 18.324219 82.949219 L 21.113281 83.996094 C 20.910156 83.296875 20.910156 83.296875 20.414062 82.601562 C 19.355469 82.148438 19.355469 82.148438 18.324219 81.902344 M 15.53125 82.949219 L 14.835938 83.644531 L 15.183594 83.996094 C 15.882812 84.007812 16.578125 84.011719 17.277344 83.996094 L 17.277344 82.949219 C 16.433594 82.890625 16.433594 82.890625 15.53125 82.949219 " fill-opacity="1" fill-rule="nonzero"/><path fill="#010037" d="M 16.230469 25.058594 L 16.925781 25.40625 C 17.1875 26.5625 17.1875 26.5625 17.277344 27.847656 C 17.046875 28.578125 17.046875 28.578125 16.578125 29.242188 C 15.746094 29.671875 15.746094 29.671875 14.746094 30.003906 L 13.761719 30.347656 C 12.742188 30.636719 12.742188 30.636719 10.648438 30.984375 L 10.648438 26.453125 C 12.542969 25.164062 13.941406 24.773438 16.230469 25.058594 " fill-opacity="1" fill-rule="nonzero"/><path fill="#040321" d="M 53.554688 6.574219 C 54.511719 6.484375 54.511719 6.484375 55.648438 6.574219 C 56.664062 7.300781 57.03125 7.949219 57.558594 9.082031 C 59.726562 14.28125 60.621094 20.152344 60.53125 25.753906 L 59.832031 25.753906 L 59.667969 24.941406 C 58.300781 16.890625 58.300781 16.890625 55.296875 9.363281 L 54.382812 8.664062 L 53.554688 7.96875 Z M 53.554688 6.574219 " fill-opacity="1" fill-rule="nonzero"/><path fill="#030228" d="M 51.808594 62.023438 L 52.855469 62.371094 C 52.804688 62.867188 52.753906 63.359375 52.703125 63.855469 L 52.617188 64.6875 C 52.515625 65.449219 52.359375 66.164062 52.160156 66.90625 L 51.113281 66.90625 L 51.046875 67.609375 C 50.757812 70.667969 50.757812 70.667969 50.414062 72.136719 L 49.019531 72.136719 L 48.671875 76.671875 L 47.625 76.324219 C 47.59375 75.015625 47.574219 73.707031 47.558594 72.398438 L 47.53125 71.273438 L 47.523438 70.191406 L 47.503906 69.195312 C 47.625 68.300781 47.625 68.300781 48.152344 67.484375 L 48.671875 66.90625 L 49.71875 67.253906 L 50.066406 68.648438 L 50.761719 63.769531 L 52.160156 64.117188 Z M 51.808594 62.023438 " fill-opacity="1" fill-rule="nonzero"/><path fill="#030229" d="M 15.53125 18.78125 C 16.035156 19.5 16.035156 19.5 16.230469 20.175781 L 15.183594 20.871094 L 13.789062 20.871094 L 13.789062 21.570312 C 14.289062 21.519531 14.792969 21.46875 15.292969 21.417969 L 16.136719 21.332031 C 16.984375 21.238281 16.984375 21.238281 17.972656 20.871094 L 18.671875 21.917969 L 17.972656 22.617188 C 16.996094 22.835938 16.039062 23.023438 15.050781 23.183594 L 14.242188 23.324219 C 13.007812 23.535156 11.910156 23.660156 10.648438 23.660156 L 10.648438 19.128906 C 12.414062 18.515625 13.671875 18.269531 15.53125 18.78125 " fill-opacity="1" fill-rule="nonzero"/><path fill="#030228" d="M 51.460938 43.191406 L 52.507812 43.191406 C 52.878906 44.019531 52.878906 44.019531 53.203125 44.933594 L 52.855469 45.632812 C 52.839844 46.445312 52.84375 47.261719 52.855469 48.074219 L 52.855469 49.46875 L 52.507812 49.816406 C 52.371094 50.34375 52.25 50.875 52.136719 51.410156 L 51.949219 52.28125 L 51.808594 52.957031 L 51.113281 52.957031 L 50.851562 53.5 C 50.378906 54.421875 49.867188 55.3125 49.351562 56.207031 C 48.984375 56.855469 48.644531 57.515625 48.320312 58.1875 L 47.625 58.1875 C 47.714844 57.371094 47.832031 56.554688 47.972656 55.746094 L 48.671875 55.050781 C 48.804688 54.382812 48.804688 54.382812 48.84375 53.652344 C 48.898438 52.914062 48.898438 52.914062 49.019531 52.257812 L 49.71875 51.5625 C 49.96875 50.871094 50.199219 50.171875 50.414062 49.46875 L 51.113281 47.375 L 50.414062 47.375 L 50.742188 46.851562 C 51.257812 45.640625 51.328125 44.503906 51.460938 43.191406 " fill-opacity="1" fill-rule="nonzero"/><path fill="#010037" d="M 45.53125 47.726562 C 45.5625 49.46875 45.472656 50.855469 45.183594 52.609375 L 38.207031 52.609375 L 38.554688 51.5625 C 39.128906 51.085938 39.707031 50.621094 40.296875 50.167969 L 41.191406 49.25 C 42.632812 47.847656 43.519531 47.632812 45.53125 47.726562 " fill-opacity="1" fill-rule="nonzero"/><path fill="#030226" d="M 47.273438 19.128906 L 47.972656 19.128906 L 48.671875 21.917969 L 50.066406 22.265625 C 50.582031 23.101562 50.582031 23.101562 51.023438 24.140625 L 51.476562 25.171875 C 51.808594 26.101562 51.808594 26.101562 51.808594 27.148438 L 49.367188 27.5 C 49.085938 27.046875 48.800781 26.597656 48.519531 26.148438 L 48.039062 25.386719 C 47.445312 24.414062 47.277344 24.054688 47.242188 22.875 L 47.253906 21.527344 L 47.261719 20.171875 Z M 47.273438 19.128906 " fill-opacity="1" fill-rule="nonzero"/><path fill="#010038" d="M 22.160156 77.019531 C 22.988281 77.105469 22.988281 77.105469 23.554688 77.367188 L 23.554688 78.414062 C 22.710938 79.40625 22.015625 80.0625 20.832031 80.617188 L 20.066406 80.855469 L 20.414062 82.601562 L 19.652344 82.273438 C 18.742188 81.929688 17.886719 81.71875 16.925781 81.554688 C 17.277344 80.507812 17.277344 80.507812 17.847656 79.996094 C 18.585938 79.464844 19.324219 78.9375 20.066406 78.414062 L 20.667969 77.957031 C 21.199219 77.566406 21.199219 77.566406 22.160156 77.019531 " fill-opacity="1" fill-rule="nonzero"/><path fill="#030221" d="M 50.761719 27.847656 L 52.160156 28.195312 L 52.25 28.777344 C 52.386719 29.652344 52.523438 30.523438 52.660156 31.398438 L 52.800781 32.3125 C 53.027344 33.738281 53.253906 35.15625 53.554688 36.566406 L 52.160156 36.566406 C 51.863281 35.789062 51.574219 35.011719 51.285156 34.234375 L 51.035156 33.570312 C 50.566406 32.296875 50.394531 31.285156 50.414062 29.9375 L 49.71875 28.894531 L 50.761719 28.542969 Z M 50.761719 27.847656 " fill-opacity="1" fill-rule="nonzero"/><path fill="#030224" d="M 10.996094 45.285156 L 13.089844 45.632812 L 13.4375 46.332031 L 11.695312 46.679688 L 11.695312 54.699219 L 14.136719 55.398438 C 14.976562 55.714844 15.777344 56.042969 16.578125 56.445312 L 16.230469 57.839844 L 15.183594 57.839844 L 14.835938 58.535156 L 14.136719 58.1875 C 13.917969 57.292969 13.917969 57.292969 13.789062 56.445312 L 10.996094 56.792969 Z M 10.996094 45.285156 " fill-opacity="1" fill-rule="nonzero"/><path fill="#030229" d="M 22.859375 25.058594 L 23.902344 25.40625 L 23.902344 34.472656 L 23.207031 34.472656 L 22.507812 28.542969 L 20.066406 29.242188 L 20.5 28.679688 L 21.070312 27.933594 L 21.632812 27.199219 C 22.121094 26.503906 22.5 25.824219 22.859375 25.058594 " fill-opacity="1" fill-rule="nonzero"/><path fill="#040321" d="M 47.273438 38.65625 L 47.972656 39.007812 C 47.78125 41.476562 47.0625 43.65625 46.230469 45.980469 L 45.53125 45.980469 C 44.902344 44.941406 44.542969 44.0625 44.484375 42.84375 C 45.230469 41.300781 46.203125 39.988281 47.273438 38.65625 " fill-opacity="1" fill-rule="nonzero"/><path fill="#020129" d="M 34.367188 36.914062 L 37.507812 36.914062 C 35.609375 39.3125 33.351562 41.5625 30.53125 42.84375 L 30.183594 41.796875 L 31.359375 41.207031 C 32.035156 40.84375 32.035156 40.84375 32.625 40.402344 C 33.144531 39.5 33.144531 39.5 33.320312 38.65625 L 31.925781 38.308594 L 34.71875 38.308594 Z M 34.367188 36.914062 " fill-opacity="1" fill-rule="nonzero"/><path fill="#030229" d="M 22.859375 52.609375 L 23.554688 52.609375 L 23.554688 63.769531 L 21.8125 63.417969 L 22.144531 62.101562 C 22.578125 60.15625 22.664062 58.234375 22.726562 56.246094 L 22.765625 55.183594 C 22.800781 54.324219 22.832031 53.464844 22.859375 52.609375 M 21.113281 63.769531 L 22.160156 63.769531 L 22.640625 64.75 C 23.1875 65.875 23.1875 65.875 23.902344 66.90625 C 23.984375 67.570312 23.984375 67.570312 23.972656 68.304688 L 23.964844 69.105469 L 23.949219 69.9375 L 23.9375 70.777344 C 23.929688 71.464844 23.917969 72.148438 23.902344 72.835938 L 22.507812 72.835938 C 22.542969 72.507812 22.574219 72.179688 22.609375 71.839844 C 22.648438 71.40625 22.6875 70.972656 22.726562 70.523438 L 22.847656 69.226562 C 22.859375 67.921875 22.667969 67.050781 22.160156 65.859375 C 21.820312 65.503906 21.46875 65.15625 21.113281 64.8125 Z M 21.113281 63.769531 " fill-opacity="1" fill-rule="nonzero"/><path fill="#040321" d="M 51.113281 79.808594 L 51.460938 80.855469 L 52.160156 81.203125 C 51.941406 82.164062 51.941406 82.164062 51.460938 83.296875 C 50.4375 84.125 50.4375 84.125 49.367188 84.691406 L 48.320312 84.691406 C 48.210938 83.929688 48.210938 83.929688 48.320312 82.949219 C 49.148438 81.96875 49.148438 81.96875 50.066406 81.203125 L 50.761719 81.203125 Z M 51.113281 79.808594 " fill-opacity="1" fill-rule="nonzero"/><path fill="#030229" d="M 13.4375 73.183594 L 14.136719 73.53125 C 13.699219 74.054688 13.699219 74.054688 13.089844 74.578125 L 11.695312 74.578125 C 11.6875 75.144531 11.679688 75.710938 11.671875 76.277344 L 11.660156 77.234375 C 11.640625 78.070312 11.640625 78.070312 12.042969 78.761719 C 12.925781 78.992188 12.925781 78.992188 13.789062 79.113281 C 13.503906 79.765625 13.503906 79.765625 13.089844 80.507812 L 12.042969 81.203125 L 10.996094 81.203125 L 10.648438 74.578125 L 13.089844 73.53125 Z M 13.4375 73.183594 " fill-opacity="1" fill-rule="nonzero"/><path fill="#040321" d="M 21.113281 15.292969 C 21.925781 15.277344 22.742188 15.277344 23.554688 15.292969 L 23.902344 15.640625 C 23.90625 16.210938 23.894531 16.78125 23.863281 17.351562 L 23.808594 18.398438 L 23.75 19.5 L 23.695312 20.601562 C 23.652344 21.507812 23.605469 22.410156 23.554688 23.3125 L 22.859375 23.3125 L 22.160156 21.570312 L 22.859375 21.570312 L 22.679688 20.992188 C 22.417969 19.738281 22.558594 18.503906 22.632812 17.230469 L 22.507812 16.339844 C 21.84375 15.6875 21.84375 15.6875 21.113281 15.292969 " fill-opacity="1" fill-rule="nonzero"/><path fill="#01003b" d="M 49.71875 51.5625 L 50.414062 51.5625 L 50.414062 52.609375 L 51.113281 52.609375 C 51.023438 53.195312 51.023438 53.195312 50.761719 54.003906 L 50.109375 54.808594 C 49.246094 55.902344 48.828125 56.894531 48.320312 58.1875 L 47.625 58.1875 C 47.714844 57.371094 47.832031 56.554688 47.972656 55.746094 L 48.671875 55.050781 C 48.804688 54.382812 48.804688 54.382812 48.84375 53.652344 C 48.898438 52.914062 48.898438 52.914062 49.019531 52.257812 Z M 49.71875 51.5625 " fill-opacity="1" fill-rule="nonzero"/><path fill="#040321" d="M 10.648438 7.96875 L 10.996094 7.96875 L 11.125 8.824219 L 11.304688 9.953125 L 11.472656 11.066406 C 11.816406 12.742188 12.359375 13.96875 13.4375 15.292969 L 10.648438 15.640625 Z M 60.179688 81.554688 L 61.226562 81.554688 C 61.667969 82.566406 61.925781 83.226562 61.925781 84.34375 C 61.085938 84.761719 60.546875 84.726562 59.613281 84.714844 L 58.75 84.703125 L 58.089844 84.691406 C 58.410156 84.167969 58.738281 83.644531 59.070312 83.121094 L 59.621094 82.242188 Z M 60.179688 81.554688 " fill-opacity="1" fill-rule="nonzero"/><path fill="#02012b" d="M 60.179688 57.140625 L 60.878906 57.140625 L 60.53125 65.511719 L 59.484375 65.511719 C 59.65625 62.714844 59.839844 59.925781 60.179688 57.140625 " fill-opacity="1" fill-rule="nonzero"/><path fill="#030229" d="M 10.996094 65.859375 L 12.394531 66.558594 L 11.695312 66.558594 C 11.917969 67.578125 11.917969 67.578125 12.394531 68.648438 C 13.261719 69.3125 13.261719 69.3125 14.136719 69.695312 L 13.789062 70.742188 C 11.390625 70.089844 11.390625 70.089844 10.996094 69.695312 C 10.972656 69.050781 10.96875 68.402344 10.976562 67.757812 L 10.984375 66.6875 Z M 10.996094 65.859375 " fill-opacity="1" fill-rule="nonzero"/><path fill="#040321" d="M 47.972656 32.730469 L 49.367188 33.078125 L 49.367188 34.125 L 48.671875 34.125 L 48.910156 35.433594 C 49.007812 36.199219 49.007812 36.199219 49.019531 36.914062 C 48.5625 37.785156 48.5625 37.785156 47.972656 38.308594 L 47.273438 38.308594 C 47.324219 37.640625 47.375 36.972656 47.429688 36.304688 C 47.457031 35.933594 47.484375 35.558594 47.511719 35.175781 C 47.601562 34.320312 47.734375 33.550781 47.972656 32.730469 M 21.8125 5.875 L 23.554688 6.226562 C 23.953125 7.417969 23.9375 8.347656 23.925781 9.601562 L 23.917969 10.851562 L 23.902344 11.804688 L 22.507812 11.457031 L 22.53125 10.5 L 22.550781 9.253906 L 22.578125 8.015625 L 22.507812 6.921875 Z M 17.277344 37.261719 L 17.929688 37.4375 C 18.675781 37.667969 18.675781 37.667969 19.457031 37.460938 L 20.066406 37.261719 C 19.9375 38.289062 19.9375 38.289062 19.71875 39.355469 L 19.019531 39.703125 C 18.15625 39.316406 17.386719 38.804688 16.578125 38.308594 L 16.578125 37.613281 Z M 17.277344 37.261719 " fill-opacity="1" fill-rule="nonzero"/><path fill="#030229" d="M 14.136719 58.535156 L 14.835938 59.234375 L 14.484375 59.929688 C 13.417969 60.148438 13.417969 60.148438 12.394531 60.28125 L 12.242188 61.085938 C 12.042969 62.023438 12.042969 62.023438 11.695312 63.070312 L 10.996094 63.070312 L 10.996094 60.28125 L 11.597656 60.074219 L 12.371094 59.800781 L 13.144531 59.53125 L 13.789062 59.234375 Z M 14.136719 58.535156 " fill-opacity="1" fill-rule="nonzero"/><path fill="#040321" d="M 15.882812 32.730469 L 16.578125 33.078125 L 15.882812 34.820312 L 16.925781 35.867188 L 16.578125 36.566406 L 15.183594 35.519531 L 14.484375 36.214844 L 13.4375 35.867188 C 13.9375 34.75 14.3125 33.925781 15.25 33.121094 Z M 47.625 72.835938 L 49.019531 72.835938 L 48.671875 76.671875 L 47.625 76.324219 Z M 25.996094 51.210938 L 28.789062 51.210938 L 27.390625 51.910156 L 28.089844 53.304688 L 25.996094 53.652344 Z M 40.296875 36.914062 L 44.484375 36.914062 L 44.136719 37.960938 L 42.804688 37.984375 L 42.058594 37.996094 C 41.34375 37.960938 41.34375 37.960938 40.296875 37.613281 Z M 40.296875 36.914062 " fill-opacity="1" fill-rule="nonzero"/><path fill="#030225" d="M 58.089844 70.394531 L 59.136719 70.394531 C 59.054688 70.902344 58.964844 71.410156 58.875 71.917969 L 58.726562 72.777344 L 58.4375 73.53125 L 57.042969 74.230469 Z M 58.089844 70.394531 " fill-opacity="1" fill-rule="nonzero"/><path fill="#02012b" d="M 14.136719 14.246094 L 15.183594 14.246094 L 15.183594 15.292969 L 15.53125 14.59375 L 16.925781 15.292969 L 16.230469 16.339844 C 15.574219 16.207031 15.574219 16.207031 14.835938 15.988281 L 14.136719 15.292969 Z M 14.136719 14.246094 " fill-opacity="1" fill-rule="nonzero"/><path fill="#040321" d="M 24.949219 46.679688 L 25.648438 46.679688 C 26.207031 47.800781 26.015625 48.921875 25.996094 50.167969 L 25.300781 50.167969 C 24.929688 49.402344 24.929688 49.402344 24.601562 48.421875 C 24.734375 47.441406 24.734375 47.441406 24.949219 46.679688 M 58.785156 6.921875 C 59.371094 7.023438 59.953125 7.136719 60.53125 7.269531 L 60.878906 9.015625 C 60.246094 8.925781 60.246094 8.925781 59.484375 8.664062 C 58.875 7.945312 58.875 7.945312 58.4375 7.269531 Z M 58.785156 6.921875 " fill-opacity="1" fill-rule="nonzero"/><path fill="#030229" d="M 36.808594 44.933594 L 37.855469 44.933594 C 37.792969 45.699219 37.792969 45.699219 37.507812 46.679688 C 36.613281 47.660156 36.613281 47.660156 35.765625 48.421875 L 35.765625 47.375 L 36.808594 45.980469 Z M 36.808594 44.933594 " fill-opacity="1" fill-rule="nonzero"/><path fill="#040321" d="M 39.601562 50.863281 L 40.296875 51.210938 C 40.691406 51.933594 40.691406 51.933594 40.996094 52.609375 L 38.207031 52.609375 L 38.554688 51.5625 Z M 17.277344 75.972656 L 17.972656 76.324219 L 17.972656 77.019531 C 17.167969 77.78125 17.167969 77.78125 16.230469 78.414062 L 15.183594 78.066406 Z M 23.554688 37.261719 L 25.300781 37.613281 L 25.300781 38.308594 L 24.601562 38.308594 L 24.253906 39.007812 L 23.207031 38.308594 Z M 23.554688 37.261719 " fill-opacity="1" fill-rule="nonzero"/><path fill="#030229" d="M 20.765625 49.121094 C 21.398438 49.359375 21.398438 49.359375 22.160156 49.816406 C 22.769531 50.734375 22.769531 50.734375 23.207031 51.5625 C 22.574219 51.519531 22.574219 51.519531 21.8125 51.210938 C 21.199219 50.144531 21.199219 50.144531 20.765625 49.121094 " fill-opacity="1" fill-rule="nonzero"/></svg>