<svg xmlns="http://www.w3.org/2000/svg" xmlns:xlink="http://www.w3.org/1999/xlink" width="96" zoomAndPan="magnify" viewBox="0 0 72 89.999999" height="120" preserveAspectRatio="xMidYMid meet" version="1.0"><rect x="-7.2" width="86.4" fill="#ffffff" y="-9" height="107.999999" fill-opacity="1"/><rect x="-7.2" width="86.4" fill="#ffffff" y="-9" height="107.999999" fill-opacity="1"/><path fill="#020010" d="M 62.195312 4.109375 L 64.253906 4.109375 C 63.628906 5.78125 62.765625 7.070312 61.664062 8.460938 L 61.171875 9.09375 C 60.84375 9.511719 60.515625 9.925781 60.179688 10.339844 C 59.851562 10.757812 59.527344 11.179688 59.214844 11.609375 C 58.746094 12.226562 58.746094 12.226562 57.785156 13.242188 C 56.710938 13.605469 56.710938 13.605469 55.621094 13.71875 C 54.945312 13.796875 54.269531 13.886719 53.597656 14.003906 L 52.835938 14.765625 C 52.148438 14.703125 52.148438 14.703125 51.3125 14.527344 C 49.808594 14.320312 48.824219 14.488281 47.414062 15.050781 C 46.117188 15.632812 44.90625 16.296875 43.703125 17.050781 L 42.941406 17.050781 C 43.175781 15.527344 43.929688 14.460938 44.84375 13.242188 L 45.605469 13.242188 L 45.867188 12.410156 C 46.347656 11.378906 46.84375 10.8125 47.667969 10.046875 C 49.007812 8.6875 50.140625 7.132812 51.3125 5.632812 L 49.910156 6.105469 L 49.121094 6.375 C 46.257812 7.714844 44.46875 10.5 42.679688 12.996094 C 42.253906 13.605469 41.832031 14.21875 41.410156 14.835938 C 40.839844 15.644531 40.257812 16.449219 39.664062 17.242188 C 37.265625 20.464844 34.847656 23.722656 33.042969 27.328125 L 32.28125 27.328125 L 32.1875 27.992188 C 31.902344 28.847656 31.902344 28.847656 31.210938 29.515625 C 30.445312 30.300781 30.128906 30.800781 29.675781 31.769531 C 28.910156 33.34375 28.035156 34.816406 27.097656 36.296875 L 26.597656 37.089844 C 25.015625 39.585938 23.390625 42.046875 21.734375 44.496094 C 21.402344 44.980469 21.078125 45.464844 20.75 45.953125 C 18.375 49.492188 15.871094 52.902344 13.265625 56.273438 C 11.824219 58.140625 10.4375 60.042969 9.0625 61.964844 L 7.921875 61.582031 C 7.839844 59.554688 7.773438 57.738281 8.683594 55.875 L 9.574219 55.171875 C 10.628906 54.316406 11.289062 53.488281 12.0625 52.378906 L 12.847656 51.269531 L 13.632812 50.164062 C 14.109375 49.503906 14.59375 48.84375 15.082031 48.191406 L 15.710938 47.339844 L 16.296875 46.738281 L 17.4375 46.738281 L 17.820312 44.835938 L 18.578125 44.835938 L 18.578125 43.695312 L 19.339844 43.695312 L 19.460938 43.003906 C 19.722656 42.171875 19.722656 42.171875 20.238281 41.6875 C 21.335938 40.53125 21.867188 39.035156 22.539062 37.605469 C 23.148438 36.460938 23.839844 35.550781 24.671875 34.558594 C 25.894531 32.859375 26.964844 31.128906 27.90625 29.253906 C 29.160156 26.898438 30.785156 24.886719 32.4375 22.804688 C 34.050781 20.765625 35.605469 18.691406 37.113281 16.574219 C 39.058594 13.847656 41.039062 11.152344 43.195312 8.585938 C 43.738281 7.902344 43.738281 7.902344 44.191406 7.015625 C 44.835938 5.945312 45.371094 5.25 46.367188 4.488281 C 48.476562 4.003906 50.535156 4.042969 52.695312 4.085938 C 53.261719 4.082031 53.832031 4.082031 54.402344 4.078125 C 55.777344 4.070312 57.152344 4.082031 58.527344 4.101562 C 59.75 4.113281 60.972656 4.113281 62.195312 4.109375 M 59.308594 4.871094 C 58.816406 5.433594 58.328125 6 57.875 6.59375 C 57.296875 7.277344 56.714844 7.605469 55.882812 7.914062 L 55.882812 8.675781 L 53.21875 9.058594 L 53.21875 10.578125 L 52.074219 10.960938 L 52.074219 12.101562 L 53.976562 12.101562 L 53.976562 11.339844 L 54.667969 11.269531 L 55.5 10.960938 C 56.175781 10.015625 56.175781 10.015625 56.640625 9.058594 L 59.308594 9.4375 L 59.425781 8.152344 L 59.6875 6.773438 L 60.828125 6.011719 L 60.828125 4.871094 Z M 59.308594 4.871094 " fill-opacity="1" fill-rule="nonzero"/><path fill="#020010" d="M 53.597656 18.191406 C 53.453125 19.179688 53.144531 19.839844 52.644531 20.714844 C 51.695312 21.617188 51.695312 21.617188 50.9375 21.839844 C 50.351562 21.949219 49.761719 22.054688 49.171875 22.15625 C 47.242188 22.628906 45.746094 23.824219 44.273438 25.113281 C 41.089844 28.691406 38.488281 32.4375 36.230469 36.652344 C 35.171875 38.585938 33.875 40.320312 32.546875 42.070312 C 30.367188 44.976562 28.265625 47.941406 26.191406 50.925781 L 25.050781 50.546875 L 25.050781 49.785156 L 24.289062 49.785156 L 24.257812 50.441406 C 24.050781 52.179688 23.664062 53.382812 22.695312 54.863281 C 21.902344 55.917969 21.074219 56.945312 20.21875 57.949219 C 19.875 58.359375 19.535156 58.773438 19.199219 59.195312 C 18.757812 59.75 18.289062 60.289062 17.820312 60.820312 L 17.058594 60.820312 L 16.980469 61.648438 C 16.585938 63.046875 15.90625 63.6875 14.894531 64.722656 C 13.390625 66.304688 12.152344 67.871094 11.027344 69.734375 L 10.585938 70.335938 L 9.824219 70.335938 L 8.683594 74.144531 L 7.921875 74.144531 C 7.648438 72.429688 7.601562 70.90625 7.921875 69.195312 C 8.617188 68.203125 9.371094 67.402344 10.242188 66.566406 C 12.378906 64.480469 13.910156 62.050781 15.519531 59.546875 C 16.777344 57.601562 18.085938 55.746094 19.542969 53.945312 C 20.175781 53.113281 20.644531 52.226562 21.136719 51.3125 C 22.539062 49.113281 24.40625 47.132812 26.132812 45.183594 C 27.203125 43.976562 28.0625 42.804688 28.832031 41.367188 C 29.480469 40.21875 30.246094 39.148438 31 38.066406 C 31.550781 37.171875 31.914062 36.300781 32.28125 35.320312 C 33.878906 31.488281 33.878906 31.488281 34.945312 30.371094 L 35.707031 30.371094 L 35.328125 28.847656 L 36.066406 28.589844 L 36.851562 28.089844 C 36.992188 27.457031 37.113281 26.820312 37.230469 26.183594 C 38.03125 24.824219 38.574219 24.019531 39.894531 23.140625 L 39.132812 22.757812 L 39.515625 21.238281 L 40.726562 21.164062 C 43.347656 20.851562 45.921875 19.746094 48.269531 18.574219 C 48.957031 18.484375 49.648438 18.417969 50.339844 18.359375 L 51.453125 18.261719 C 52.167969 18.214844 52.882812 18.191406 53.597656 18.191406 M 49.03125 57.777344 L 49.792969 57.777344 C 50.601562 58.871094 50.601562 58.871094 51.3125 60.0625 L 51.3125 60.820312 L 52.074219 60.820312 C 52.566406 61.363281 52.566406 61.363281 53.074219 62.082031 L 53.589844 62.792969 C 53.976562 63.484375 53.976562 63.484375 53.976562 64.628906 L 54.738281 64.628906 C 55.410156 65.527344 56.054688 66.449219 56.667969 67.386719 L 57.195312 68.175781 C 58.011719 69.40625 58.628906 70.398438 58.925781 71.859375 L 59.6875 71.859375 C 60.519531 72.742188 60.519531 72.742188 61.210938 73.761719 L 60.828125 74.90625 C 60.203125 75.300781 59.570312 75.679688 58.925781 76.046875 C 57.933594 76.835938 56.964844 77.648438 55.996094 78.464844 L 55.121094 79.09375 L 53.976562 79.09375 L 53.976562 79.851562 C 53.253906 80.402344 53.253906 80.402344 52.3125 80.996094 C 51.371094 81.59375 50.582031 82.109375 49.792969 82.898438 C 48.867188 82.859375 48.867188 82.859375 47.886719 82.515625 C 47.230469 81.757812 47.230469 81.757812 46.675781 80.828125 C 46.097656 79.882812 45.628906 79.117188 44.84375 78.332031 L 44.84375 77.1875 L 45.507812 77.117188 L 46.367188 76.808594 L 47.007812 75.878906 L 47.886719 74.90625 C 48.640625 74.691406 48.640625 74.691406 49.503906 74.546875 C 50.96875 74.304688 51.835938 73.867188 53.003906 72.953125 L 53.738281 72.332031 L 54.359375 71.859375 L 55.121094 71.859375 L 55.121094 70.71875 L 52.835938 69.957031 L 52.835938 70.71875 L 51.3125 70.71875 L 51.3125 69.957031 L 47.886719 70.71875 L 47.886719 69.957031 C 48.261719 69.570312 48.640625 69.1875 49.03125 68.816406 L 49.410156 68.054688 L 48.101562 68.269531 L 46.746094 68.433594 L 46.367188 68.054688 C 46.230469 62 46.230469 62 47.253906 59.664062 C 47.804688 58.925781 48.289062 58.320312 49.03125 57.777344 M 23.148438 8.296875 L 23.910156 8.296875 C 24.128906 10.46875 24.265625 12.4375 23.367188 14.46875 C 22.902344 15.242188 22.421875 16.003906 21.929688 16.757812 C 21.328125 17.679688 20.894531 18.53125 20.484375 19.546875 C 18.898438 23.242188 16.382812 26.351562 13.929688 29.5 C 12.476562 31.371094 11.1875 33.261719 10.003906 35.320312 C 9.378906 36.175781 8.871094 36.410156 7.921875 36.84375 C 7.484375 30.179688 7.484375 30.179688 8.476562 28.027344 C 9.136719 27.21875 9.835938 26.527344 10.585938 25.804688 C 10.980469 25.179688 11.363281 24.542969 11.730469 23.902344 C 12.171875 23.222656 12.625 22.546875 13.085938 21.878906 L 13.777344 20.859375 L 14.394531 20.09375 L 15.15625 20.09375 L 15.457031 19.246094 C 15.917969 18.1875 16.425781 17.460938 17.152344 16.574219 C 18.074219 15.421875 18.9375 14.265625 19.746094 13.03125 C 20.507812 11.871094 21.285156 10.726562 22.101562 9.605469 L 22.652344 8.839844 Z M 23.148438 20.855469 L 23.910156 20.855469 C 24.34375 28.449219 24.34375 28.449219 23.394531 30.976562 C 22.730469 31.972656 22.007812 32.875 21.246094 33.796875 C 20.863281 34.480469 20.5 35.167969 20.148438 35.867188 C 18.867188 38.269531 17.328125 40.5 15.535156 42.550781 L 14.773438 42.550781 L 14.464844 43.21875 C 14 44.097656 13.515625 44.84375 12.871094 45.597656 L 12.109375 45.597656 L 11.824219 46.246094 C 11.265625 47.269531 10.597656 48.058594 9.824219 48.925781 L 9.015625 49.847656 L 8.304688 50.546875 L 7.542969 50.546875 C 7.324219 49.875 7.324219 49.875 7.160156 49.023438 C 7.816406 46.832031 8.742188 45.171875 10.109375 43.359375 L 11.144531 41.949219 C 11.691406 41.210938 12.238281 40.476562 12.789062 39.742188 C 17.023438 33.933594 20.175781 27.371094 23.148438 20.855469 M 39.515625 43.3125 C 40.132812 44.003906 40.132812 44.003906 40.65625 44.835938 L 40.65625 45.976562 L 41.417969 45.976562 L 41.417969 47.121094 L 42.179688 47.121094 C 41.621094 48.289062 40.984375 49.367188 40.277344 50.449219 L 39.679688 51.371094 C 39.5 51.601562 39.320312 51.832031 39.132812 52.066406 L 38.371094 52.066406 L 38.0625 52.898438 C 37.609375 53.96875 37.609375 53.96875 37.015625 54.945312 C 36.519531 55.789062 36.265625 56.441406 36.089844 57.394531 L 35.328125 57.394531 L 35.207031 58.394531 C 34.933594 59.742188 34.460938 60.761719 33.804688 61.964844 L 33.042969 61.964844 C 32.164062 60.933594 31.441406 59.78125 30.6875 58.65625 L 30.027344 57.714844 L 29.410156 56.796875 L 28.839844 55.957031 C 28.476562 55.113281 28.476562 55.113281 28.582031 54.105469 C 29.035156 52.617188 29.839844 51.40625 30.757812 50.164062 C 31.59375 49.402344 31.59375 49.402344 32.28125 49.023438 L 33.042969 49.023438 L 33.042969 49.785156 L 33.804688 49.785156 L 33.804688 50.546875 L 34.945312 50.546875 L 35.089844 49.925781 C 35.375 48.847656 35.726562 47.796875 36.089844 46.738281 L 37.609375 46.738281 L 37.230469 43.695312 C 38.019531 43.484375 38.695312 43.3125 39.515625 43.3125 M 43.703125 50.546875 L 44.84375 50.546875 C 45.382812 51.074219 45.382812 51.074219 45.890625 51.78125 L 46.40625 52.476562 L 46.746094 53.210938 C 46.613281 54.4375 46.042969 55.414062 45.460938 56.492188 C 44.636719 58.105469 44.058594 59.675781 43.582031 61.421875 C 43.332031 62.300781 43.027344 63.132812 42.703125 63.984375 C 42.058594 65.851562 41.976562 67.71875 41.878906 69.683594 C 41.796875 70.71875 41.796875 70.71875 41.417969 71.480469 C 40.539062 71.378906 40.539062 71.378906 39.515625 71.097656 C 38.878906 70.460938 38.878906 70.460938 38.328125 69.644531 L 37.722656 68.765625 L 37.113281 67.839844 L 36.476562 66.910156 C 35.960938 66.152344 35.453125 65.390625 34.945312 64.628906 C 36.699219 61.027344 39.007812 57.75 41.242188 54.433594 L 41.707031 53.734375 L 42.15625 53.074219 C 42.519531 52.507812 42.847656 51.917969 43.171875 51.328125 Z M 22.386719 4.109375 L 22.386719 4.871094 L 21.089844 6.125 C 19.261719 8.082031 17.8125 10.421875 16.28125 12.617188 L 15.667969 13.488281 C 15.269531 14.0625 14.871094 14.632812 14.472656 15.207031 C 12.539062 17.980469 12.539062 17.980469 11.347656 18.953125 L 10.207031 18.953125 L 10.085938 19.621094 C 9.789062 20.597656 9.328125 21.214844 8.683594 22 L 7.542969 21.617188 C 7.4375 16.453125 7.4375 16.453125 8.574219 14.285156 C 9.335938 13.269531 10.140625 12.304688 10.96875 11.339844 C 11.414062 10.648438 11.414062 10.648438 11.753906 9.984375 C 12.808594 8.113281 14.003906 6.019531 15.535156 4.488281 C 16.472656 4.398438 17.402344 4.328125 18.34375 4.277344 L 19.132812 4.226562 C 20.21875 4.160156 21.296875 4.109375 22.386719 4.109375 M 23.148438 61.964844 L 23.910156 61.964844 L 23.910156 65.390625 L 22.386719 66.152344 C 21.984375 66.835938 21.984375 66.835938 21.625 67.671875 C 20.957031 68.679688 20.265625 69.667969 19.574219 70.660156 L 18.644531 71.980469 C 18.230469 72.578125 17.824219 73.175781 17.421875 73.777344 L 16.722656 74.808594 L 16.109375 75.730469 L 15.535156 76.425781 L 14.394531 76.808594 C 14.113281 77.574219 14.113281 77.574219 14.011719 78.332031 L 13.25 78.332031 L 13.25 77.570312 L 12.488281 77.570312 L 12.15625 78.640625 C 11.730469 79.851562 11.730469 79.851562 10.96875 80.996094 C 10.464844 81.253906 9.957031 81.507812 9.445312 81.757812 L 9.0625 82.515625 L 7.921875 82.136719 C 7.828125 81.28125 7.828125 81.28125 7.921875 80.234375 C 8.613281 79.355469 8.613281 79.355469 9.445312 78.710938 L 10.585938 78.710938 L 10.585938 77.1875 L 11.347656 77.1875 L 11.472656 76.519531 C 11.761719 75.558594 12.152344 74.996094 12.769531 74.210938 L 13.410156 73.382812 C 13.632812 73.097656 13.855469 72.816406 14.082031 72.527344 L 15.382812 70.855469 L 16.035156 70.023438 C 16.847656 68.96875 17.648438 67.910156 18.4375 66.839844 C 19.828125 65.003906 21.242188 63.285156 23.148438 61.964844 M 62.707031 77.261719 L 63.492188 77.570312 L 63.492188 78.710938 L 62.78125 78.804688 L 61.972656 79.09375 L 61.613281 79.804688 C 61.210938 80.613281 61.210938 80.613281 60.210938 81.28125 L 59.308594 81.757812 C 60.464844 82.335938 61.453125 82.199219 62.734375 82.136719 C 63.949219 81.804688 63.949219 81.804688 65.015625 81.375 L 66.15625 80.996094 C 66.6875 81.742188 67.195312 82.503906 67.679688 83.277344 L 67.679688 84.421875 L 68.441406 84.421875 L 68.441406 85.183594 L 67.65625 84.992188 C 65.9375 84.699219 64.394531 84.628906 62.734375 85.183594 C 61.972656 85.214844 61.214844 85.222656 60.457031 85.21875 L 59.113281 85.214844 L 57.714844 85.207031 L 56.296875 85.199219 C 55.144531 85.195312 53.992188 85.191406 52.835938 85.183594 C 53.527344 83.648438 54.109375 82.605469 55.476562 81.613281 L 56.25 81.035156 C 57.023438 80.613281 57.023438 80.613281 58.546875 80.613281 L 58.660156 79.921875 C 58.925781 79.09375 58.925781 79.09375 59.480469 78.511719 C 61.34375 77.171875 61.34375 77.171875 62.707031 77.261719 M 57.402344 82.515625 L 57.023438 83.277344 L 58.925781 83.277344 L 58.546875 82.515625 Z M 54.359375 83.660156 L 54.359375 84.421875 L 56.261719 84.421875 L 56.261719 83.660156 Z M 23.148438 74.144531 L 23.910156 74.144531 C 24.183594 76.339844 24.40625 78.542969 23.609375 80.644531 C 22.707031 82.445312 21.632812 83.871094 20.101562 85.183594 C 18.484375 85.605469 17.160156 85.535156 15.535156 85.183594 C 16.128906 83.628906 16.820312 82.335938 17.820312 80.996094 L 18.578125 80.996094 L 18.867188 80.136719 C 19.390625 78.980469 19.964844 78.464844 20.863281 77.570312 C 21.46875 76.671875 22.058594 75.761719 22.628906 74.839844 Z M 23.148438 74.144531 " fill-opacity="1" fill-rule="nonzero"/><path fill="#020010" d="M 46.367188 27.328125 L 47.125 27.328125 C 46.351562 28.957031 45.335938 30.347656 44.273438 31.800781 L 43.695312 32.605469 L 43.140625 33.363281 L 42.636719 34.058594 L 42.179688 34.558594 L 41.417969 34.558594 C 42 32.792969 42.964844 31.523438 44.105469 30.085938 L 44.636719 29.40625 C 45.898438 27.796875 45.898438 27.796875 46.367188 27.328125 M 10.207031 4.109375 L 9.824219 5.25 L 7.542969 5.632812 L 7.921875 4.488281 C 8.722656 4.207031 9.359375 4.109375 10.207031 4.109375 M 8.683594 8.296875 L 9.445312 8.296875 L 8.683594 10.199219 L 7.921875 10.199219 C 8.039062 9.6875 8.164062 9.179688 8.304688 8.675781 Z M 8.683594 8.296875 " fill-opacity="1" fill-rule="nonzero"/></svg>