<svg xmlns="http://www.w3.org/2000/svg" xmlns:xlink="http://www.w3.org/1999/xlink" width="96" zoomAndPan="magnify" viewBox="0 0 72 89.999999" height="120" preserveAspectRatio="xMidYMid meet" version="1.0"><rect x="-7.2" width="86.4" fill="#ffffff" y="-9" height="107.999999" fill-opacity="1"/><rect x="-7.2" width="86.4" fill="#ffffff" y="-9" height="107.999999" fill-opacity="1"/><path fill="#f3f2f7" d="M 35.625 10.078125 L 35.625 10.660156 L 34.753906 11.238281 C 34.5 11.78125 34.5 11.78125 34.335938 12.417969 C 33.910156 13.804688 33.429688 15.183594 32.722656 16.457031 L 32.144531 16.75 C 32.003906 17.214844 31.871094 17.679688 31.75 18.152344 C 31.464844 19.125 31.066406 20.050781 30.679688 20.988281 C 30.359375 21.789062 30.085938 22.597656 29.824219 23.417969 L 29.246094 23.417969 L 29.246094 24.289062 L 28.664062 24.289062 L 28.085938 26.027344 L 28.679688 25.785156 L 29.460938 25.46875 L 30.238281 25.152344 C 30.859375 24.914062 31.496094 24.722656 32.144531 24.578125 L 32.144531 24 L 32.722656 24 L 32.84375 23.445312 C 33.125 22.320312 33.371094 21.378906 34.105469 20.460938 L 34.664062 19.882812 C 35.207031 19.339844 35.207031 19.339844 35.625 18.777344 L 35.625 17.816406 C 35.625 16.75 35.625 16.75 36.015625 16.003906 C 36.375 15.457031 36.738281 14.910156 37.105469 14.371094 C 37.847656 13.269531 38.46875 12.117188 39.101562 10.949219 L 41.710938 10.949219 C 41.421875 12.109375 41.046875 12.742188 40.394531 13.707031 C 39.054688 16.003906 38.519531 18.21875 38.136719 20.828125 C 38.015625 21.527344 37.894531 22.171875 37.652344 22.839844 C 36.890625 23.449219 36.890625 23.449219 36.203125 23.707031 C 36.53125 24.304688 36.53125 24.304688 37.074219 24.867188 C 37.84375 25.09375 37.84375 25.09375 38.6875 25.121094 L 39.539062 25.191406 L 40.261719 25.160156 C 40.992188 24.425781 41.125 23.828125 41.421875 22.839844 L 41.675781 21.75 L 42 20.808594 C 42.601562 20.484375 42.601562 20.484375 43.160156 20.230469 C 43.410156 19.417969 43.453125 18.757812 43.453125 17.910156 L 44.320312 17.910156 L 44.105469 17.003906 L 44.03125 15.878906 C 44.574219 14.992188 44.574219 14.992188 45.191406 14.140625 C 45.417969 13.203125 45.417969 13.203125 45.480469 12.398438 C 45.953125 12.480469 46.421875 12.566406 46.894531 12.652344 L 47.6875 12.796875 L 48.378906 12.980469 L 48.960938 13.558594 C 49.152344 14.410156 49.152344 14.410156 49.304688 15.425781 L 49.460938 16.441406 C 49.539062 17.328125 49.539062 17.328125 49.25 18.199219 L 48.703125 18.273438 L 48.089844 18.488281 C 47.761719 19.140625 47.476562 19.808594 47.238281 20.5 C 47.089844 20.898438 46.945312 21.296875 46.792969 21.691406 L 46.574219 22.285156 C 46.171875 23.28125 45.65625 24.210938 45.128906 25.144531 C 44.855469 25.726562 44.855469 25.726562 44.945312 26.347656 C 45.15625 26.929688 45.15625 26.929688 45.664062 27.308594 L 46.222656 27.660156 C 46.785156 28.015625 46.785156 28.015625 47.21875 28.347656 L 47.21875 28.929688 L 47.726562 29.054688 L 49.539062 29.507812 L 49.269531 28.585938 C 48.617188 26.25 48.617188 26.25 48.84375 25.292969 C 49.328125 24.097656 49.679688 23.269531 50.625 22.367188 L 51.277344 21.96875 C 51.003906 20.996094 50.730469 20.027344 50.410156 19.070312 L 51.042969 18.886719 C 52.128906 18.359375 52.582031 17.703125 53.308594 16.75 C 54.074219 16.867188 54.476562 17.042969 55.097656 17.523438 L 55.71875 18.125 C 55.925781 18.320312 56.136719 18.519531 56.347656 18.71875 L 56.789062 19.359375 C 56.734375 20.070312 56.734375 20.070312 56.496094 20.808594 L 56.308594 21.523438 C 56 22.582031 55.703125 23.5625 55.191406 24.542969 C 54.769531 25.425781 54.5625 26.199219 54.339844 27.152344 C 54.089844 28.21875 53.824219 29.15625 53.308594 30.125 C 52.265625 32.039062 52.265625 32.039062 51.859375 34.148438 C 52.300781 34.886719 52.78125 35.398438 53.414062 35.976562 L 53.886719 36.46875 L 53.886719 37.339844 C 54.445312 37.175781 54.445312 37.175781 55.046875 36.757812 C 55.609375 35.886719 55.609375 35.886719 56.097656 34.875 C 57.03125 33.035156 57.03125 33.035156 57.65625 32.410156 L 57.65625 31.539062 L 56.859375 31.863281 L 55.917969 32.117188 C 55.265625 31.847656 55.265625 31.847656 54.757812 31.539062 L 54.179688 31.828125 C 54.085938 31.050781 54.085938 31.050781 54.179688 30.089844 C 54.8125 29.363281 54.8125 29.363281 55.628906 28.640625 C 56.605469 27.554688 56.605469 27.554688 57.367188 26.320312 C 57.851562 26.007812 57.851562 26.007812 58.453125 25.703125 L 59.046875 25.390625 C 59.820312 25.109375 60.320312 25.027344 61.136719 25.160156 C 61.945312 26 62.445312 26.980469 62.875 28.058594 C 62.96875 29.203125 62.65625 30.164062 62.296875 31.25 L 61.136719 30.957031 L 60.265625 32.699219 L 61.714844 33.277344 C 61.570312 34.972656 60.863281 36.238281 60.066406 37.699219 L 59.671875 38.445312 C 58.984375 39.726562 58.265625 40.972656 57.476562 42.195312 C 57.070312 42.84375 56.808594 43.296875 56.683594 44.050781 C 56.664062 44.671875 56.664062 44.671875 56.789062 45.457031 L 55.917969 45.75 C 55.609375 46.269531 55.609375 46.269531 55.339844 46.910156 C 55.050781 47.394531 54.761719 47.878906 54.46875 48.359375 L 55.628906 48.359375 C 56.042969 49.191406 56.027344 49.929688 56.023438 50.851562 C 55.90625 51.636719 55.679688 52.078125 55.230469 52.726562 L 54.46875 53.578125 L 53.886719 53.578125 L 53.652344 54.050781 C 53.308594 54.738281 53.308594 54.738281 52.820312 55.5 C 52.351562 56.707031 52.460938 57.542969 52.636719 58.804688 L 52.730469 59.378906 L 52.148438 59.378906 L 52.160156 60.089844 C 52.160156 60.398438 52.164062 60.707031 52.167969 61.027344 L 52.175781 61.957031 C 52.152344 62.78125 52.023438 63.503906 51.859375 64.308594 L 52.003906 65.140625 C 52.171875 66.191406 52.007812 67.03125 51.859375 68.078125 L 52.023438 68.828125 C 52.199219 70.195312 51.96875 71.390625 51.714844 72.738281 L 51.59375 73.515625 C 51.453125 74.265625 51.296875 74.917969 50.988281 75.617188 C 50.035156 76.609375 48.820312 77.246094 47.511719 77.648438 L 46.640625 77.648438 C 46.601562 76.855469 46.566406 76.117188 46.640625 75.328125 C 46.917969 74.835938 47.207031 74.355469 47.511719 73.878906 C 48.105469 72 48.242188 70.035156 48.378906 68.078125 L 47.511719 68.367188 L 47.382812 68.929688 L 47.21875 69.527344 L 46.660156 69.800781 C 46.460938 69.902344 46.265625 70.003906 46.0625 70.109375 C 45.6875 70.84375 45.6875 70.84375 45.480469 71.558594 C 45.058594 71.261719 45.058594 71.261719 44.609375 70.6875 C 44.503906 69.949219 44.4375 69.207031 44.410156 68.460938 L 44.382812 67.84375 C 44.359375 67.339844 44.339844 66.839844 44.320312 66.339844 L 43.742188 66.339844 L 43.570312 67.101562 L 43.34375 68.113281 L 43.117188 69.113281 C 42.871094 70.109375 42.871094 70.109375 42.554688 71.027344 C 42.191406 72.15625 42.214844 72.984375 42.292969 74.167969 L 42.871094 75.039062 C 43.257812 76.125 43.484375 77.078125 43.34375 78.230469 L 43.160156 78.808594 L 42.546875 78.796875 L 41.746094 78.789062 L 40.953125 78.78125 C 40.257812 78.761719 40.257812 78.761719 39.683594 79.097656 C 38.292969 76.355469 38.292969 76.355469 38.085938 74.859375 C 38.417969 72.625 39.160156 71.007812 40.550781 69.238281 L 40.316406 68.765625 C 40.046875 68.230469 39.785156 67.691406 39.519531 67.15625 C 39.179688 66.386719 39.179688 66.386719 38.8125 66.046875 C 38.371094 66.027344 37.929688 66.023438 37.488281 66.03125 L 36.765625 66.039062 L 36.203125 66.046875 L 36.148438 66.972656 C 35.914062 68.078125 35.914062 68.078125 35.207031 68.894531 L 34.464844 69.527344 L 33.882812 70.109375 L 34.300781 70.90625 C 34.949219 72.257812 34.949219 72.257812 35.042969 73.007812 L 34.871094 73.804688 C 34.703125 75.164062 35.113281 76.148438 35.566406 77.417969 C 35.949219 78.308594 36.386719 78.992188 37.074219 79.679688 C 36.230469 79.929688 35.589844 79.980469 34.722656 79.871094 L 34.058594 79.789062 L 33.375 79.695312 L 32.679688 79.609375 C 32.113281 79.539062 31.550781 79.464844 30.984375 79.386719 L 30.984375 78.519531 L 30.972656 77.765625 C 30.972656 77.488281 30.96875 77.210938 30.964844 76.921875 L 30.957031 76.082031 C 30.984375 75.328125 30.984375 75.328125 31.273438 74.457031 L 30.695312 74.078125 C 30.113281 73.296875 30.113281 73.296875 29.988281 72.582031 C 29.949219 71.722656 29.96875 70.957031 30.113281 70.109375 C 30.441406 69.53125 30.808594 69.074219 31.242188 68.574219 C 31.609375 68.085938 31.609375 68.085938 31.660156 67.441406 C 31.65625 66.878906 31.613281 66.316406 31.566406 65.757812 L 28.664062 65.46875 C 28.066406 66.566406 28.066406 66.566406 27.832031 67.589844 C 27.539062 68.550781 27.15625 69.300781 26.644531 70.160156 C 26.140625 71.058594 25.6875 71.996094 25.476562 73.007812 C 25.550781 73.917969 25.742188 74.421875 26.238281 75.195312 L 27.363281 76.660156 L 27.796875 77.359375 L 27.796875 78.519531 C 25.96875 78.355469 24.234375 77.867188 22.578125 77.070312 C 21.890625 76.039062 21.847656 75.429688 21.757812 74.222656 C 21.585938 71.03125 21.628906 68.234375 22.453125 65.132812 C 22.847656 63.636719 22.921875 62.363281 22.867188 60.828125 L 23.445312 60.25 C 23.230469 59.699219 23.015625 59.148438 22.792969 58.597656 L 22.425781 57.671875 C 21.996094 56.761719 21.496094 56.074219 20.835938 55.320312 L 20.730469 56.242188 C 20.546875 57.347656 20.546875 57.347656 20.238281 57.980469 C 19.789062 59.335938 20.046875 60.675781 20.175781 62.082031 C 20.261719 63.140625 20.269531 63.96875 20.035156 65.019531 L 19.679688 65.757812 C 18.773438 66.300781 18.773438 66.300781 17.9375 66.628906 C 18.320312 67.628906 18.320312 67.628906 18.828125 68.566406 C 19.214844 69.53125 19.160156 70.464844 19.132812 71.484375 L 19.125 72.097656 C 19.121094 72.597656 19.109375 73.09375 19.097656 73.589844 C 18.582031 73.773438 18.582031 73.773438 17.9375 73.878906 C 15.816406 72.894531 14.21875 70.675781 12.71875 68.949219 C 14.003906 67.558594 14.003906 67.558594 14.839844 67.261719 L 15.328125 67.207031 L 15.265625 66.203125 L 15.183594 64.871094 L 15.140625 64.210938 C 15.105469 63.566406 15.070312 62.921875 15.039062 62.277344 L 14.988281 61.261719 C 15.050781 60 15.339844 58.882812 15.691406 57.675781 L 15.890625 56.972656 C 16.230469 55.796875 16.601562 54.683594 17.140625 53.578125 C 17.671875 52.464844 17.921875 51.414062 18.007812 50.183594 C 17.984375 49.515625 17.984375 49.515625 17.640625 49 C 17.269531 48.582031 16.878906 48.179688 16.488281 47.777344 C 16.023438 46.511719 16.289062 45.316406 16.488281 44.007812 C 15.296875 45.074219 14.710938 46.144531 14.210938 47.660156 C 13.867188 48.828125 13.589844 49.84375 13.59375 51.074219 C 13.589844 52.222656 13.402344 53.277344 13.15625 54.394531 C 12.84375 55.714844 12.84375 55.714844 12.71875 57.058594 L 11.851562 57.347656 C 11.5 57.929688 11.5 57.929688 11.269531 58.507812 L 10.691406 58.507812 L 10.980469 59.269531 C 11.269531 60.25 11.335938 60.972656 11.269531 61.988281 L 11.089844 62.605469 L 10.980469 63.148438 C 11.230469 63.792969 11.230469 63.792969 11.558594 64.308594 L 10.691406 64.308594 L 10.691406 65.179688 C 10.15625 64.96875 10.15625 64.96875 9.53125 64.597656 C 8.316406 62.796875 7.5625 60.574219 6.921875 58.507812 L 6.921875 57.929688 L 7.792969 57.347656 C 8.132812 56.421875 8.132812 56.421875 8.390625 55.355469 C 8.6875 54.203125 8.984375 53.183594 9.53125 52.128906 C 10.015625 50.507812 10.128906 48.976562 10.074219 47.289062 C 10.054688 46.355469 10.042969 45.644531 10.367188 44.769531 C 10.691406 44.207031 10.691406 44.207031 11.269531 43.429688 L 11.851562 43.429688 L 12.121094 42.59375 C 12.429688 41.6875 12.429688 41.6875 12.71875 41.109375 L 13.300781 41.109375 L 13.34375 40.378906 L 13.410156 39.421875 C 13.429688 39.109375 13.449219 38.796875 13.46875 38.476562 C 13.589844 37.628906 13.589844 37.628906 14.167969 36.757812 C 14.257812 36.136719 14.257812 36.136719 14.277344 35.453125 C 14.441406 33.484375 15.148438 31.78125 15.914062 29.976562 C 16.464844 28.65625 16.917969 27.304688 17.269531 25.921875 C 17.488281 25.085938 17.710938 24.25 17.9375 23.417969 L 18.199219 22.460938 C 18.5 21.375 18.8125 20.292969 19.132812 19.214844 L 19.425781 18.144531 C 19.84375 16.757812 20.183594 15.652344 21.234375 14.628906 C 21.941406 14.125 22.679688 13.671875 23.445312 13.269531 L 24.144531 12.890625 C 24.679688 12.617188 25.222656 12.359375 25.765625 12.109375 C 25.957031 12.625 25.957031 12.625 26.054688 13.269531 C 25.765625 13.765625 25.765625 13.765625 25.3125 14.285156 C 23.527344 16.523438 22.484375 18.976562 21.894531 21.769531 C 21.707031 22.554688 21.429688 23.25 21.128906 24 C 21.015625 24.429688 20.910156 24.867188 20.820312 25.304688 L 20.675781 25.984375 L 20.546875 26.609375 L 20.347656 27.460938 L 20.257812 28.058594 L 20.546875 28.640625 C 21.039062 28.894531 21.039062 28.894531 21.707031 28.929688 C 22.746094 28.824219 22.746094 28.824219 23.738281 28.347656 C 24.242188 27.636719 24.566406 27.101562 24.894531 26.320312 L 25.277344 25.414062 C 25.492188 24.511719 25.398438 24.015625 25.1875 23.128906 C 25.222656 22.496094 25.222656 22.496094 25.476562 21.96875 L 26.183594 21.714844 L 26.925781 21.390625 C 27.371094 20.460938 27.503906 19.773438 27.503906 18.742188 C 27.503906 17.910156 27.503906 17.910156 27.796875 17.21875 L 28.085938 16.75 L 28.664062 16.75 L 28.375 15.589844 C 29.152344 15.105469 29.824219 14.71875 30.695312 14.429688 C 31.015625 13.851562 31.015625 13.851562 31.21875 13.160156 L 31.460938 12.464844 L 31.566406 11.820312 L 30.984375 10.949219 C 32.519531 10.386719 33.988281 10.078125 35.625 10.078125 M 17.9375 34.4375 L 16.777344 35.597656 L 17.070312 36.179688 L 18.226562 35.886719 L 18.519531 34.730469 Z M 53.886719 37.628906 L 53.886719 38.789062 L 54.757812 38.789062 L 54.757812 37.628906 Z M 47.21875 62.570312 C 46.429688 63.109375 45.875 63.550781 45.390625 64.382812 L 45.191406 64.886719 C 45.691406 65.511719 45.691406 65.511719 46.351562 66.046875 C 46.65625 66.058594 46.65625 66.058594 46.964844 66.066406 L 47.511719 65.757812 C 47.992188 64.917969 48.089844 64.320312 48.125 63.347656 L 48.089844 62.570312 Z M 47.21875 62.570312 " fill-opacity="1" fill-rule="nonzero"/><path fill="#02023e" d="M 61.136719 25.160156 C 61.945312 26 62.445312 26.980469 62.875 28.058594 C 62.96875 29.203125 62.65625 30.164062 62.296875 31.25 L 61.136719 30.957031 L 60.265625 32.699219 L 61.714844 33.277344 C 61.570312 34.972656 60.863281 36.238281 60.066406 37.699219 L 59.671875 38.445312 C 58.984375 39.726562 58.265625 40.972656 57.476562 42.195312 C 57.070312 42.84375 56.808594 43.296875 56.683594 44.050781 C 56.664062 44.671875 56.664062 44.671875 56.789062 45.457031 L 55.917969 45.75 C 55.609375 46.269531 55.609375 46.269531 55.339844 46.910156 C 55.050781 47.394531 54.761719 47.878906 54.46875 48.359375 L 55.628906 48.359375 C 56.042969 49.191406 56.027344 49.929688 56.023438 50.851562 C 55.90625 51.636719 55.679688 52.078125 55.230469 52.726562 L 54.46875 53.578125 L 53.886719 53.578125 L 53.652344 54.050781 C 53.308594 54.738281 53.308594 54.738281 52.820312 55.5 C 52.351562 56.707031 52.460938 57.542969 52.636719 58.804688 L 52.730469 59.378906 L 52.148438 59.378906 L 52.160156 60.089844 C 52.160156 60.398438 52.164062 60.707031 52.167969 61.027344 L 52.175781 61.957031 C 52.152344 62.78125 52.023438 63.503906 51.859375 64.308594 L 52.003906 65.140625 C 52.171875 66.191406 52.007812 67.03125 51.859375 68.078125 L 52.023438 68.828125 C 52.199219 70.195312 51.96875 71.390625 51.714844 72.738281 L 51.59375 73.515625 C 51.453125 74.265625 51.296875 74.917969 50.988281 75.617188 C 50.035156 76.609375 48.820312 77.246094 47.511719 77.648438 L 46.640625 77.648438 C 46.601562 76.855469 46.566406 76.117188 46.640625 75.328125 C 46.917969 74.835938 47.207031 74.355469 47.511719 73.878906 C 48.105469 72 48.242188 70.035156 48.378906 68.078125 L 47.511719 68.367188 L 47.382812 68.929688 L 47.21875 69.527344 L 46.660156 69.800781 C 46.460938 69.902344 46.265625 70.003906 46.0625 70.109375 C 45.6875 70.84375 45.6875 70.84375 45.480469 71.558594 C 45.058594 71.261719 45.058594 71.261719 44.609375 70.6875 C 44.503906 69.949219 44.4375 69.207031 44.410156 68.460938 L 44.382812 67.84375 C 44.359375 67.339844 44.339844 66.839844 44.320312 66.339844 L 43.742188 66.339844 L 43.570312 67.101562 L 43.34375 68.113281 L 43.117188 69.113281 C 42.871094 70.109375 42.871094 70.109375 42.554688 71.027344 C 42.191406 72.15625 42.214844 72.984375 42.292969 74.167969 L 42.871094 75.039062 C 43.257812 76.125 43.484375 77.078125 43.34375 78.230469 L 43.160156 78.808594 L 42.546875 78.796875 L 41.746094 78.789062 L 40.953125 78.78125 C 40.257812 78.761719 40.257812 78.761719 39.683594 79.097656 C 38.292969 76.355469 38.292969 76.355469 38.085938 74.859375 C 38.417969 72.625 39.160156 71.007812 40.550781 69.238281 L 40.28125 68.765625 C 39.921875 67.964844 39.8125 67.207031 39.683594 66.339844 C 40.226562 66.101562 40.769531 65.867188 41.3125 65.632812 L 42.230469 65.234375 C 43.136719 64.898438 43.941406 64.695312 44.902344 64.597656 L 45.480469 64.890625 L 45.480469 65.46875 L 47.21875 65.757812 L 47.511719 64.308594 L 48.089844 64.308594 L 48.019531 63.757812 C 47.957031 62.933594 47.957031 62.222656 48.089844 61.410156 C 48.527344 60.777344 49.03125 60.289062 49.574219 59.746094 C 50.445312 58.695312 50.804688 57.484375 51.238281 56.203125 C 51.570312 55.320312 51.570312 55.320312 52.015625 54.582031 C 52.480469 53.796875 52.695312 53.105469 52.910156 52.21875 L 53.121094 51.382812 C 53.636719 48.660156 53.617188 45.984375 53.535156 43.226562 C 53.511719 41.472656 53.6875 40.351562 54.46875 38.789062 L 54.75 37.769531 C 55.070312 36.679688 55.515625 35.777344 56.0625 34.78125 L 56.597656 33.796875 C 57.078125 32.988281 57.078125 32.988281 57.65625 32.410156 L 57.65625 31.539062 L 56.859375 31.863281 L 55.917969 32.117188 C 55.265625 31.847656 55.265625 31.847656 54.757812 31.539062 L 54.179688 31.828125 C 54.085938 31.050781 54.085938 31.050781 54.179688 30.089844 C 54.8125 29.363281 54.8125 29.363281 55.628906 28.640625 C 56.605469 27.554688 56.605469 27.554688 57.367188 26.320312 C 57.851562 26.007812 57.851562 26.007812 58.453125 25.703125 L 59.046875 25.390625 C 59.820312 25.109375 60.320312 25.027344 61.136719 25.160156 " fill-opacity="1" fill-rule="nonzero"/><path fill="#01013c" d="M 25.476562 12.109375 L 26.054688 12.398438 C 25.84375 13.457031 25.378906 14.09375 24.742188 14.960938 C 23.316406 17.070312 22.417969 19.285156 21.894531 21.769531 C 21.707031 22.554688 21.429688 23.25 21.128906 24 C 21.027344 24.4375 20.9375 24.878906 20.855469 25.320312 C 20.640625 26.34375 20.378906 26.976562 19.679688 27.769531 L 19.386719 28.640625 L 18.226562 28.058594 L 18.808594 28.546875 C 19.386719 29.21875 19.386719 29.21875 19.515625 29.851562 C 19.328125 31.050781 18.929688 32.144531 18.519531 33.277344 L 18.265625 34.128906 L 17.9375 34.730469 C 17.457031 34.929688 16.972656 35.121094 16.488281 35.308594 C 16.230469 35.902344 16.230469 35.902344 16.199219 36.46875 L 17.070312 36.757812 C 17.035156 37.175781 17 37.59375 16.960938 38.007812 C 16.941406 38.242188 16.917969 38.472656 16.898438 38.710938 C 16.777344 39.367188 16.777344 39.367188 16.199219 40.238281 L 17.070312 40.527344 C 17.054688 41.476562 17.011719 42.230469 16.777344 43.136719 C 16.347656 43.816406 16.347656 43.816406 15.820312 44.5 C 14.53125 46.195312 13.976562 48.019531 13.589844 50.097656 C 13.589844 50.773438 13.589844 51.453125 13.589844 52.128906 C 13.464844 52.886719 13.320312 53.644531 13.15625 54.394531 C 12.84375 55.714844 12.84375 55.714844 12.71875 57.058594 L 11.851562 57.347656 C 11.5 57.929688 11.5 57.929688 11.269531 58.507812 L 10.691406 58.507812 L 10.980469 59.269531 C 11.269531 60.25 11.335938 60.972656 11.269531 61.988281 L 11.089844 62.605469 L 10.980469 63.148438 C 11.230469 63.792969 11.230469 63.792969 11.558594 64.308594 L 10.691406 64.308594 L 10.691406 65.179688 C 10.15625 64.96875 10.15625 64.96875 9.53125 64.597656 C 8.316406 62.796875 7.5625 60.574219 6.921875 58.507812 L 6.921875 57.929688 L 7.792969 57.347656 C 8.132812 56.421875 8.132812 56.421875 8.390625 55.355469 C 8.6875 54.203125 8.984375 53.183594 9.53125 52.128906 C 10.015625 50.507812 10.128906 48.976562 10.074219 47.289062 C 10.054688 46.355469 10.042969 45.644531 10.367188 44.769531 C 10.691406 44.207031 10.691406 44.207031 11.269531 43.429688 L 11.851562 43.429688 L 12.121094 42.59375 C 12.429688 41.6875 12.429688 41.6875 12.71875 41.109375 L 13.300781 41.109375 L 13.34375 40.378906 L 13.410156 39.421875 C 13.429688 39.109375 13.449219 38.796875 13.46875 38.476562 C 13.589844 37.628906 13.589844 37.628906 14.167969 36.757812 C 14.257812 36.136719 14.257812 36.136719 14.277344 35.453125 C 14.441406 33.484375 15.148438 31.78125 15.914062 29.976562 C 16.464844 28.65625 16.917969 27.304688 17.269531 25.921875 C 17.488281 25.085938 17.710938 24.25 17.9375 23.417969 L 18.199219 22.460938 C 18.5 21.375 18.8125 20.292969 19.132812 19.214844 L 19.425781 18.144531 C 19.84375 16.753906 20.183594 15.652344 21.242188 14.628906 C 21.949219 14.128906 22.683594 13.675781 23.445312 13.269531 C 23.648438 13.140625 23.851562 13.011719 24.0625 12.882812 C 24.605469 12.542969 24.605469 12.542969 25.476562 12.109375 " fill-opacity="1" fill-rule="nonzero"/><path fill="#04043f" d="M 15.910156 17.910156 L 16.488281 17.910156 L 15.910156 19.648438 L 15.328125 19.648438 L 15.203125 20.300781 C 15.109375 20.757812 15.007812 21.210938 14.894531 21.660156 C 14.707031 22.441406 14.558594 23.199219 14.460938 24 L 14.667969 24.648438 L 14.75 25.449219 C 14.398438 26.207031 14.046875 26.867188 13.609375 27.570312 L 13.269531 28.136719 C 12.992188 28.597656 12.710938 29.054688 12.429688 29.507812 L 11.851562 29.507812 L 11.722656 30.199219 C 11.558594 30.957031 11.558594 30.957031 11.269531 31.539062 L 10.691406 31.539062 L 10.582031 32.246094 L 10.402344 32.988281 L 9.820312 33.277344 C 9.683594 33.894531 9.683594 33.894531 9.640625 34.601562 L 9.574219 35.328125 L 9.53125 35.886719 L 8.660156 36.179688 C 8.378906 36.9375 8.378906 36.9375 8.207031 37.863281 L 7.992188 38.890625 C 7.75 40.164062 7.53125 41.4375 7.335938 42.714844 C 7.210938 43.429688 7.210938 43.429688 6.921875 44.296875 C 6.957031 44.824219 6.992188 45.351562 7.042969 45.878906 C 7.230469 47.804688 7.269531 49.382812 6.570312 51.226562 C 6.316406 51.90625 6.179688 52.574219 6.050781 53.289062 L 5.183594 53.289062 C 3.808594 45.769531 4.164062 38.773438 6.632812 31.539062 C 7.125 30.238281 7.726562 29 8.371094 27.769531 L 8.773438 26.945312 C 9.835938 24.863281 11.179688 23.136719 12.71875 21.390625 L 13.140625 20.910156 C 13.570312 20.421875 14.003906 19.933594 14.441406 19.449219 L 14.855469 18.984375 C 15.195312 18.613281 15.550781 18.257812 15.910156 17.910156 " fill-opacity="1" fill-rule="nonzero"/><path fill="#00003c" d="M 17.9375 50.097656 L 18.808594 50.097656 C 19.042969 50.847656 19.28125 51.597656 19.515625 52.347656 L 19.71875 52.988281 L 20.089844 54.179688 C 20.207031 54.5625 20.308594 54.949219 20.40625 55.335938 C 20.527344 55.820312 20.679688 56.296875 20.835938 56.769531 L 20.414062 57.671875 C 19.917969 58.75 19.925781 59.582031 20.023438 60.746094 L 20.09375 61.425781 C 20.222656 62.691406 20.3125 63.765625 20.035156 65.015625 L 19.679688 65.757812 C 18.773438 66.300781 18.773438 66.300781 17.9375 66.628906 C 18.320312 67.628906 18.320312 67.628906 18.828125 68.566406 C 19.214844 69.53125 19.160156 70.464844 19.132812 71.484375 L 19.125 72.097656 C 19.121094 72.597656 19.109375 73.09375 19.097656 73.589844 C 18.582031 73.773438 18.582031 73.773438 17.9375 73.878906 C 15.816406 72.894531 14.21875 70.675781 12.71875 68.949219 C 14.003906 67.558594 14.003906 67.558594 14.839844 67.261719 L 15.328125 67.207031 L 15.265625 66.203125 L 15.183594 64.871094 L 15.140625 64.210938 C 15.105469 63.566406 15.070312 62.921875 15.039062 62.277344 L 14.988281 61.261719 C 15.050781 60 15.339844 58.882812 15.691406 57.675781 L 15.890625 56.976562 C 16.296875 55.578125 16.78125 54.277344 17.421875 52.96875 C 17.808594 52.03125 17.863281 51.105469 17.9375 50.097656 " fill-opacity="1" fill-rule="nonzero"/><path fill="#01012e" d="M 66.066406 35.886719 C 66.8125 37.183594 66.949219 38.476562 66.964844 39.949219 C 66.957031 41.542969 66.769531 43.101562 66.554688 44.679688 L 66.449219 45.535156 L 66.339844 46.363281 L 66.242188 47.101562 C 66.066406 47.777344 66.066406 47.777344 65.617188 48.351562 C 65.140625 48.917969 65.140625 48.917969 65.097656 49.65625 L 65.109375 50.449219 L 65.117188 51.308594 L 65.140625 52.199219 L 65.152344 53.105469 C 65.164062 53.84375 65.175781 54.582031 65.195312 55.320312 L 63.164062 55.898438 L 63.601562 56.441406 L 64.035156 57.058594 L 64.035156 57.636719 L 64.617188 57.636719 C 64.484375 59.253906 64.019531 60.324219 63.164062 61.699219 C 62.917969 62.144531 62.667969 62.589844 62.421875 63.039062 L 62.054688 63.703125 C 61.777344 64.199219 61.5 64.699219 61.226562 65.195312 L 60.847656 65.757812 L 60.265625 65.757812 C 60.1875 63.078125 60.136719 60.277344 61.148438 57.75 C 61.480469 57.015625 61.480469 57.015625 61.535156 55.988281 L 61.714844 55.027344 C 62.308594 54.679688 62.308594 54.679688 62.875 54.449219 C 62.898438 53.207031 62.914062 51.960938 62.921875 50.71875 C 62.929688 50.296875 62.933594 49.875 62.941406 49.453125 C 62.953125 48.84375 62.957031 48.234375 62.960938 47.625 L 62.976562 46.515625 C 62.859375 45.289062 62.535156 44.53125 62.007812 43.429688 C 61.613281 42.152344 61.71875 40.949219 62.007812 39.660156 C 62.394531 38.679688 62.667969 38.085938 63.492188 37.429688 L 64.035156 37.046875 L 64.324219 36.179688 C 64.90625 35.886719 64.90625 35.886719 66.066406 35.886719 " fill-opacity="1" fill-rule="nonzero"/><path fill="#00003d" d="M 23.15625 60.539062 C 23.796875 60.578125 23.796875 60.578125 24.605469 60.828125 C 25.425781 61.460938 25.425781 61.460938 26.253906 62.242188 L 27.09375 63.019531 C 27.796875 63.730469 27.796875 63.730469 28.375 64.597656 C 28.527344 65.902344 28.25 66.886719 27.773438 68.078125 C 27.519531 68.632812 27.238281 69.148438 26.925781 69.671875 C 26.308594 70.71875 25.726562 71.8125 25.476562 73.007812 C 25.550781 73.917969 25.742188 74.421875 26.238281 75.195312 L 27.363281 76.660156 L 27.796875 77.359375 L 27.796875 78.519531 C 25.96875 78.355469 24.234375 77.867188 22.578125 77.070312 C 21.890625 76.039062 21.847656 75.429688 21.757812 74.222656 C 21.585938 71.03125 21.628906 68.234375 22.453125 65.136719 C 22.84375 63.636719 22.949219 62.363281 22.867188 60.828125 Z M 23.15625 60.539062 " fill-opacity="1" fill-rule="nonzero"/><path fill="#00003c" d="M 53.308594 16.75 C 54.074219 16.867188 54.476562 17.042969 55.097656 17.523438 L 55.71875 18.125 C 55.925781 18.320312 56.136719 18.519531 56.347656 18.71875 L 56.789062 19.359375 C 56.734375 20.070312 56.734375 20.070312 56.496094 20.808594 L 56.308594 21.523438 C 56 22.582031 55.703125 23.5625 55.191406 24.542969 C 54.769531 25.425781 54.5625 26.199219 54.339844 27.152344 C 54.039062 28.445312 53.648438 29.503906 53.015625 30.660156 C 52.476562 31.769531 52.179688 32.964844 51.859375 34.148438 L 50.988281 34.148438 C 50.476562 33.519531 49.992188 32.867188 49.539062 32.191406 L 48.777344 31.089844 L 48.417969 30.566406 C 48.035156 30.011719 47.632812 29.464844 47.21875 28.929688 L 49.539062 29.507812 L 49.269531 28.585938 C 48.617188 26.25 48.617188 26.25 48.84375 25.292969 C 49.328125 24.097656 49.679688 23.269531 50.625 22.367188 L 51.277344 21.96875 C 51.003906 20.996094 50.730469 20.027344 50.410156 19.070312 L 51.042969 18.886719 C 52.128906 18.359375 52.582031 17.703125 53.308594 16.75 " fill-opacity="1" fill-rule="nonzero"/><path fill="#060643" d="M 35.625 10.078125 L 35.625 10.660156 L 34.753906 11.238281 C 34.5 11.78125 34.5 11.78125 34.335938 12.417969 C 33.910156 13.804688 33.429688 15.183594 32.722656 16.457031 L 32.144531 16.75 C 32.003906 17.214844 31.871094 17.679688 31.75 18.152344 C 31.464844 19.125 31.066406 20.050781 30.679688 20.988281 C 30.359375 21.789062 30.085938 22.597656 29.824219 23.417969 L 29.246094 23.417969 L 29.246094 24.289062 L 28.664062 24.289062 L 28.441406 24.796875 C 27.390625 26.722656 25.292969 28.363281 23.445312 29.507812 L 22.867188 29.507812 C 23.171875 28.597656 23.378906 28.417969 24.027344 27.769531 C 24.714844 26.75 25.175781 25.773438 25.476562 24.578125 C 25.394531 24.09375 25.300781 23.609375 25.1875 23.128906 C 25.222656 22.496094 25.222656 22.496094 25.476562 21.96875 L 26.183594 21.714844 L 26.925781 21.390625 C 27.371094 20.460938 27.503906 19.773438 27.503906 18.742188 C 27.503906 17.910156 27.503906 17.910156 27.796875 17.21875 L 28.085938 16.75 L 28.664062 16.75 L 28.375 15.589844 C 29.152344 15.105469 29.824219 14.71875 30.695312 14.429688 C 31.015625 13.851562 31.015625 13.851562 31.21875 13.160156 L 31.460938 12.464844 L 31.566406 11.820312 L 30.984375 10.949219 C 32.519531 10.386719 33.988281 10.078125 35.625 10.078125 " fill-opacity="1" fill-rule="nonzero"/><path fill="#03033e" d="M 59.976562 47.199219 L 61.136719 47.488281 C 61.144531 48.09375 61.148438 48.695312 61.15625 49.300781 L 61.164062 50.320312 C 61.140625 51.085938 61.074219 51.691406 60.847656 52.417969 L 60.265625 52.417969 L 60.097656 53.183594 L 59.867188 54.195312 L 59.644531 55.195312 C 59.398438 56.1875 59.398438 56.1875 59.074219 57.058594 C 58.777344 58.0625 58.800781 58.859375 58.851562 59.902344 C 58.882812 61.546875 58.671875 62.578125 57.914062 64.011719 C 57.484375 64.992188 57.605469 65.859375 57.65625 66.917969 L 57.496094 67.859375 C 57.308594 68.628906 57.308594 68.628906 57.5625 69.214844 L 57.65625 69.820312 C 57.28125 70.398438 57.28125 70.398438 56.734375 70.980469 C 56.546875 71.179688 56.359375 71.378906 56.164062 71.585938 L 55.628906 72.136719 L 54.957031 72.863281 L 54.46875 73.296875 L 53.886719 73.296875 C 53.738281 71.402344 54.167969 69.925781 54.753906 68.125 C 55.601562 65.496094 55.804688 62.902344 55.980469 60.152344 L 56.042969 59.214844 L 56.097656 58.363281 C 56.207031 57.636719 56.207031 57.636719 56.789062 56.769531 C 56.972656 56.109375 56.972656 56.109375 57.101562 55.371094 L 57.269531 54.539062 C 57.382812 53.964844 57.492188 53.390625 57.597656 52.816406 C 57.960938 51.070312 58.4375 49.894531 59.625 48.546875 L 59.976562 48.070312 Z M 59.976562 47.199219 " fill-opacity="1" fill-rule="nonzero"/><path fill="#03033f" d="M 45.480469 12.398438 C 45.953125 12.480469 46.421875 12.566406 46.894531 12.652344 L 47.6875 12.796875 L 48.378906 12.980469 L 48.960938 13.558594 C 49.152344 14.410156 49.152344 14.410156 49.304688 15.425781 L 49.460938 16.441406 C 49.539062 17.328125 49.539062 17.328125 49.25 18.199219 L 48.703125 18.273438 L 48.089844 18.488281 C 47.761719 19.140625 47.476562 19.808594 47.238281 20.5 C 47.089844 20.898438 46.941406 21.292969 46.792969 21.691406 L 46.570312 22.28125 C 46.175781 23.28125 45.683594 24.222656 45.183594 25.171875 C 44.867188 25.773438 44.867188 25.773438 44.609375 26.609375 L 44.082031 26.429688 L 43.378906 26.191406 L 42.6875 25.957031 C 42.078125 25.765625 41.464844 25.59375 40.84375 25.449219 C 40.789062 24.832031 40.789062 24.832031 40.84375 24 C 41.121094 23.414062 41.414062 22.832031 41.710938 22.257812 L 41.839844 21.460938 L 42 20.808594 L 43.160156 20.230469 C 43.410156 19.417969 43.453125 18.757812 43.453125 17.910156 L 44.320312 17.910156 L 44.105469 17.003906 L 44.03125 15.878906 C 44.574219 14.992188 44.574219 14.992188 45.191406 14.140625 C 45.417969 13.203125 45.417969 13.203125 45.480469 12.398438 " fill-opacity="1" fill-rule="nonzero"/><path fill="#02023d" d="M 31.566406 65.757812 C 33.117188 65.925781 34.660156 66.109375 36.203125 66.339844 C 36.148438 67.117188 36.148438 67.117188 35.914062 68.078125 C 35.207031 68.875 35.207031 68.875 34.464844 69.527344 L 33.882812 70.109375 L 34.300781 70.90625 C 34.949219 72.257812 34.949219 72.257812 35.042969 73.007812 L 34.871094 73.804688 C 34.703125 75.164062 35.113281 76.148438 35.566406 77.417969 C 35.949219 78.308594 36.386719 78.992188 37.074219 79.679688 C 36.230469 79.929688 35.589844 79.980469 34.722656 79.871094 L 34.058594 79.789062 L 33.375 79.695312 L 32.679688 79.609375 C 32.113281 79.539062 31.550781 79.464844 30.984375 79.386719 L 30.984375 78.519531 L 30.972656 77.765625 L 30.964844 76.921875 L 30.957031 76.082031 C 30.984375 75.328125 30.984375 75.328125 31.273438 74.457031 L 30.695312 74.078125 C 30.113281 73.296875 30.113281 73.296875 29.988281 72.582031 C 29.949219 71.722656 29.96875 70.957031 30.113281 70.109375 C 30.441406 69.53125 30.808594 69.074219 31.242188 68.574219 C 31.609375 68.085938 31.609375 68.085938 31.660156 67.441406 C 31.65625 66.878906 31.613281 66.316406 31.566406 65.757812 " fill-opacity="1" fill-rule="nonzero"/><path fill="#00003c" d="M 39.101562 10.949219 L 41.710938 10.949219 C 41.421875 12.109375 41.046875 12.742188 40.394531 13.707031 C 39.054688 16.003906 38.519531 18.21875 38.136719 20.828125 C 38.015625 21.527344 37.894531 22.171875 37.652344 22.839844 C 36.890625 23.449219 36.890625 23.449219 36.203125 23.707031 L 36.492188 24.867188 L 31.855469 24.867188 L 32.144531 24 L 32.722656 24 L 32.84375 23.445312 C 33.125 22.320312 33.371094 21.378906 34.105469 20.460938 L 34.664062 19.882812 C 35.207031 19.339844 35.207031 19.339844 35.625 18.777344 L 35.625 17.816406 C 35.625 16.75 35.625 16.75 36.015625 16.003906 C 36.375 15.457031 36.738281 14.910156 37.105469 14.371094 C 37.847656 13.269531 38.46875 12.117188 39.101562 10.949219 " fill-opacity="1" fill-rule="nonzero"/><path fill="#11113c" d="M 29.246094 17.328125 C 28.820312 19.1875 28.378906 20.84375 27.503906 22.546875 L 27.796875 23.417969 C 28.511719 22.855469 28.730469 22.398438 29.101562 21.542969 C 29.246094 21.152344 29.390625 20.765625 29.535156 20.375 C 30.265625 18.371094 30.265625 18.371094 30.859375 17.628906 L 31.273438 17.328125 L 31.855469 17.328125 C 31.675781 18.355469 31.402344 19.25 31.003906 20.210938 C 30.566406 21.269531 30.167969 22.328125 29.824219 23.417969 L 29.246094 23.417969 L 29.246094 24.289062 L 28.664062 24.289062 L 28.441406 24.796875 C 27.390625 26.722656 25.292969 28.363281 23.445312 29.507812 L 22.867188 29.507812 C 23.171875 28.597656 23.378906 28.417969 24.027344 27.769531 C 24.714844 26.75 25.175781 25.773438 25.476562 24.578125 C 25.394531 24.09375 25.300781 23.609375 25.1875 23.128906 C 25.222656 22.496094 25.222656 22.496094 25.476562 21.96875 L 26.183594 21.714844 L 26.925781 21.390625 C 27.484375 20.214844 27.566406 19.195312 27.503906 17.910156 C 28.59375 17.328125 28.59375 17.328125 29.246094 17.328125 " fill-opacity="1" fill-rule="nonzero"/><path fill="#0b0b44" d="M 62.585938 55.320312 C 63.347656 55.265625 63.347656 55.265625 64.035156 55.320312 L 63.164062 55.898438 L 63.601562 56.441406 L 64.035156 57.058594 L 64.035156 57.636719 L 64.617188 57.636719 C 64.484375 59.253906 64.019531 60.324219 63.164062 61.699219 C 62.917969 62.144531 62.667969 62.589844 62.421875 63.039062 L 62.054688 63.703125 C 61.777344 64.199219 61.5 64.699219 61.226562 65.195312 L 60.847656 65.757812 L 60.265625 65.757812 C 60.183594 62.851562 60.121094 59.855469 61.425781 57.1875 C 61.792969 56.550781 62.179688 55.929688 62.585938 55.320312 " fill-opacity="1" fill-rule="nonzero"/><path fill="#00003d" d="M 64.324219 37.628906 C 64.964844 37.730469 64.964844 37.730469 65.484375 37.917969 C 66.003906 42.449219 66.003906 42.449219 65.484375 44.007812 C 65.421875 44.460938 65.367188 44.914062 65.324219 45.367188 L 65.25 46.078125 L 65.195312 46.617188 L 64.035156 46.617188 C 63.890625 46.25 63.742188 45.882812 63.601562 45.511719 L 63.355469 44.890625 C 63.164062 44.296875 63.164062 44.296875 63.164062 43.429688 L 62.296875 43.71875 L 61.714844 42.847656 L 62.296875 41.980469 C 62.363281 41.375 62.363281 41.375 62.367188 40.726562 C 62.4375 39.941406 62.523438 39.46875 62.949219 38.800781 C 63.402344 38.316406 63.402344 38.316406 64.324219 37.628906 " fill-opacity="1" fill-rule="nonzero"/><path fill="#0d0d46" d="M 54.179688 48.070312 C 54.886719 48.175781 54.886719 48.175781 55.628906 48.359375 C 56.042969 49.191406 56.027344 49.929688 56.023438 50.851562 C 55.90625 51.636719 55.679688 52.078125 55.230469 52.726562 L 54.46875 53.578125 L 53.886719 53.578125 L 53.6875 54.105469 C 53.308594 54.738281 53.308594 54.738281 52.546875 55.246094 L 51.859375 55.609375 C 52.210938 53.667969 52.820312 51.824219 53.488281 49.972656 L 53.882812 48.886719 Z M 54.179688 48.070312 " fill-opacity="1" fill-rule="nonzero"/><path fill="#030225" d="M 4.3125 42.269531 L 4.601562 42.269531 L 4.71875 43.328125 L 4.875 44.734375 L 4.949219 45.429688 C 5.113281 46.890625 5.285156 48.351562 5.472656 49.808594 C 5.902344 48.515625 6.085938 47.480469 6.070312 46.109375 L 6.0625 45.246094 L 6.050781 44.589844 L 6.921875 44.589844 C 7.40625 48.984375 7.40625 48.984375 6.570312 51.214844 C 6.320312 51.898438 6.179688 52.574219 6.050781 53.289062 L 5.183594 53.289062 C 4.507812 49.59375 4.261719 46.023438 4.3125 42.269531 " fill-opacity="1" fill-rule="nonzero"/><path fill="#020125" d="M 51.277344 68.367188 L 52.148438 68.660156 C 51.546875 74.433594 51.546875 74.433594 50.699219 75.910156 C 49.726562 76.734375 48.722656 77.253906 47.511719 77.648438 L 46.640625 77.648438 C 46.539062 76.117188 46.539062 76.117188 46.640625 75.328125 C 47.21875 74.605469 47.21875 74.605469 47.800781 74.167969 L 48.089844 75.617188 C 48.800781 75.367188 49.414062 75.140625 50.007812 74.667969 C 50.449219 74.1875 50.449219 74.1875 50.589844 73.539062 L 50.683594 72.816406 L 50.796875 72.03125 L 50.898438 71.214844 L 51.011719 70.386719 C 51.105469 69.714844 51.191406 69.042969 51.277344 68.367188 " fill-opacity="1" fill-rule="nonzero"/><path fill="#030225" d="M 53.308594 28.058594 L 53.886719 28.058594 C 53.726562 29.308594 53.246094 30.324219 52.726562 31.453125 C 52.34375 32.335938 52.097656 33.21875 51.859375 34.148438 L 50.988281 34.148438 C 50.476562 33.519531 49.992188 32.867188 49.539062 32.191406 L 48.777344 31.089844 L 48.417969 30.566406 C 48.035156 30.011719 47.632812 29.464844 47.21875 28.929688 C 48.070312 29.109375 48.792969 29.351562 49.539062 29.796875 L 50.121094 30.667969 L 50.121094 31.539062 C 50.816406 31.519531 50.816406 31.519531 51.570312 31.25 C 52.121094 30.523438 52.121094 30.523438 52.53125 29.636719 L 52.980469 28.746094 Z M 53.308594 28.058594 " fill-opacity="1" fill-rule="nonzero"/><path fill="#020125" d="M 55.046875 67.789062 C 55.289062 68.628906 55.339844 69.207031 55.339844 70.109375 L 56.496094 69.820312 L 56.789062 68.660156 L 57.65625 68.949219 C 57.601562 69.578125 57.601562 69.578125 57.367188 70.398438 C 56.726562 71.175781 56.726562 71.175781 55.9375 71.9375 L 55.148438 72.714844 L 54.46875 73.296875 L 53.886719 73.296875 C 53.734375 71.234375 54.265625 69.6875 55.046875 67.789062 " fill-opacity="1" fill-rule="nonzero"/><path fill="#01012f" d="M 25.476562 12.109375 L 26.054688 12.398438 C 25.84375 13.476562 25.359375 14.144531 24.707031 15.023438 C 24.078125 15.933594 23.628906 16.910156 23.15625 17.910156 L 22.289062 17.039062 L 23.738281 14.71875 L 22.867188 14.429688 L 21.996094 15.007812 L 21.707031 14.429688 C 22.320312 14.035156 22.9375 13.640625 23.554688 13.25 L 24.085938 12.90625 C 24.539062 12.625 25.007812 12.363281 25.476562 12.109375 " fill-opacity="1" fill-rule="nonzero"/><path fill="#030225" d="M 54.179688 39.367188 C 54.40625 40.175781 54.503906 40.882812 54.496094 41.71875 L 54.492188 42.382812 L 54.484375 43.066406 L 54.484375 43.761719 C 54.480469 44.328125 54.472656 44.894531 54.46875 45.457031 L 55.140625 45.167969 C 55.917969 44.878906 55.917969 44.878906 56.789062 44.878906 L 56.496094 45.75 L 55.917969 45.75 L 55.683594 46.257812 C 55.339844 46.910156 55.339844 46.910156 54.902344 47.453125 C 54.375 48.199219 54.144531 48.9375 53.886719 49.808594 L 53.597656 49.808594 C 53.585938 48.554688 53.574219 47.300781 53.566406 46.046875 C 53.5625 45.621094 53.558594 45.195312 53.554688 44.769531 C 53.546875 44.15625 53.542969 43.539062 53.542969 42.925781 L 53.53125 41.808594 C 53.597656 40.859375 53.769531 40.21875 54.179688 39.367188 " fill-opacity="1" fill-rule="nonzero"/><path fill="#01012d" d="M 18.519531 21.390625 L 19.097656 21.96875 L 18.835938 22.816406 L 18.5 23.925781 L 18.164062 25.027344 C 17.886719 25.976562 17.886719 25.976562 18.046875 26.738281 L 18.226562 27.1875 L 19.097656 26.898438 L 19.679688 27.769531 L 19.386719 28.640625 L 18.226562 28.058594 L 17.683594 28.621094 C 17.070312 29.21875 17.070312 29.21875 16.488281 29.507812 C 16.3125 30.179688 16.3125 30.179688 16.199219 30.957031 C 16.070312 31.757812 16.070312 31.757812 15.910156 32.410156 L 15.328125 32.699219 C 15.433594 31.476562 15.664062 30.492188 16.144531 29.363281 C 16.816406 27.769531 17.242188 26.136719 17.667969 24.464844 C 17.933594 23.433594 18.222656 22.410156 18.519531 21.390625 " fill-opacity="1" fill-rule="nonzero"/><path fill="#030225" d="M 61.136719 25.160156 C 61.945312 26 62.445312 26.980469 62.875 28.058594 C 62.96875 29.203125 62.65625 30.164062 62.296875 31.25 L 61.425781 30.957031 L 62.007812 27.769531 L 61.425781 27.769531 L 61.046875 27.042969 L 60.554688 26.320312 C 59.640625 26.179688 59.121094 26.316406 58.238281 26.609375 C 58.472656 26.046875 58.472656 26.046875 58.816406 25.449219 C 59.699219 25.15625 60.222656 25.035156 61.136719 25.160156 " fill-opacity="1" fill-rule="nonzero"/><path fill="#020126" d="M 24.894531 73.878906 L 25.476562 73.878906 C 26.039062 74.597656 26.039062 74.597656 26.671875 75.546875 L 27.308594 76.484375 C 27.796875 77.359375 27.796875 77.359375 27.796875 78.519531 C 25.96875 78.355469 24.234375 77.867188 22.578125 77.070312 L 21.996094 76.199219 L 22.578125 75.910156 L 22.578125 76.488281 L 23.253906 76.667969 L 24.136719 76.90625 L 25.011719 77.140625 C 25.765625 77.359375 25.765625 77.359375 26.347656 77.648438 C 26.289062 76.832031 26.289062 76.832031 26.054688 75.910156 C 25.6875 75.414062 25.300781 74.929688 24.894531 74.457031 Z M 24.894531 73.878906 " fill-opacity="1" fill-rule="nonzero"/><path fill="#030225" d="M 23.15625 60.539062 C 23.796875 60.578125 23.796875 60.578125 24.605469 60.828125 C 25.425781 61.460938 25.425781 61.460938 26.253906 62.242188 L 27.09375 63.019531 C 27.796875 63.730469 27.796875 63.730469 28.375 64.597656 C 28.410156 65.523438 28.410156 65.523438 28.375 66.339844 L 27.503906 66.339844 L 27.796875 64.597656 L 27.214844 64.597656 L 27.054688 64.109375 C 26.53125 63.269531 25.941406 62.789062 25.132812 62.230469 L 24.605469 61.988281 C 23.761719 62.136719 23.761719 62.136719 23.15625 62.570312 L 22.867188 62.277344 C 22.832031 61.554688 22.832031 61.554688 22.867188 60.828125 Z M 23.15625 60.539062 " fill-opacity="1" fill-rule="nonzero"/><path fill="#020125" d="M 39.101562 10.949219 L 41.710938 10.949219 C 41.460938 11.949219 41.25 12.46875 40.714844 13.304688 L 40.335938 13.90625 C 39.972656 14.429688 39.972656 14.429688 39.390625 15.007812 C 39.101562 14.140625 39.101562 14.140625 39.230469 13.359375 L 39.390625 12.6875 L 38.523438 12.109375 Z M 39.101562 10.949219 " fill-opacity="1" fill-rule="nonzero"/><path fill="#030225" d="M 13.300781 68.078125 C 13.59375 68.667969 13.882812 69.246094 14.132812 69.855469 L 14.460938 70.398438 C 14.84375 70.59375 15.230469 70.785156 15.617188 70.980469 C 15.988281 71.269531 16.351562 71.570312 16.707031 71.886719 L 17.246094 72.359375 L 17.648438 72.71875 L 18.046875 72.285156 L 18.519531 71.847656 L 19.097656 71.847656 L 19.097656 73.589844 C 18.582031 73.773438 18.582031 73.773438 17.9375 73.878906 C 15.816406 72.894531 14.21875 70.675781 12.71875 68.949219 Z M 15.910156 40.238281 L 17.070312 40.527344 C 17.046875 41.851562 16.992188 42.765625 16.328125 43.925781 C 15.816406 44.644531 15.292969 45.347656 14.75 46.039062 L 14.167969 46.910156 C 13.972656 46.402344 13.972656 46.402344 13.878906 45.75 C 14.222656 45.167969 14.222656 45.167969 14.714844 44.550781 C 15.261719 43.789062 15.59375 43.246094 15.800781 42.324219 C 15.863281 41.625 15.90625 40.9375 15.910156 40.238281 M 28.085938 24.867188 C 27.621094 26.074219 26.738281 26.832031 25.800781 27.679688 L 25.335938 28.117188 C 24.695312 28.699219 24.160156 29.171875 23.335938 29.460938 L 22.867188 29.507812 C 23.164062 28.617188 23.375 28.394531 24.027344 27.769531 L 24.605469 26.898438 C 25.085938 26.699219 25.570312 26.503906 26.054688 26.320312 L 26.347656 25.738281 L 25.765625 25.449219 C 27.433594 24.867188 27.433594 24.867188 28.085938 24.867188 M 53.308594 16.75 C 54.074219 16.867188 54.476562 17.042969 55.097656 17.523438 L 55.71875 18.125 L 56.347656 18.71875 L 56.789062 19.359375 C 56.726562 20.152344 56.5625 20.679688 56.207031 21.390625 L 55.628906 21.390625 L 55.683594 20.429688 L 55.628906 19.359375 C 55.222656 18.832031 55.222656 18.832031 54.757812 18.488281 L 54.757812 17.910156 L 52.4375 18.199219 Z M 53.308594 16.75 " fill-opacity="1" fill-rule="nonzero"/><path fill="#020125" d="M 17.9375 50.097656 L 18.808594 50.097656 C 19.003906 50.707031 19.195312 51.320312 19.386719 51.929688 L 19.714844 52.957031 C 19.96875 53.867188 19.96875 53.867188 19.96875 54.738281 L 19.097656 54.449219 L 18.808594 53 L 17.648438 53 Z M 59.976562 47.199219 L 61.136719 47.488281 L 61.136719 50.96875 L 60.265625 51.257812 L 60.265625 49.519531 L 59.105469 49.519531 L 59.378906 49.011719 C 59.664062 48.402344 59.835938 47.851562 59.976562 47.199219 " fill-opacity="1" fill-rule="nonzero"/><path fill="#030225" d="M 33.015625 22.839844 L 33.304688 23.273438 L 33.882812 23.707031 C 34.671875 23.789062 35.40625 23.746094 36.203125 23.707031 L 36.492188 24.867188 L 31.855469 24.867188 L 32.144531 24 L 32.722656 24 Z M 60.554688 61.699219 L 60.847656 62.859375 L 61.425781 62.859375 L 61.425781 63.4375 L 62.007812 63.4375 L 60.847656 65.757812 L 60.265625 65.757812 C 60.257812 65.136719 60.253906 64.515625 60.25 63.890625 L 60.238281 62.839844 L 60.265625 61.988281 Z M 8.949219 62.859375 C 9.929688 62.929688 9.929688 62.929688 10.980469 63.148438 C 11.398438 63.746094 11.398438 63.746094 11.558594 64.308594 L 10.691406 64.308594 L 10.691406 65.179688 C 10.148438 64.996094 10.148438 64.996094 9.53125 64.597656 C 9.167969 63.691406 9.167969 63.691406 8.949219 62.859375 M 35.625 10.078125 L 35.625 10.660156 C 35.078125 11.128906 35.078125 11.128906 34.464844 11.527344 L 33.882812 11.527344 L 33.882812 10.660156 C 32.605469 11.027344 32.605469 11.027344 31.566406 11.820312 L 30.984375 10.949219 C 32.519531 10.386719 33.988281 10.078125 35.625 10.078125 M 34.753906 66.339844 L 36.203125 66.339844 C 36.09375 67.296875 35.996094 67.953125 35.460938 68.765625 C 35.324219 68.921875 35.183594 69.078125 35.042969 69.238281 L 33.882812 68.949219 L 35.042969 68.078125 Z M 44.902344 64.597656 L 44.902344 66.046875 L 43.160156 66.339844 L 42.582031 65.179688 C 43.476562 64.667969 43.808594 64.597656 44.902344 64.597656 " fill-opacity="1" fill-rule="nonzero"/><path fill="#f3f2f7" d="M 25.765625 21.679688 L 26.636719 21.679688 L 26.054688 24.867188 L 25.1875 24.289062 C 25.097656 23.273438 25.097656 23.273438 25.1875 22.257812 Z M 25.765625 21.679688 " fill-opacity="1" fill-rule="nonzero"/><path fill="#030225" d="M 18.226562 31.25 L 18.808594 31.25 C 18.660156 32.5 18.460938 33.578125 17.9375 34.730469 L 17.070312 34.4375 C 17.207031 33.960938 17.34375 33.484375 17.484375 33.007812 L 17.71875 32.203125 C 17.9375 31.539062 17.9375 31.539062 18.226562 31.25 " fill-opacity="1" fill-rule="nonzero"/><path fill="#020126" d="M 60.265625 32.988281 L 61.714844 33.277344 C 61.625 34.09375 61.625 34.09375 61.425781 35.019531 C 60.972656 35.5625 60.972656 35.5625 60.554688 35.886719 L 60.265625 35.308594 L 60.410156 34.601562 C 60.625 33.828125 60.625 33.828125 60.265625 32.988281 " fill-opacity="1" fill-rule="nonzero"/><path fill="#030225" d="M 15.910156 17.910156 L 16.488281 17.910156 C 16.289062 18.722656 16.289062 18.722656 15.910156 19.648438 C 15.183594 20.191406 15.183594 20.191406 14.460938 20.519531 L 13.878906 20.519531 C 14.332031 19.410156 15.027344 18.703125 15.910156 17.910156 M 58.816406 38.207031 L 59.398438 38.207031 C 59.203125 39.425781 58.570312 40.355469 57.949219 41.398438 L 57.367188 41.109375 C 57.699219 39.984375 58.015625 39.078125 58.816406 38.207031 M 50.121094 59.089844 L 50.699219 59.089844 C 50.410156 59.957031 50.410156 59.957031 49.703125 60.648438 C 48.980469 61.386719 48.683594 61.886719 48.378906 62.859375 L 48.089844 62.859375 C 48.027344 62.210938 48.027344 62.210938 48.089844 61.410156 C 48.511719 60.757812 48.511719 60.757812 49.070312 60.15625 L 49.617188 59.546875 Z M 30.695312 14.71875 L 30.113281 15.878906 L 29.246094 15.878906 L 28.957031 16.75 L 28.375 15.589844 C 29.714844 14.71875 29.714844 14.71875 30.695312 14.71875 " fill-opacity="1" fill-rule="nonzero"/><path fill="#6c6b81" d="M 54.179688 30.089844 L 54.976562 30.652344 C 55.742188 31.136719 56.203125 31.40625 57.078125 31.539062 C 56.570312 31.863281 56.570312 31.863281 55.917969 32.117188 C 55.300781 31.847656 55.300781 31.847656 54.757812 31.539062 L 54.179688 31.828125 Z M 54.179688 30.089844 " fill-opacity="1" fill-rule="nonzero"/><path fill="#030225" d="M 55.339844 21.96875 L 55.917969 21.96875 C 55.808594 22.925781 55.710938 23.585938 55.175781 24.398438 C 55.039062 24.554688 54.898438 24.707031 54.757812 24.867188 L 54.46875 24 C 54.734375 23.3125 55.023438 22.636719 55.339844 21.96875 M 39.972656 66.046875 L 41.132812 66.339844 L 40.550781 66.339844 L 40.84375 68.660156 C 40.246094 68.167969 40.246094 68.167969 39.683594 67.5 C 39.753906 66.699219 39.753906 66.699219 39.972656 66.046875 " fill-opacity="1" fill-rule="nonzero"/><path fill="#02012b" d="M 35.332031 78.230469 L 35.914062 78.230469 C 36.316406 78.699219 36.703125 79.183594 37.074219 79.679688 C 36.546875 79.859375 36.546875 79.859375 35.914062 79.96875 L 35.042969 79.386719 Z M 35.332031 78.230469 " fill-opacity="1" fill-rule="nonzero"/><path fill="#030225" d="M 27.214844 67.207031 L 27.796875 67.207031 C 27.707031 67.878906 27.707031 67.878906 27.503906 68.660156 C 27.054688 69.183594 27.054688 69.183594 26.636719 69.527344 L 26.054688 68.949219 C 26.425781 68.359375 26.8125 67.777344 27.214844 67.207031 " fill-opacity="1" fill-rule="nonzero"/><path fill="#01012f" d="M 18.226562 28.929688 L 19.386719 29.21875 L 19.386719 30.667969 L 18.226562 30.957031 Z M 40.84375 24.867188 C 42.800781 25.121094 42.800781 25.121094 43.453125 25.449219 L 43.453125 26.027344 L 40.84375 25.449219 Z M 40.84375 24.867188 " fill-opacity="1" fill-rule="nonzero"/><path fill="#030225" d="M 48.667969 68.660156 L 49.25 68.949219 C 49.304688 69.636719 49.304688 69.636719 49.25 70.398438 L 48.378906 70.980469 C 48.367188 70.300781 48.367188 69.625 48.378906 68.949219 Z M 48.667969 68.660156 " fill-opacity="1" fill-rule="nonzero"/><path fill="#f3f2f7" d="M 41.421875 23.417969 L 42.292969 23.707031 L 42 24.867188 L 40.84375 24.578125 Z M 41.421875 23.417969 " fill-opacity="1" fill-rule="nonzero"/><path fill="#030225" d="M 31.566406 65.757812 L 33.015625 65.757812 L 32.144531 67.789062 C 31.722656 67.019531 31.566406 66.660156 31.566406 65.757812 " fill-opacity="1" fill-rule="nonzero"/><path fill="#f3f2f7" d="M 42.582031 20.519531 L 43.160156 20.808594 L 43.160156 21.96875 L 41.710938 21.679688 L 42 20.808594 Z M 42.582031 20.519531 " fill-opacity="1" fill-rule="nonzero"/><path fill="#01012f" d="M 13.589844 46.910156 L 14.167969 46.910156 L 13.878906 48.9375 L 13.300781 48.648438 C 13.289062 48.164062 13.289062 47.683594 13.300781 47.199219 Z M 13.589844 46.910156 " fill-opacity="1" fill-rule="nonzero"/></svg>