<svg xmlns="http://www.w3.org/2000/svg" xmlns:xlink="http://www.w3.org/1999/xlink" width="96" zoomAndPan="magnify" viewBox="0 0 72 89.999999" height="120" preserveAspectRatio="xMidYMid meet" version="1.0"><rect x="-7.2" width="86.4" fill="#ffffff" y="-9" height="107.999999" fill-opacity="1"/><rect x="-7.2" width="86.4" fill="#ffffff" y="-9" height="107.999999" fill-opacity="1"/><path fill="#000046" d="M 44.773438 9.226562 C 45.472656 9.214844 46.171875 9.210938 46.875 9.207031 L 48.054688 9.195312 C 49.003906 9.21875 49.824219 9.316406 50.742188 9.539062 C 50.523438 11.664062 49.699219 13.5 48.484375 15.238281 C 47.820312 16.289062 47.699219 17.113281 47.601562 18.339844 L 46.65625 18.65625 C 46.4375 19.070312 46.230469 19.488281 46.03125 19.914062 L 45.085938 20.855469 L 44.773438 21.800781 L 45.382812 21.898438 L 46.03125 22.113281 L 46.34375 23.058594 L 46.03125 23.6875 C 45.378906 23.816406 45.378906 23.816406 44.597656 23.882812 L 43.808594 23.953125 L 43.203125 24 C 42.367188 25.675781 42.054688 27.242188 41.78125 29.089844 C 41.617188 30.058594 41.320312 30.933594 41.003906 31.859375 L 41.023438 32.664062 C 41.003906 33.429688 41.003906 33.429688 40.53125 34.316406 L 40.0625 35.003906 L 38.492188 34.375 C 38.589844 34.871094 38.6875 35.371094 38.785156 35.867188 L 38.949219 36.707031 C 39.105469 37.5 39.105469 37.5 39.316406 38.195312 L 39.433594 38.777344 L 39.117188 39.660156 C 38.722656 40.652344 38.722656 40.652344 38.980469 41.664062 C 39.148438 43.105469 38.832031 44.105469 38.417969 45.480469 C 38.125 46.496094 37.976562 47.472656 37.863281 48.519531 L 36.917969 48.519531 L 36.863281 49.105469 L 36.78125 49.878906 C 36.757812 50.128906 36.730469 50.378906 36.703125 50.640625 C 36.605469 51.351562 36.605469 51.351562 36.292969 52.292969 L 36.46875 53.078125 L 36.605469 53.867188 L 35.976562 54.808594 C 35.074219 54.554688 35.074219 54.554688 34.09375 54.179688 L 33.464844 53.238281 C 33.425781 52.234375 33.425781 52.234375 33.464844 51.351562 L 34.40625 51.664062 L 34.40625 52.292969 L 35.347656 52.292969 C 35.160156 51.816406 34.96875 51.335938 34.78125 50.859375 L 34.433594 49.980469 C 34.167969 49.335938 33.871094 48.699219 33.5625 48.070312 C 33.011719 46.570312 32.789062 45.089844 32.835938 43.492188 C 33.042969 42.863281 33.253906 42.234375 33.464844 41.605469 C 33.644531 40.460938 33.738281 39.304688 33.84375 38.152344 C 33.964844 36.984375 34.058594 36.3125 34.722656 35.316406 L 34.542969 34.609375 C 34.40625 33.746094 34.40625 33.746094 34.820312 32.625 C 35.101562 32.050781 35.386719 31.476562 35.703125 30.917969 C 36.039062 30.226562 36.039062 30.226562 36.113281 29.148438 L 36.292969 28.085938 L 37.234375 27.457031 L 37.234375 26.199219 L 36.605469 25.886719 C 36.722656 25.121094 36.722656 25.121094 36.917969 24.316406 L 37.546875 24 C 37.695312 23.332031 37.695312 23.332031 37.746094 22.566406 L 37.816406 21.777344 L 37.863281 21.171875 L 38.921875 20.816406 C 39.53125 20.566406 39.53125 20.566406 40.0625 20.226562 C 40.578125 19.414062 40.578125 19.414062 40.6875 18.339844 C 40.664062 17.863281 40.640625 17.386719 40.609375 16.90625 C 40.570312 15.042969 41.253906 13.597656 42.007812 11.925781 L 42.574219 11.109375 C 43.097656 10.996094 43.621094 10.894531 44.144531 10.796875 C 44.578125 10.019531 44.578125 10.019531 44.773438 9.226562 " fill-opacity="1" fill-rule="nonzero"/><path fill="#000047" d="M 31.578125 8.910156 L 39.117188 9.226562 C 38.765625 12.761719 38.765625 12.761719 38.175781 14.253906 L 37.546875 14.253906 L 37.546875 15.828125 L 36.917969 16.140625 C 36.835938 17.183594 36.804688 18.214844 36.796875 19.261719 C 36.773438 19.929688 36.773438 19.929688 36.605469 21.171875 C 36.003906 22.121094 36.003906 22.121094 35.347656 22.742188 L 34.722656 22.742188 L 34.800781 23.429688 C 34.722656 24.316406 34.722656 24.316406 34.132812 25.199219 L 33.464844 25.886719 L 32.835938 25.886719 L 32.523438 27.144531 L 33.148438 27.144531 L 33.148438 28.085938 L 32.207031 28.085938 L 32.207031 29.34375 L 31.578125 29.972656 L 32.1875 30.425781 C 32.855469 31.253906 32.988281 31.605469 33.148438 32.625 C 33.207031 33.375 33.207031 33.375 33.148438 34.058594 C 32.542969 34.964844 32.542969 34.964844 31.894531 35.632812 L 31.894531 36.574219 L 31.265625 36.890625 C 30.125 39.210938 29.527344 41.230469 29.695312 43.804688 L 29.378906 44.433594 L 28.753906 44.433594 L 28.753906 43.839844 C 28.761719 41.785156 28.765625 39.730469 28.769531 37.675781 C 28.769531 36.910156 28.773438 36.144531 28.777344 35.378906 C 28.78125 34.273438 28.78125 33.167969 28.78125 32.0625 L 28.789062 31.042969 C 28.789062 28.683594 28.648438 26.351562 28.4375 24 C 27.476562 23.828125 26.589844 23.6875 25.609375 23.6875 C 25.691406 22.949219 25.796875 22.214844 25.925781 21.484375 L 26.554688 21.171875 L 26.828125 20.148438 C 27.203125 18.890625 27.589844 18.382812 28.4375 17.398438 C 30.824219 14.363281 30.824219 14.363281 32.128906 10.816406 L 32.207031 9.855469 L 31.265625 9.855469 Z M 31.578125 8.910156 " fill-opacity="1" fill-rule="nonzero"/><path fill="#01003b" d="M 28.4375 8.597656 L 28.4375 9.226562 L 27.808594 9.539062 L 28.203125 10.699219 C 28.515625 12.097656 28.332031 13.101562 27.925781 14.472656 C 27.425781 15.929688 26.828125 17.085938 25.925781 18.339844 C 25.785156 18.738281 25.65625 19.136719 25.53125 19.539062 C 25.011719 20.90625 24.390625 22.007812 23.402344 23.089844 C 22.320312 23.78125 21.609375 23.886719 20.347656 23.953125 C 18.957031 23.96875 17.574219 23.921875 16.1875 23.863281 C 15.609375 23.847656 15.027344 23.835938 14.449219 23.824219 C 13.039062 23.792969 11.628906 23.746094 10.21875 23.6875 C 9.703125 22.65625 9.859375 21.511719 9.863281 20.378906 L 9.859375 19.570312 C 9.859375 19.007812 9.863281 18.441406 9.863281 17.875 C 9.863281 17.015625 9.863281 16.152344 9.859375 15.289062 C 9.859375 14.742188 9.863281 14.191406 9.863281 13.640625 L 9.859375 12.863281 L 9.863281 12.125 L 9.863281 11.484375 C 9.914062 10.621094 10.074219 9.765625 10.21875 8.910156 L 16.5 8.910156 C 16.144531 11.417969 16.144531 11.417969 15.304688 12.800781 L 14.824219 13.613281 L 14.300781 14.253906 L 13.664062 14.378906 L 13.046875 14.570312 C 12.566406 15.480469 12.566406 15.480469 12.222656 16.574219 C 11.828125 17.699219 11.507812 18.605469 10.847656 19.597656 L 11.476562 19.914062 C 11.605469 20.632812 11.605469 20.632812 11.671875 21.503906 L 11.742188 22.378906 L 11.789062 23.058594 L 12.730469 22.429688 C 13.027344 21.828125 13.027344 21.828125 13.222656 21.132812 L 13.460938 20.367188 C 13.652344 19.667969 13.816406 18.972656 13.96875 18.261719 C 14.320312 17.015625 14.660156 16.433594 15.558594 15.511719 C 16.179688 14.976562 16.8125 14.460938 17.441406 13.941406 L 17.757812 13.3125 L 18.386719 13.3125 C 18.421875 15.128906 18.332031 16.859375 18.070312 18.65625 L 20.269531 18.339844 L 19.917969 17.222656 C 19.683594 16.253906 19.65625 15.742188 19.800781 14.726562 C 20.304688 13.546875 20.917969 12.6875 21.734375 11.707031 C 22.175781 11.078125 22.316406 10.597656 22.46875 9.855469 L 22.785156 9.539062 C 23.664062 9.480469 24.429688 9.441406 25.296875 9.539062 C 26.238281 10.011719 26.238281 10.011719 26.867188 10.484375 L 26.867188 8.910156 C 27.808594 8.597656 27.808594 8.597656 28.4375 8.597656 M 16.5 19.285156 L 15.871094 19.914062 L 15.871094 20.855469 L 17.757812 21.171875 L 18.070312 19.597656 C 17.320312 19.386719 17.320312 19.386719 16.5 19.285156 " fill-opacity="1" fill-rule="nonzero"/><path fill="#000048" d="M 40.6875 56.378906 C 41.484375 56.691406 41.988281 57.050781 42.613281 57.636719 C 43.558594 59.148438 43.75 60.714844 43.890625 62.472656 C 43.980469 65.902344 43.214844 69.308594 42.507812 72.644531 C 42.53125 73.449219 42.53125 73.449219 43.191406 74.351562 C 43.746094 75.261719 43.929688 75.933594 43.964844 77 C 43.960938 77.5 43.949219 78.003906 43.929688 78.503906 L 43.917969 79.285156 C 43.90625 79.929688 43.871094 80.570312 43.832031 81.214844 L 43.515625 81.53125 C 42.933594 81.558594 42.351562 81.5625 41.769531 81.5625 L 40.695312 81.558594 L 39.570312 81.550781 L 38.4375 81.546875 C 37.515625 81.542969 36.589844 81.535156 35.664062 81.53125 C 35.636719 80.96875 35.617188 80.402344 35.605469 79.839844 L 35.570312 78.890625 L 35.664062 78.070312 L 36.605469 77.441406 C 36.832031 76.859375 36.832031 76.859375 36.941406 76.207031 C 37.128906 75.234375 37.289062 74.847656 37.863281 73.984375 C 38.019531 73.136719 38.019531 73.136719 38.078125 72.214844 L 38.160156 71.28125 L 38.175781 70.527344 L 37.863281 70.210938 C 37.964844 68.984375 38.0625 67.976562 38.53125 66.832031 L 38.804688 66.125 L 38.65625 65.542969 C 38.464844 64.761719 38.523438 64.21875 38.644531 63.425781 L 38.765625 62.597656 L 38.902344 61.746094 L 39.027344 60.890625 C 39.4375 58.234375 39.4375 58.234375 40.0625 57.007812 Z M 40.6875 56.378906 " fill-opacity="1" fill-rule="nonzero"/><path fill="#000047" d="M 33.148438 56.695312 C 33.796875 56.832031 33.796875 56.832031 34.40625 57.007812 L 34.40625 58.265625 L 35.035156 58.265625 L 35.035156 59.210938 L 33.777344 59.839844 L 33.957031 60.507812 C 34.109375 61.515625 33.988281 62.300781 33.777344 63.296875 L 34.40625 63.609375 L 34.40625 64.238281 L 33.777344 64.554688 C 33.722656 66.015625 33.855469 66.988281 34.40625 68.328125 C 34.445312 69.367188 34.445312 69.367188 34.40625 70.210938 L 33.148438 70.527344 L 33.148438 71.15625 L 34.09375 71.46875 C 34.015625 72.039062 34.015625 72.039062 33.777344 72.726562 L 33.128906 73.160156 L 32.523438 73.671875 C 32.335938 75.0625 32.65625 76.144531 33.148438 77.441406 L 32.523438 77.441406 L 32.578125 78.097656 C 32.621094 78.949219 32.628906 79.742188 32.523438 80.585938 C 31.875 81.253906 31.875 81.253906 30.949219 81.53125 C 30.21875 81.539062 29.484375 81.542969 28.753906 81.53125 C 28.746094 79.417969 28.738281 77.304688 28.734375 75.191406 C 28.734375 74.472656 28.730469 73.757812 28.730469 73.039062 C 28.703125 65.820312 28.703125 65.820312 29 62.558594 C 29.0625 61.753906 29.078125 60.960938 29.066406 60.152344 L 30.007812 60.46875 L 30.480469 61.117188 L 30.949219 61.722656 L 31.894531 61.722656 L 31.65625 60.78125 C 31.542969 60.007812 31.5625 59.570312 31.828125 58.828125 C 32.644531 57.203125 32.644531 57.203125 33.148438 56.695312 " fill-opacity="1" fill-rule="nonzero"/><path fill="#01003b" d="M 58.910156 8.910156 C 59.640625 8.882812 60.375 8.882812 61.109375 8.910156 L 61.421875 9.855469 C 61.15625 10.441406 60.882812 11.027344 60.574219 11.59375 C 60.273438 12.171875 59.984375 12.757812 59.714844 13.351562 L 59.242188 14.371094 L 58.800781 15.34375 L 58.28125 16.140625 C 57.453125 16.523438 57.453125 16.523438 56.710938 16.769531 C 56.433594 17.410156 56.433594 17.410156 56.394531 18.027344 L 55.769531 18.027344 L 55.550781 18.539062 C 55 19.539062 54.328125 20.3125 53.570312 21.171875 L 52.941406 21.484375 L 52.941406 24 L 48.542969 24 L 48.230469 22.742188 L 48.894531 22.800781 C 50.003906 22.730469 50.722656 22.335938 51.683594 21.800781 C 51.507812 20.75 51.257812 19.902344 50.742188 18.96875 L 51.683594 18.339844 C 51.800781 17.609375 51.90625 16.875 52 16.140625 L 52.625 15.828125 L 52.902344 15.101562 C 53.253906 14.253906 53.253906 14.253906 53.921875 13.703125 L 54.511719 12.996094 C 54.621094 12.046875 54.585938 11.121094 54.511719 10.167969 L 55.234375 10.054688 L 56.179688 9.894531 L 57.117188 9.738281 C 58.03125 9.578125 58.03125 9.578125 58.910156 8.910156 " fill-opacity="1" fill-rule="nonzero"/><path fill="#01003c" d="M 42.886719 40.347656 L 43.515625 40.347656 C 43.875 41.425781 43.871094 42.265625 43.871094 43.402344 L 43.875 44.03125 C 43.875 44.472656 43.871094 44.914062 43.871094 45.351562 C 43.871094 46.015625 43.871094 46.679688 43.875 47.339844 C 43.875 52.488281 43.875 52.488281 43.515625 54.179688 L 42.886719 55.121094 L 41.316406 54.808594 C 41.300781 53.910156 41.289062 53.015625 41.277344 52.117188 L 41.261719 51.355469 C 41.25 49.761719 41.472656 48.484375 41.945312 46.949219 C 42.089844 46.101562 42.1875 45.25 42.28125 44.394531 C 42.433594 43.035156 42.59375 41.6875 42.886719 40.347656 " fill-opacity="1" fill-rule="nonzero"/><path fill="#030228" d="M 38.804688 66.753906 L 39.433594 67.070312 L 39.117188 67.894531 C 38.65625 69.453125 38.800781 71.023438 38.875 72.632812 C 38.796875 73.804688 38.496094 74.269531 37.863281 75.242188 C 37.605469 75.980469 37.367188 76.730469 37.15625 77.480469 L 36.816406 78.644531 L 36.605469 79.644531 L 36.917969 80.585938 L 42.574219 80.273438 C 42.925781 78.023438 42.925781 78.023438 42.699219 75.792969 C 42.464844 75.285156 42.207031 74.792969 41.945312 74.300781 L 41.945312 73.355469 L 42.886719 73.671875 C 43.449219 74.503906 43.792969 75.230469 43.910156 76.238281 C 43.933594 76.988281 43.929688 77.734375 43.910156 78.484375 L 43.902344 79.269531 C 43.894531 79.917969 43.867188 80.566406 43.832031 81.214844 L 43.515625 81.53125 C 42.933594 81.558594 42.351562 81.5625 41.769531 81.5625 L 40.695312 81.558594 L 39.570312 81.550781 L 38.4375 81.546875 C 37.515625 81.542969 36.589844 81.535156 35.664062 81.53125 C 35.636719 80.96875 35.617188 80.402344 35.605469 79.839844 L 35.570312 78.890625 L 35.664062 78.070312 L 36.605469 77.441406 C 36.832031 76.859375 36.832031 76.859375 36.941406 76.207031 C 37.128906 75.234375 37.289062 74.847656 37.863281 73.984375 C 38.019531 73.136719 38.019531 73.136719 38.078125 72.214844 L 38.160156 71.28125 L 38.175781 70.527344 L 37.863281 70.210938 C 38.050781 67.886719 38.050781 67.886719 38.804688 66.753906 M 28.753906 24.316406 L 29.378906 24.945312 C 29.457031 25.796875 29.496094 26.625 29.511719 27.480469 L 29.527344 28.238281 C 29.546875 29.039062 29.5625 29.839844 29.578125 30.640625 L 29.613281 32.269531 C 29.644531 33.597656 29.671875 34.929688 29.695312 36.261719 C 30.054688 35.96875 30.410156 35.671875 30.765625 35.375 L 31.367188 34.875 C 31.960938 34.367188 31.960938 34.367188 32.34375 33.472656 C 32.402344 33.25 32.460938 33.03125 32.523438 32.804688 L 33.148438 32.804688 C 33.050781 33.6875 33.050781 33.6875 32.835938 34.6875 C 32.34375 35.21875 32.34375 35.21875 31.894531 35.632812 L 31.894531 36.574219 L 31.265625 36.890625 C 30.125 39.210938 29.527344 41.230469 29.695312 43.804688 L 29.378906 44.433594 L 28.753906 44.433594 Z M 28.753906 24.316406 " fill-opacity="1" fill-rule="nonzero"/><path fill="#000049" d="M 14.617188 9.539062 L 15.246094 9.855469 C 15.144531 10.894531 15.144531 10.894531 14.929688 12.054688 C 14.480469 12.664062 14.480469 12.664062 13.988281 12.996094 L 13.359375 12.996094 L 13.359375 13.625 C 12.742188 13.960938 12.113281 14.277344 11.476562 14.570312 L 10.847656 14.253906 C 10.476562 13.140625 10.472656 12.28125 10.53125 11.109375 C 10.769531 10.363281 10.769531 10.363281 11.160156 9.855469 C 12.242188 9.371094 13.453125 9.496094 14.617188 9.539062 " fill-opacity="1" fill-rule="nonzero"/><path fill="#030228" d="M 33.148438 43.175781 L 33.777344 43.492188 L 33.765625 44.125 C 33.742188 46.183594 33.742188 46.183594 34.09375 48.207031 L 35.035156 48.519531 L 35.347656 49.464844 L 35.976562 49.777344 L 36.273438 48.875 C 36.605469 47.890625 36.605469 47.890625 36.917969 47.261719 L 37.863281 47.261719 L 37.863281 48.519531 L 36.917969 48.519531 L 36.863281 49.105469 L 36.78125 49.878906 C 36.757812 50.128906 36.730469 50.378906 36.703125 50.640625 C 36.605469 51.351562 36.605469 51.351562 36.292969 52.292969 L 36.46875 53.078125 L 36.605469 53.867188 L 35.976562 54.808594 C 35.074219 54.554688 35.074219 54.554688 34.09375 54.179688 L 33.464844 53.238281 C 33.425781 52.234375 33.425781 52.234375 33.464844 51.351562 L 34.40625 51.664062 L 34.40625 52.292969 L 35.347656 52.292969 C 35.160156 51.816406 34.96875 51.335938 34.78125 50.859375 L 34.433594 49.980469 C 34.167969 49.335938 33.871094 48.699219 33.5625 48.070312 C 33.011719 46.570312 32.847656 45.085938 32.835938 43.492188 Z M 29.066406 60.152344 L 30.007812 60.46875 C 30.421875 61.015625 30.421875 61.015625 30.636719 61.722656 C 30.4375 62.253906 30.230469 62.777344 30.007812 63.296875 C 29.644531 65.347656 29.652344 67.421875 29.664062 69.496094 L 29.664062 70.4375 C 29.667969 71.414062 29.671875 72.394531 29.675781 73.375 C 29.675781 74.042969 29.679688 74.714844 29.679688 75.382812 C 29.683594 77.011719 29.6875 78.640625 29.695312 80.273438 L 31.265625 80.273438 L 31.265625 81.214844 C 30.398438 81.402344 29.644531 81.53125 28.753906 81.53125 C 28.746094 79.417969 28.738281 77.304688 28.734375 75.191406 C 28.734375 74.472656 28.730469 73.757812 28.730469 73.039062 C 28.703125 65.820312 28.703125 65.820312 29 62.558594 C 29.0625 61.753906 29.078125 60.960938 29.066406 60.152344 " fill-opacity="1" fill-rule="nonzero"/><path fill="#020128" d="M 33.148438 56.695312 C 33.796875 56.832031 33.796875 56.832031 34.40625 57.007812 L 34.40625 58.265625 L 35.035156 58.265625 L 35.035156 59.210938 L 33.777344 59.839844 L 33.957031 60.507812 C 34.109375 61.515625 33.988281 62.300781 33.777344 63.296875 L 34.40625 63.609375 L 34.40625 64.238281 L 33.777344 64.554688 C 33.648438 65.285156 33.546875 66.015625 33.464844 66.753906 L 32.835938 66.753906 L 32.867188 66.191406 C 32.894531 65.425781 32.902344 64.6875 32.835938 63.925781 C 32.53125 63.394531 32.21875 62.871094 31.894531 62.351562 C 31.628906 61.398438 31.519531 60.515625 31.578125 59.523438 C 31.929688 58.503906 32.378906 57.46875 33.148438 56.695312 " fill-opacity="1" fill-rule="nonzero"/><path fill="#010035" d="M 60.792969 18.65625 L 61.421875 18.65625 C 61.484375 19.488281 61.542969 20.320312 61.597656 21.152344 L 61.652344 21.871094 C 61.691406 22.476562 61.714844 23.082031 61.738281 23.6875 L 61.421875 24 C 59.414062 23.78125 59.414062 23.78125 58.59375 23.371094 L 58.59375 24 L 57.96875 24 L 58.125 23.429688 C 58.363281 22.378906 58.25 21.5625 57.96875 20.542969 C 58.425781 20.226562 58.882812 19.910156 59.339844 19.597656 L 60.113281 19.070312 Z M 60.792969 18.65625 " fill-opacity="1" fill-rule="nonzero"/><path fill="#030228" d="M 42.886719 40.347656 L 43.515625 40.347656 C 43.832031 41.289062 43.867188 41.910156 43.863281 42.894531 L 43.859375 43.832031 L 43.851562 44.808594 L 43.847656 45.792969 C 43.84375 46.597656 43.835938 47.402344 43.832031 48.207031 L 42.886719 47.890625 L 42.886719 46.320312 L 42.261719 46.007812 C 42.195312 44.007812 42.375 42.28125 42.886719 40.347656 " fill-opacity="1" fill-rule="nonzero"/><path fill="#000049" d="M 57.339844 11.109375 C 57.96875 11.199219 58.597656 11.300781 59.222656 11.425781 C 58.921875 11.988281 58.621094 12.550781 58.320312 13.117188 L 57.8125 14.066406 C 57.339844 14.882812 57.339844 14.882812 56.710938 15.511719 L 55.453125 15.511719 L 55.453125 14.570312 L 56.394531 14.253906 L 55.769531 13.625 C 55.808594 12.859375 55.808594 12.859375 56.082031 12.054688 C 56.613281 11.464844 56.613281 11.464844 57.339844 11.109375 " fill-opacity="1" fill-rule="nonzero"/><path fill="#030228" d="M 31.578125 8.910156 L 39.117188 9.226562 C 38.804688 12.367188 38.804688 12.367188 38.492188 12.996094 L 37.546875 12.683594 L 38.175781 9.855469 L 33.148438 9.855469 L 32.523438 11.738281 L 32.207031 11.738281 L 32.207031 9.855469 L 31.265625 9.855469 Z M 31.578125 8.910156 " fill-opacity="1" fill-rule="nonzero"/><path fill="#020128" d="M 10.21875 19.597656 L 11.476562 19.914062 L 11.789062 23.058594 L 13.046875 23.058594 L 13.046875 23.6875 L 10.21875 23.6875 C 9.800781 22.851562 9.867188 22.082031 9.863281 21.164062 C 9.902344 20.542969 9.902344 20.542969 10.21875 19.597656 " fill-opacity="1" fill-rule="nonzero"/><path fill="#030228" d="M 51.683594 21.800781 C 52.429688 21.898438 52.429688 21.898438 52.941406 22.113281 L 52.941406 24 L 48.542969 24 L 48.230469 22.742188 L 48.894531 22.800781 C 49.84375 22.800781 49.84375 22.800781 50.761719 22.25 C 51.066406 22.101562 51.371094 21.953125 51.683594 21.800781 " fill-opacity="1" fill-rule="nonzero"/><path fill="#000049" d="M 16.1875 15.828125 L 17.441406 16.140625 C 17.363281 17.203125 17.363281 17.203125 17.128906 18.339844 C 16.539062 18.734375 16.539062 18.734375 15.871094 18.96875 C 15.550781 19.277344 15.234375 19.589844 14.929688 19.914062 C 15.089844 17.339844 15.089844 17.339844 15.734375 16.277344 Z M 16.1875 15.828125 " fill-opacity="1" fill-rule="nonzero"/><path fill="#030228" d="M 46.65625 9.226562 C 48.078125 9.199219 49.355469 9.191406 50.742188 9.539062 C 50.554688 11.0625 50.121094 12.246094 49.484375 13.625 L 48.542969 12.996094 L 49.171875 12.054688 C 49.222656 11.070312 49.222656 11.070312 49.171875 10.167969 L 48.089844 10.050781 L 46.972656 9.855469 Z M 46.65625 9.226562 " fill-opacity="1" fill-rule="nonzero"/><path fill="#01003c" d="M 40.6875 56.378906 C 41.53125 56.710938 41.996094 57.0625 42.632812 57.714844 C 43.257812 58.664062 43.414062 59.347656 43.515625 60.46875 L 42.886719 60.46875 L 41.632812 58.265625 L 39.746094 58.582031 C 39.863281 57.835938 39.863281 57.835938 40.0625 57.007812 Z M 40.6875 56.378906 " fill-opacity="1" fill-rule="nonzero"/><path fill="#030228" d="M 35.976562 16.140625 L 36.605469 16.140625 C 36.648438 16.945312 36.679688 17.75 36.703125 18.558594 L 36.742188 19.246094 C 36.757812 19.921875 36.75 20.507812 36.605469 21.171875 C 35.8125 22.121094 35.8125 22.121094 35.035156 22.742188 C 35.035156 21.484375 35.035156 21.484375 35.335938 20.910156 C 35.78125 19.976562 35.796875 19.132812 35.859375 18.105469 L 35.929688 16.992188 Z M 35.976562 16.140625 " fill-opacity="1" fill-rule="nonzero"/><path fill="#020128" d="M 17.757812 22.429688 L 18.367188 22.507812 C 20.027344 22.703125 21.457031 22.75 23.097656 22.429688 L 22.46875 23.6875 L 18.070312 23.6875 Z M 17.757812 22.429688 " fill-opacity="1" fill-rule="nonzero"/><path fill="#020129" d="M 28.4375 8.597656 L 28.4375 9.226562 L 27.808594 9.539062 L 27.957031 10.136719 L 28.144531 10.914062 L 28.332031 11.6875 L 28.4375 12.367188 L 28.125 12.996094 L 27.496094 12.996094 L 27.179688 11.425781 L 26.238281 11.109375 L 26.238281 10.484375 L 26.867188 10.484375 L 26.867188 8.910156 C 27.808594 8.597656 27.808594 8.597656 28.4375 8.597656 " fill-opacity="1" fill-rule="nonzero"/><path fill="#030228" d="M 58.910156 8.910156 C 60.046875 8.871094 60.046875 8.871094 61.109375 8.910156 L 61.421875 9.855469 C 61.011719 10.699219 61.011719 10.699219 60.480469 11.425781 L 59.851562 11.425781 L 60.480469 9.855469 L 58.28125 9.539062 Z M 58.910156 8.910156 " fill-opacity="1" fill-rule="nonzero"/><path fill="#020129" d="M 25.925781 21.484375 L 26.554688 21.484375 L 26.554688 22.429688 L 28.753906 23.058594 L 28.753906 23.6875 L 25.609375 23.6875 Z M 25.925781 21.484375 " fill-opacity="1" fill-rule="nonzero"/><path fill="#030228" d="M 33.148438 67.070312 L 33.777344 67.070312 C 34.285156 67.890625 34.40625 68.363281 34.445312 69.347656 L 34.40625 70.210938 L 33.148438 70.210938 L 33.464844 69.269531 C 33.375 68.535156 33.273438 67.800781 33.148438 67.070312 M 42.886719 66.125 L 43.515625 66.125 L 43.203125 69.269531 L 41.945312 69.582031 C 42.042969 69.066406 42.140625 68.546875 42.242188 68.03125 L 42.40625 67.160156 L 42.574219 66.441406 Z M 33.148438 71.15625 L 34.09375 71.46875 C 34.015625 72.058594 34.015625 72.058594 33.777344 72.726562 C 33.128906 73.121094 33.128906 73.121094 32.523438 73.355469 L 31.894531 72.726562 Z M 38.492188 42.234375 L 39.117188 42.234375 L 38.175781 46.320312 L 37.546875 46.007812 C 37.644531 45.4375 37.742188 44.867188 37.84375 44.296875 L 38.007812 43.335938 L 38.175781 42.546875 Z M 42.886719 61.722656 L 43.832031 61.722656 L 43.832031 64.867188 L 42.886719 64.554688 Z M 45.085938 22.429688 L 46.34375 22.429688 L 46.03125 23.6875 L 43.832031 23.6875 L 43.515625 23.058594 L 45.085938 23.058594 Z M 45.085938 22.429688 " fill-opacity="1" fill-rule="nonzero"/><path fill="#020128" d="M 55.769531 17.398438 L 56.394531 17.398438 L 56.394531 18.027344 L 55.769531 18.027344 L 55.511719 18.617188 C 55.140625 19.285156 55.140625 19.285156 54.195312 19.914062 L 54.195312 18.96875 C 54.941406 18.125 54.941406 18.125 55.769531 17.398438 " fill-opacity="1" fill-rule="nonzero"/><path fill="#01003a" d="M 48.230469 22.742188 L 50.425781 23.371094 L 49.800781 24 L 48.542969 24 Z M 48.230469 22.742188 " fill-opacity="1" fill-rule="nonzero"/><path fill="#030228" d="M 51.683594 10.167969 L 52.3125 10.167969 L 52.3125 11.109375 L 51.683594 11.109375 Z M 51.683594 10.167969 " fill-opacity="1" fill-rule="nonzero"/></svg>