<svg xmlns="http://www.w3.org/2000/svg" xmlns:xlink="http://www.w3.org/1999/xlink" width="96" zoomAndPan="magnify" viewBox="0 0 72 89.999999" height="120" preserveAspectRatio="xMidYMid meet" version="1.0"><rect x="-7.2" width="86.4" fill="#ffffff" y="-9" height="107.999999" fill-opacity="1"/><rect x="-7.2" width="86.4" fill="#ffffff" y="-9" height="107.999999" fill-opacity="1"/><path fill="#000043" d="M 18.890625 6.367188 L 21.03125 6.367188 C 21.234375 10.972656 21.355469 14.996094 19.25 19.214844 C 18.535156 20.488281 17.71875 21.675781 16.890625 22.875 C 14.480469 26.382812 13.15625 29.722656 12.117188 33.84375 C 11.980469 34.296875 11.980469 34.296875 11.839844 34.757812 C 11.621094 35.542969 11.433594 36.242188 11.402344 37.058594 C 12.003906 37.988281 12.003906 37.988281 12.828125 38.484375 L 12.945312 37.921875 C 13.390625 36.324219 14.117188 34.835938 14.777344 33.320312 C 15.089844 32.601562 15.398438 31.882812 15.695312 31.15625 C 16.492188 29.246094 17.539062 27.582031 18.671875 25.851562 C 19.363281 24.738281 19.859375 23.648438 20.320312 22.425781 L 21.03125 22.425781 C 21.15625 27.203125 21.125 31.6875 19.960938 36.34375 L 19.742188 37.308594 C 19.140625 39.621094 18.050781 41.667969 16.9375 43.765625 C 16.457031 44.777344 16.191406 45.59375 16.039062 46.691406 L 15.324219 46.691406 L 15.167969 47.316406 L 14.613281 49.546875 L 15.324219 49.546875 L 15.324219 50.261719 L 17.109375 50.261719 L 20.320312 44.195312 L 21.03125 44.195312 L 21.015625 45.207031 C 20.996094 46.46875 20.984375 47.730469 20.972656 48.992188 C 20.96875 49.53125 20.960938 50.074219 20.953125 50.617188 C 20.875 55.203125 21.328125 59.152344 23.527344 63.265625 L 23.898438 63.988281 C 24.425781 65.003906 24.972656 65.988281 25.574219 66.960938 C 26.027344 67.75 26.027344 67.75 26.09375 68.753906 L 26.027344 69.53125 L 24.597656 69.53125 C 24.148438 70.433594 24.207031 71.070312 24.21875 72.074219 L 24.230469 73.058594 L 24.242188 73.816406 L 24.957031 73.816406 L 25.242188 74.691406 L 25.625 75.84375 L 26 76.988281 C 26.359375 78.070312 26.359375 78.070312 26.761719 78.980469 C 27.8125 81.820312 27.914062 85.089844 27.808594 88.089844 C 26.472656 87.964844 25.660156 87.726562 24.488281 87.042969 C 23.527344 86.304688 23.527344 86.304688 23.171875 85.59375 L 23.886719 84.523438 C 23.695312 82.890625 22.765625 81.351562 22.089844 79.871094 C 21.746094 78.8125 21.746094 78.8125 21.847656 77.859375 C 22.054688 77.183594 22.277344 76.515625 22.503906 75.84375 C 22.859375 74.34375 22.738281 73.164062 22.460938 71.675781 L 22.273438 70.621094 C 22.101562 69.664062 21.925781 68.703125 21.746094 67.75 C 21.046875 68.011719 21.046875 68.011719 20.320312 68.460938 C 19.882812 69.101562 19.882812 69.101562 19.582031 69.84375 C 19.089844 70.917969 18.582031 71.832031 17.824219 72.746094 C 16.515625 72.492188 15.429688 71.933594 14.253906 71.316406 L 14.96875 68.820312 L 13.898438 68.820312 C 14.023438 65.003906 14.023438 65.003906 14.609375 63.824219 L 15.011719 63.289062 L 15.683594 62.394531 C 15.691406 61.597656 15.691406 61.597656 15.324219 60.96875 L 14.613281 60.253906 C 14.679688 59.585938 14.679688 59.585938 14.96875 58.828125 L 15.519531 58.203125 C 16.121094 57.40625 16.121094 57.40625 16.144531 56.324219 L 16.105469 55.167969 L 16.078125 54.003906 L 16.039062 53.117188 L 12.828125 54.1875 L 12.5625 55.816406 C 12.265625 57.492188 11.839844 59.089844 11.359375 60.722656 C 10.472656 63.960938 10.464844 67.007812 10.933594 70.3125 L 11.046875 71.675781 C 10.5625 72.292969 10.5625 72.292969 9.976562 72.746094 L 9.261719 72.746094 C 8.304688 71.097656 8.054688 69.894531 8.050781 67.996094 L 8.046875 67.257812 C 8.046875 66.746094 8.046875 66.234375 8.054688 65.71875 C 8.058594 64.941406 8.054688 64.167969 8.046875 63.390625 C 8.042969 60.832031 8.148438 58.679688 9.261719 56.328125 C 9.390625 55.839844 9.511719 55.351562 9.617188 54.855469 C 9.839844 53.910156 10.074219 53.289062 10.53125 52.402344 C 11.058594 51.308594 11.179688 50.398438 11.289062 49.199219 C 11.410156 48.433594 11.636719 47.839844 11.960938 47.140625 C 12.570312 45.972656 12.570312 45.972656 12.472656 44.550781 L 11.757812 44.195312 L 11.757812 43.480469 C 10.890625 43.835938 10.890625 43.835938 9.976562 44.550781 C 8.519531 46.648438 7.875 49.28125 7.121094 51.6875 C 6.425781 51.460938 6.425781 51.460938 5.695312 50.976562 C 4.902344 47.886719 5.195312 44.105469 5.695312 40.984375 C 6.050781 39.96875 6.480469 39.054688 6.976562 38.097656 C 7.597656 36.808594 8.042969 35.496094 8.480469 34.136719 C 8.558594 33.894531 8.636719 33.65625 8.71875 33.40625 C 8.902344 32.839844 9.082031 32.273438 9.261719 31.703125 L 9.976562 31.703125 C 11.015625 28 11.015625 28 11.582031 24.210938 C 11.691406 22.839844 12.140625 21.902344 12.800781 20.707031 C 13.234375 19.832031 13.492188 18.96875 13.765625 18.03125 C 14.527344 15.625 15.699219 13.476562 16.921875 11.277344 C 17.8125 9.65625 18.464844 8.167969 18.890625 6.367188 " fill-opacity="1" fill-rule="nonzero"/><path fill="#000044" d="M 51.707031 6.367188 L 52.417969 6.367188 C 53.175781 7.214844 53.175781 7.214844 53.847656 8.152344 L 53.847656 8.863281 C 55.296875 8.796875 55.296875 8.796875 56.699219 8.507812 C 57.359375 7.628906 57.359375 7.628906 57.769531 6.722656 L 58.839844 6.722656 L 58.484375 10.648438 L 59.039062 9.980469 C 59.910156 9.222656 59.910156 9.222656 61.203125 8.863281 L 62.40625 8.507812 L 63.121094 7.078125 L 66.328125 8.152344 L 65.972656 10.292969 L 65.050781 10.511719 L 63.855469 10.804688 L 62.664062 11.09375 C 61.730469 11.265625 61.730469 11.265625 61.335938 11.71875 C 61.261719 12.667969 61.304688 13.398438 61.582031 14.304688 L 62.050781 14.929688 C 62.640625 15.0625 63.238281 15.179688 63.832031 15.289062 C 65.015625 15.777344 65.015625 15.777344 65.972656 16.714844 C 66.167969 18.042969 66.078125 19.308594 65.972656 20.640625 L 65.972656 23.140625 C 66.195312 23.738281 66.433594 24.335938 66.6875 24.921875 L 63.832031 24.921875 C 61.613281 26.539062 59.015625 28.855469 57.769531 31.347656 C 57.753906 32.179688 57.753906 33.011719 57.769531 33.84375 C 58.773438 33.78125 58.773438 33.78125 59.910156 33.488281 C 60.839844 32.824219 60.839844 32.824219 61.671875 31.972656 C 63.046875 30.671875 64.382812 29.519531 65.972656 28.492188 L 66.6875 28.492188 C 66.800781 30.652344 66.578125 32.257812 65.617188 34.203125 L 64.949219 35.183594 C 64.214844 36.308594 63.851562 37.269531 63.410156 38.53125 C 62.964844 39.652344 62.964844 39.652344 62.40625 40.625 C 61.390625 41.355469 60.402344 41.75 59.195312 42.054688 L 59.417969 43.078125 L 59.554688 44.195312 L 58.839844 44.910156 L 57.769531 44.910156 L 57.792969 43.890625 L 57.8125 42.542969 L 57.839844 41.214844 C 57.769531 39.902344 57.601562 38.964844 57.054688 37.769531 L 55.628906 36.699219 L 55.273438 42.765625 L 51.707031 42.410156 C 51.671875 40.664062 51.644531 38.917969 51.628906 37.171875 C 51.621094 36.578125 51.609375 35.984375 51.597656 35.390625 C 51.582031 34.535156 51.570312 33.679688 51.566406 32.828125 L 51.542969 32.027344 C 51.542969 31.269531 51.542969 31.269531 51.707031 29.917969 C 52.410156 28.898438 52.410156 28.898438 53.132812 28.136719 L 53.421875 27.265625 C 53.964844 26.097656 54.683594 25.476562 55.671875 24.671875 C 56.558594 24.0625 57.441406 23.75 58.484375 23.496094 C 58.632812 22.5625 58.632812 22.5625 58.484375 21.355469 C 57.964844 20.234375 57.351562 19.1875 56.699219 18.144531 L 55.628906 18.144531 C 55.039062 18.527344 55.039062 18.527344 54.492188 19.035156 L 53.488281 19.925781 L 54.070312 20.820312 L 54.558594 22.070312 C 54.253906 24 53.585938 25.652344 52.777344 27.421875 L 51.707031 27.421875 C 51.671875 25.523438 51.644531 23.625 51.628906 21.726562 C 51.621094 21.078125 51.609375 20.433594 51.597656 19.789062 C 51.582031 18.859375 51.570312 17.929688 51.566406 17 L 51.542969 16.128906 C 51.542969 15.347656 51.5625 14.628906 51.707031 13.859375 C 52.410156 12.835938 52.410156 12.835938 53.132812 12.074219 C 53.414062 11.117188 53.414062 11.117188 53.488281 10.292969 L 51.707031 9.933594 Z M 51.707031 6.367188 " fill-opacity="1" fill-rule="nonzero"/><path fill="#000043" d="M 51.707031 44.550781 L 53.847656 44.910156 L 53.847656 46.335938 L 54.558594 46.335938 L 54.558594 44.910156 L 55.628906 45.265625 L 55.273438 47.761719 L 55.988281 47.761719 L 56.34375 46.691406 C 57.382812 47.078125 58.046875 47.328125 58.839844 48.121094 C 58.960938 48.800781 58.960938 48.800781 59.019531 49.570312 L 59.195312 50.976562 C 60.019531 51.386719 60.578125 51.378906 61.492188 51.421875 C 62.359375 51.507812 62.359375 51.507812 63.121094 51.6875 C 63.855469 52.515625 63.855469 52.515625 64.191406 53.472656 L 64.191406 54.902344 L 65.261719 55.257812 C 65.972656 56.371094 66.316406 57.183594 66.402344 58.507812 C 66.316406 60.179688 66.015625 61.742188 65.660156 63.375 L 65.472656 64.296875 C 65.179688 65.664062 64.980469 66.5625 64.191406 67.75 C 63.355469 67.710938 63.355469 67.710938 62.40625 67.390625 C 61.90625 66.402344 61.90625 66.402344 61.515625 65.117188 C 61.371094 64.660156 61.226562 64.207031 61.078125 63.753906 L 60.855469 63.0625 C 60.390625 61.738281 59.738281 60.5 59.097656 59.257812 L 58.839844 58.46875 L 59.554688 57.398438 L 60.265625 57.398438 C 60.054688 56.929688 59.839844 56.460938 59.621094 55.996094 L 59.257812 55.203125 L 58.839844 54.542969 L 57.769531 54.1875 C 57.019531 54.789062 57.019531 54.789062 56.34375 55.613281 C 56.207031 56.742188 56.339844 57.382812 56.699219 58.46875 L 56.355469 59.101562 C 55.90625 59.925781 55.90625 59.925781 55.996094 61.050781 L 56.121094 62.304688 L 56.238281 63.570312 L 56.34375 64.535156 L 57.054688 64.535156 L 57.414062 65.964844 L 58.125 65.964844 C 59.316406 68.636719 60.035156 71.3125 60.625 74.171875 L 60.867188 75.109375 C 60.980469 75.957031 60.980469 75.957031 60.765625 76.742188 C 60.398438 77.476562 60.046875 78.152344 59.554688 78.8125 C 58.574219 79.167969 58.574219 79.167969 57.769531 79.167969 C 56.691406 77.914062 55.691406 76.714844 54.917969 75.242188 L 54.917969 74.527344 L 52.777344 74.171875 L 52.800781 75.308594 C 52.78125 76.441406 52.644531 77.355469 52.417969 78.453125 C 52.40625 79.167969 52.402344 79.882812 52.417969 80.597656 L 50.992188 80.953125 L 50.992188 81.667969 L 51.660156 81.980469 C 52.417969 82.378906 52.417969 82.378906 53.132812 83.09375 L 53.132812 84.523438 C 52.480469 84.421875 52.480469 84.421875 51.707031 84.164062 C 49.738281 82.027344 48.453125 79.019531 47.054688 76.484375 C 46.382812 75.253906 46.382812 75.253906 45.644531 74.171875 L 45.464844 73.234375 L 45.285156 72.386719 L 44.574219 72.03125 L 44.574219 70.605469 C 45.265625 69.984375 45.980469 69.390625 46.714844 68.820312 L 47.070312 68.105469 L 48.140625 68.105469 C 48.378906 68.566406 48.617188 69.027344 48.851562 69.488281 L 49.253906 70.265625 C 49.566406 70.960938 49.566406 70.960938 49.566406 71.675781 C 51.230469 71.546875 51.230469 71.546875 52.730469 70.894531 C 53.328125 69.933594 53.449219 69.234375 53.488281 68.105469 C 52.757812 67.070312 52.757812 67.070312 51.730469 66.1875 L 50.714844 65.242188 L 49.921875 64.535156 C 50.652344 61.644531 51.671875 59.394531 53.625 57.132812 L 54.203125 56.328125 C 54.132812 55.632812 54.132812 55.632812 53.847656 54.902344 C 53.757812 53.652344 53.757812 53.652344 53.847656 52.402344 C 54.359375 51.644531 54.359375 51.644531 54.917969 50.976562 C 55.171875 50.03125 55.171875 50.03125 55.273438 49.191406 L 53.847656 49.191406 L 53.488281 50.261719 C 52.574219 50.6875 52.574219 50.6875 51.707031 50.976562 C 51.351562 50.261719 51.351562 50.261719 51.394531 48.941406 C 51.429688 48.414062 51.464844 47.890625 51.507812 47.363281 L 51.5625 46.546875 C 51.609375 45.882812 51.65625 45.214844 51.707031 44.550781 M 64.191406 56.683594 L 64.191406 57.398438 L 65.261719 57.398438 L 65.261719 56.683594 Z M 64.191406 56.683594 " fill-opacity="1" fill-rule="nonzero"/><path fill="#010131" d="M 12.472656 6.007812 C 13.308594 6.109375 14.140625 6.226562 14.96875 6.367188 C 14.96875 7.792969 14.96875 7.792969 14.628906 8.480469 L 14.167969 9.175781 L 13.675781 9.921875 L 13.1875 10.648438 L 12.773438 11.308594 C 12.457031 11.816406 12.109375 12.304688 11.757812 12.789062 L 11.046875 12.789062 L 11.402344 15.289062 L 9.976562 15.289062 L 9.933594 16.074219 C 9.761719 18.738281 9.410156 21.316406 8.550781 23.851562 L 7.835938 24.566406 C 7.5625 25.300781 7.339844 26.039062 7.113281 26.789062 L 6.765625 27.421875 C 6.039062 27.710938 6.039062 27.710938 5.339844 27.777344 L 4.980469 27.421875 C 4.5 22.183594 6.195312 17.367188 7.917969 12.515625 C 8.144531 11.863281 8.34375 11.199219 8.539062 10.53125 C 8.96875 9.417969 9.523438 8.734375 10.332031 7.859375 L 11.089844 7.027344 C 11.757812 6.367188 11.757812 6.367188 12.472656 6.007812 " fill-opacity="1" fill-rule="nonzero"/><path fill="#000031" d="M 12.117188 47.050781 C 12.359375 47.9375 12.472656 48.613281 12.472656 49.546875 L 11.757812 49.546875 L 11.757812 52.761719 L 13.1875 53.117188 C 12.65625 55.710938 12.085938 58.25 11.335938 60.789062 C 10.460938 63.996094 10.46875 67.039062 10.933594 70.3125 L 11.046875 71.675781 C 10.5625 72.292969 10.5625 72.292969 9.976562 72.746094 L 9.261719 72.746094 C 8.304688 71.097656 8.054688 69.894531 8.050781 67.996094 L 8.046875 67.257812 C 8.046875 66.746094 8.046875 66.234375 8.054688 65.71875 C 8.058594 64.941406 8.054688 64.167969 8.046875 63.390625 C 8.042969 60.832031 8.148438 58.679688 9.261719 56.328125 C 9.390625 55.839844 9.511719 55.351562 9.617188 54.855469 C 9.839844 53.910156 10.074219 53.289062 10.53125 52.402344 C 10.996094 51.4375 11.140625 50.890625 11.246094 49.859375 C 11.378906 48.683594 11.503906 48.03125 12.117188 47.050781 " fill-opacity="1" fill-rule="nonzero"/><path fill="#010131" d="M 41.007812 75.601562 C 42.0625 75.597656 42.0625 75.597656 43.144531 75.957031 C 43.695312 76.90625 43.695312 76.90625 44.082031 78.121094 C 44.5625 79.535156 45.027344 80.882812 45.730469 82.203125 C 46.261719 83.261719 46.566406 84.070312 46.714844 85.234375 L 47.425781 85.234375 L 48.140625 87.734375 C 47.070312 88.15625 46.246094 88.464844 45.09375 88.378906 L 44.214844 88.089844 C 43.699219 87.476562 43.699219 87.476562 43.289062 86.6875 C 43.136719 86.402344 42.984375 86.121094 42.828125 85.828125 L 42.367188 84.921875 C 42.054688 84.335938 41.746094 83.75 41.4375 83.164062 L 41.03125 82.371094 C 40.621094 81.589844 40.621094 81.589844 39.9375 80.597656 L 40.472656 80.105469 L 41.007812 79.527344 L 41.007812 78.8125 L 39.9375 78.453125 C 40.03125 77.738281 40.152344 77.023438 40.292969 76.3125 Z M 18.890625 6.367188 L 21.03125 6.367188 C 21.234375 10.972656 21.355469 14.996094 19.25 19.214844 C 18.535156 20.488281 17.71875 21.675781 16.890625 22.875 C 14.480469 26.382812 13.152344 29.714844 12.117188 33.84375 L 11.046875 33.132812 L 11.269531 32.128906 L 11.402344 30.992188 L 10.6875 29.917969 C 10.761719 29.070312 10.761719 29.070312 10.980469 28.089844 C 11.25 26.785156 11.464844 25.515625 11.582031 24.1875 L 11.757812 22.78125 L 12.472656 22.070312 L 12.460938 22.746094 L 12.449219 23.628906 L 12.4375 24.507812 C 12.421875 25.296875 12.421875 25.296875 12.828125 25.996094 C 13.535156 25.355469 13.972656 24.796875 14.457031 23.964844 L 14.96875 23.140625 L 15.683594 23.140625 L 15.972656 22.375 C 16.410156 21.320312 16.914062 20.332031 17.441406 19.324219 C 18.613281 16.996094 19.65625 14.675781 19.671875 12.03125 L 19.605469 11.003906 L 18.179688 10.292969 L 17.109375 11.363281 L 17.398438 10.671875 C 17.949219 9.253906 18.421875 7.8125 18.890625 6.367188 M 65.972656 37.414062 L 66.6875 37.414062 L 66.6875 51.6875 L 65.972656 51.6875 C 65.359375 50.914062 64.773438 50.117188 64.210938 49.304688 L 63.734375 48.625 C 61.925781 46.054688 61.925781 46.054688 61.335938 44.910156 L 61.335938 43.480469 L 62.761719 43.839844 L 62.832031 43.15625 C 63.035156 41.738281 63.253906 40.605469 64.054688 39.394531 C 64.667969 38.6875 65.257812 38.019531 65.972656 37.414062 " fill-opacity="1" fill-rule="nonzero"/><path fill="#010131" d="M 38.507812 73.457031 L 39.578125 73.816406 C 39.667969 76.023438 39.394531 78.078125 39.023438 80.257812 C 38.832031 81.367188 38.832031 81.367188 38.867188 82.738281 L 39.179688 83.496094 C 39.660156 84.726562 39.867188 85.9375 40.09375 87.234375 C 40.292969 88.085938 40.582031 88.753906 41.007812 89.519531 L 38.152344 89.519531 C 37.664062 87.988281 37.355469 86.515625 37.128906 84.921875 C 36.90625 83.464844 36.578125 82.292969 35.921875 80.976562 C 35.546875 80.203125 35.546875 80.203125 35.300781 79.527344 C 35.542969 78.542969 35.542969 78.542969 36.011719 77.742188 L 36.167969 76.847656 C 36.410156 75.78125 36.8125 75.066406 37.441406 74.171875 Z M 38.507812 73.457031 " fill-opacity="1" fill-rule="nonzero"/><path fill="#000043" d="M 27.453125 69.890625 C 28.738281 70.40625 29.4375 70.683594 30.460938 71.472656 C 31.285156 72.085938 32.003906 72.523438 32.9375 72.992188 L 33.871094 73.457031 L 34.230469 74.171875 C 33.964844 75.097656 33.679688 75.988281 33.359375 76.894531 L 33.097656 77.65625 C 32.882812 78.28125 32.664062 78.902344 32.445312 79.527344 C 31.933594 79.613281 31.421875 79.695312 30.90625 79.769531 L 30.042969 79.910156 L 29.234375 79.882812 C 28.597656 79.355469 28.597656 79.355469 28.164062 78.8125 L 28.5 77.988281 C 28.765625 77.316406 29.007812 76.640625 29.234375 75.957031 L 28.164062 75.957031 Z M 27.453125 69.890625 " fill-opacity="1" fill-rule="nonzero"/><path fill="#010131" d="M 15.683594 73.457031 C 16.617188 73.59375 16.617188 73.59375 17.464844 73.816406 L 17.464844 74.886719 L 18.179688 74.886719 C 18.46875 76.148438 18.757812 77.414062 19.046875 78.679688 L 19.296875 79.757812 C 19.6875 81.460938 20.0625 83.152344 20.320312 84.878906 C 18.867188 84.378906 17.867188 83.796875 16.753906 82.738281 C 15.839844 81.597656 14.949219 80.457031 14.253906 79.167969 L 14.613281 78.097656 C 14.707031 77.085938 14.769531 76.078125 14.832031 75.0625 L 14.96875 74.171875 Z M 29.949219 80.597656 L 30.664062 80.597656 C 31.242188 81.132812 31.242188 81.132812 31.734375 81.667969 L 32.089844 80.953125 C 33.773438 83.644531 34.621094 86 34.941406 89.160156 C 33.957031 89.425781 33.289062 89.546875 32.28125 89.320312 L 31.441406 89.003906 L 30.589844 88.695312 L 29.949219 88.449219 L 29.882812 87.769531 L 29.792969 86.886719 C 29.765625 86.597656 29.734375 86.304688 29.707031 86.007812 C 29.632812 85.21875 29.632812 85.21875 29.234375 84.523438 C 29.1875 83.566406 29.21875 82.621094 29.234375 81.667969 L 29.949219 81.667969 Z M 52.777344 12.789062 L 53.847656 13.503906 L 53.289062 14.441406 C 52.675781 15.613281 52.675781 15.613281 52.886719 16.847656 L 53.132812 17.785156 L 54.203125 17.785156 L 54.558594 19.214844 L 53.488281 19.925781 L 54.070312 20.820312 L 54.558594 22.070312 C 54.253906 24 53.585938 25.652344 52.777344 27.421875 L 51.707031 27.421875 C 51.679688 25.511719 51.660156 23.597656 51.648438 21.6875 C 51.640625 21.035156 51.636719 20.386719 51.625 19.734375 C 51.613281 18.800781 51.605469 17.867188 51.601562 16.929688 C 51.597656 16.640625 51.589844 16.347656 51.585938 16.050781 C 51.585938 15.226562 51.585938 15.226562 51.707031 13.859375 C 52.25 13.238281 52.25 13.238281 52.777344 12.789062 M 62.761719 7.078125 L 65.972656 7.792969 C 66.113281 8.382812 66.230469 8.980469 66.328125 9.578125 L 65.972656 10.292969 C 65.273438 10.496094 64.566406 10.671875 63.855469 10.828125 C 63.128906 10.984375 62.410156 11.164062 61.691406 11.363281 L 60.980469 12.074219 C 59.867188 11.941406 59.867188 11.941406 58.839844 11.71875 L 58.484375 10.648438 C 59.039062 9.980469 59.039062 9.980469 59.910156 9.222656 C 61.246094 8.773438 61.246094 8.773438 62.40625 8.507812 Z M 22.460938 62.753906 L 23.171875 62.753906 C 23.652344 63.546875 24.128906 64.339844 24.597656 65.140625 L 25.011719 65.816406 C 25.609375 66.835938 26.015625 67.617188 26.113281 68.804688 L 26.027344 69.53125 L 24.597656 69.53125 L 23.527344 73.457031 C 22.605469 72.535156 22.457031 71.871094 22.101562 70.605469 C 21.84375 69.300781 21.605469 67.992188 21.390625 66.679688 L 22.460938 67.035156 L 22.460938 67.75 L 23.171875 67.75 C 22.917969 65.234375 22.917969 65.234375 22.460938 62.753906 M 51.707031 44.550781 L 53.847656 44.910156 L 53.847656 46.335938 L 54.558594 46.335938 L 54.558594 44.910156 L 55.628906 45.265625 L 55.628906 49.191406 L 53.847656 49.191406 L 53.488281 50.261719 C 52.574219 50.6875 52.574219 50.6875 51.707031 50.976562 C 51.351562 50.261719 51.351562 50.261719 51.394531 48.941406 C 51.429688 48.414062 51.464844 47.890625 51.507812 47.363281 L 51.5625 46.546875 C 51.609375 45.882812 51.65625 45.214844 51.707031 44.550781 M 20.320312 44.195312 L 21.03125 44.195312 L 21.03125 54.1875 L 19.960938 53.832031 L 19.960938 49.90625 L 18.890625 49.546875 L 17.824219 49.90625 C 18.035156 48.425781 18.539062 47.339844 19.273438 46.046875 L 19.863281 44.992188 Z M 20.320312 22.425781 L 21.03125 22.425781 C 21.042969 23.765625 21.050781 25.101562 21.054688 26.441406 L 21.0625 27.589844 L 21.066406 28.699219 L 21.074219 29.71875 C 21.035156 30.554688 20.914062 31.261719 20.675781 32.0625 L 19.605469 31.703125 L 19.960938 27.421875 L 18.535156 27.066406 L 18.222656 27.757812 L 17.824219 28.492188 L 17.109375 28.847656 C 17.480469 27.800781 17.890625 26.964844 18.515625 26.039062 C 19.292969 24.855469 19.792969 23.738281 20.320312 22.425781 M 51.707031 30.277344 L 52.0625 30.277344 L 52.417969 41.339844 L 53.847656 40.984375 C 54.253906 40.242188 54.253906 40.242188 54.46875 39.355469 L 54.730469 38.460938 L 54.917969 37.769531 L 55.628906 37.769531 L 55.273438 42.765625 L 51.707031 42.410156 Z M 65.972656 28.492188 L 66.6875 28.492188 C 66.800781 30.652344 66.574219 32.253906 65.617188 34.203125 C 65.171875 34.949219 64.699219 35.640625 64.191406 36.34375 L 63.476562 35.988281 C 63.941406 34.238281 64.519531 32.640625 65.261719 30.992188 C 64.179688 31.199219 63.113281 31.429688 62.050781 31.703125 C 63.210938 30.449219 64.507812 29.375 65.972656 28.492188 " fill-opacity="1" fill-rule="nonzero"/><path fill="#000031" d="M 62.761719 15.289062 C 63.726562 15.421875 64.460938 15.597656 65.316406 16.074219 L 65.972656 16.714844 C 66.113281 17.628906 66.113281 17.628906 66.0625 18.65625 L 66.023438 19.679688 L 65.972656 20.640625 L 65.972656 23.140625 C 66.195312 23.738281 66.433594 24.335938 66.6875 24.921875 L 65.261719 24.921875 C 64.613281 24.34375 64.613281 24.34375 64.191406 23.496094 C 64.277344 22.359375 64.277344 22.359375 64.546875 21.355469 L 64.902344 20.996094 C 64.988281 20.179688 64.988281 20.179688 64.992188 19.234375 L 65.019531 18.265625 L 64.902344 17.429688 L 63.832031 16.714844 L 63.832031 16 L 62.761719 15.644531 Z M 62.761719 15.289062 " fill-opacity="1" fill-rule="nonzero"/><path fill="#000032" d="M 56.34375 36.34375 C 57.011719 36.589844 57.011719 36.589844 57.769531 37.058594 C 58.351562 38.101562 58.484375 38.824219 58.527344 40.023438 L 58.484375 40.984375 L 59.464844 40.625 C 60.625 40.269531 60.625 40.269531 62.050781 40.269531 L 62.050781 40.984375 L 59.195312 42.054688 L 59.417969 43.078125 L 59.554688 44.195312 L 58.839844 44.910156 L 57.769531 44.910156 L 57.792969 43.890625 L 57.8125 42.542969 L 57.839844 41.214844 C 57.742188 39.402344 57.199219 37.929688 56.34375 36.34375 " fill-opacity="1" fill-rule="nonzero"/><path fill="#010131" d="M 5.695312 43.839844 L 6.050781 43.839844 L 6.410156 47.050781 L 8.191406 47.050781 C 7.996094 48.679688 7.6875 50.144531 7.121094 51.6875 C 6.425781 51.46875 6.425781 51.46875 5.695312 50.976562 C 5.160156 48.65625 5.210938 46.164062 5.695312 43.839844 M 61.691406 24.921875 L 62.40625 25.28125 C 61.875 26.5625 61.132812 27.277344 60.109375 28.203125 C 58.957031 29.320312 58.246094 30.195312 57.746094 31.726562 C 57.625 32.191406 57.511719 32.660156 57.414062 33.132812 L 56.34375 33.132812 C 56.535156 31.222656 57.222656 29.792969 58.125 28.136719 L 58.839844 28.136719 C 59.285156 27.601562 59.285156 27.601562 59.710938 26.929688 C 60.34375 25.964844 60.691406 25.589844 61.691406 24.921875 " fill-opacity="1" fill-rule="nonzero"/><path fill="#000031" d="M 48.496094 78.453125 L 49.210938 78.453125 L 49.921875 79.527344 L 51.351562 79.527344 L 52.417969 79.882812 L 52.417969 80.597656 L 50.992188 80.953125 L 50.992188 81.667969 L 51.660156 81.980469 C 52.417969 82.378906 52.417969 82.378906 53.132812 83.09375 L 53.132812 84.523438 C 52.488281 84.4375 52.488281 84.4375 51.707031 84.164062 C 51.136719 83.492188 51.136719 83.492188 50.613281 82.648438 L 50.0625 81.769531 L 49.566406 80.953125 L 48.898438 79.90625 C 48.496094 79.167969 48.496094 79.167969 48.496094 78.453125 " fill-opacity="1" fill-rule="nonzero"/><path fill="#010131" d="M 19.605469 32.417969 L 20.320312 32.417969 C 20.53125 35.105469 19.824219 37.402344 18.890625 39.914062 C 18.546875 40.632812 18.191406 41.347656 17.824219 42.054688 L 16.753906 41.339844 L 17.375 40.292969 C 18.617188 37.851562 19.039062 35.074219 19.605469 32.417969 " fill-opacity="1" fill-rule="nonzero"/><path fill="#000031" d="M 23.886719 84.523438 L 24.597656 85.234375 L 24.242188 85.949219 L 26.382812 86.304688 L 26.738281 84.523438 L 27.808594 84.878906 L 27.808594 88.089844 C 26.472656 87.964844 25.660156 87.726562 24.488281 87.042969 C 23.527344 86.304688 23.527344 86.304688 23.171875 85.59375 Z M 23.886719 84.523438 " fill-opacity="1" fill-rule="nonzero"/><path fill="#000032" d="M 51.707031 6.367188 L 52.417969 6.367188 C 53.175781 7.214844 53.175781 7.214844 53.847656 8.152344 L 53.847656 8.863281 L 55.273438 9.222656 L 55.273438 9.933594 C 54.492188 10.335938 54.492188 10.335938 53.488281 10.648438 C 52.488281 10.335938 52.488281 10.335938 51.707031 9.933594 Z M 51.707031 6.367188 " fill-opacity="1" fill-rule="nonzero"/><path fill="#010131" d="M 64.546875 63.109375 L 65.261719 63.109375 C 65.21875 63.683594 65.175781 64.253906 65.125 64.828125 C 65.101562 65.144531 65.078125 65.464844 65.050781 65.792969 C 64.902344 66.679688 64.902344 66.679688 64.191406 67.75 C 63.34375 67.683594 63.34375 67.683594 62.40625 67.390625 C 61.917969 66.542969 61.917969 66.542969 61.691406 65.605469 L 62.050781 64.535156 L 62.761719 65.605469 L 63.832031 65.964844 L 63.988281 64.738281 L 64.191406 63.464844 Z M 64.546875 55.257812 L 65.261719 55.257812 C 65.925781 56.398438 66.316406 57.257812 66.441406 58.582031 C 66.308594 60.136719 66 61.601562 65.617188 63.109375 L 64.902344 62.753906 C 64.894531 62.246094 64.886719 61.742188 64.882812 61.234375 L 64.867188 60.382812 C 64.902344 59.574219 65.035156 58.886719 65.261719 58.113281 L 64.546875 58.113281 L 64.546875 57.398438 L 65.261719 57.398438 L 64.546875 56.328125 Z M 4.980469 6.007812 C 5.578125 5.996094 6.171875 5.996094 6.765625 6.007812 C 6.765625 7.390625 6.667969 7.796875 6.050781 8.953125 L 5.652344 9.71875 L 5.339844 10.292969 L 4.625 10.292969 C 4.617188 9.644531 4.609375 9 4.601562 8.351562 L 4.589844 7.257812 L 4.625 6.367188 Z M 4.980469 6.007812 " fill-opacity="1" fill-rule="nonzero"/><path fill="#000031" d="M 16.394531 42.054688 L 17.464844 42.054688 L 17.152344 42.765625 C 16.667969 44.0625 16.359375 45.347656 16.039062 46.691406 L 15.324219 46.691406 L 14.96875 48.121094 L 13.898438 47.761719 L 14.546875 46.515625 C 15.273438 45.058594 15.847656 43.585938 16.394531 42.054688 " fill-opacity="1" fill-rule="nonzero"/><path fill="#010131" d="M 27.453125 69.890625 C 28.957031 70.492188 30.066406 71.117188 31.375 72.03125 C 30.304688 72.386719 30.304688 72.386719 29.347656 72.230469 L 28.523438 72.03125 L 28.523438 74.886719 L 28.164062 74.886719 Z M 14.253906 64.535156 L 14.613281 64.535156 C 15.839844 68.992188 15.839844 68.992188 15.683594 71.316406 L 14.253906 71.316406 L 14.96875 68.820312 L 13.898438 68.820312 Z M 55.988281 76.3125 L 56.699219 76.671875 L 56.699219 77.382812 C 58.511719 77.425781 58.511719 77.425781 60.265625 77.027344 C 60.019531 77.898438 60.019531 77.898438 59.554688 78.8125 C 58.617188 79.101562 58.617188 79.101562 57.769531 79.167969 C 56.375 77.566406 56.375 77.566406 55.988281 77.027344 Z M 56.34375 46.691406 C 57.382812 47.078125 58.046875 47.328125 58.839844 48.121094 C 58.882812 49.058594 58.882812 49.058594 58.839844 49.90625 L 57.769531 49.546875 L 57.769531 48.476562 L 56.34375 47.761719 Z M 47.070312 68.105469 L 48.140625 68.105469 C 48.378906 68.566406 48.617188 69.027344 48.851562 69.488281 L 49.253906 70.265625 C 49.566406 70.960938 49.566406 70.960938 49.566406 71.675781 L 48.851562 71.675781 C 48.242188 71.09375 47.648438 70.5 47.070312 69.890625 L 46.355469 69.175781 Z M 50.28125 62.753906 C 50.746094 63.453125 51.207031 64.160156 51.660156 64.871094 C 52.292969 65.792969 53.023438 66.632812 53.847656 67.390625 L 53.488281 68.105469 C 52.882812 67.554688 52.28125 66.996094 51.683594 66.433594 L 50.667969 65.492188 L 49.921875 64.535156 C 49.992188 63.527344 49.992188 63.527344 50.28125 62.753906 M 11.046875 73.457031 L 11.757812 73.457031 C 12.019531 74.164062 12.257812 74.878906 12.472656 75.601562 L 12.117188 76.3125 C 11.445312 76.246094 11.445312 76.246094 10.6875 75.957031 C 10.242188 75.042969 10.242188 75.042969 9.976562 74.171875 L 11.046875 74.171875 Z M 57.769531 6.722656 L 58.839844 6.722656 L 58.484375 8.507812 L 57.414062 8.507812 L 57.414062 9.222656 L 56.34375 9.578125 L 55.628906 8.863281 L 56.699219 8.507812 L 57.234375 7.59375 Z M 9.976562 42.765625 L 11.402344 43.480469 L 10.53125 44.148438 C 9.605469 44.816406 9.605469 44.816406 9.261719 45.621094 L 8.191406 45.621094 C 8.617188 44.417969 9.003906 43.605469 9.976562 42.765625 M 16.039062 57.398438 L 16.394531 58.113281 C 16.0625 58.957031 15.707031 59.789062 15.324219 60.609375 L 14.613281 60.253906 C 14.828125 59.054688 15.269531 58.335938 16.039062 57.398438 M 63.121094 36.34375 L 63.832031 36.34375 C 63.636719 37.546875 63.457031 38.15625 62.761719 39.199219 C 62.539062 38.375 62.539062 38.375 62.40625 37.414062 Z M 24.957031 70.960938 L 26.027344 71.316406 L 26.027344 72.386719 L 24.957031 72.386719 Z M 62.40625 68.460938 L 63.832031 68.820312 L 63.832031 69.890625 L 62.40625 69.175781 Z M 62.40625 68.460938 " fill-opacity="1" fill-rule="nonzero"/></svg>