<svg xmlns="http://www.w3.org/2000/svg" xmlns:xlink="http://www.w3.org/1999/xlink" width="96" zoomAndPan="magnify" viewBox="0 0 72 89.999999" height="120" preserveAspectRatio="xMidYMid meet" version="1.0"><rect x="-7.2" width="86.4" fill="#ffffff" y="-9" height="107.999999" fill-opacity="1"/><rect x="-7.2" width="86.4" fill="#ffffff" y="-9" height="107.999999" fill-opacity="1"/><path fill="#010015" d="M 22.289062 15.980469 L 23.296875 16.316406 C 23.621094 17.027344 23.621094 17.027344 23.898438 17.960938 C 24 18.296875 24.101562 18.632812 24.207031 18.980469 L 24.515625 20.058594 L 24.832031 21.113281 C 25.355469 22.878906 25.769531 24.578125 25.988281 26.40625 L 26.324219 27.414062 L 25.652344 28.085938 L 26.132812 28.84375 C 26.980469 30.335938 27.105469 31.707031 27.097656 33.402344 C 26.996094 34.140625 26.996094 34.140625 26.324219 35.128906 L 25.652344 35.820312 L 25.652344 36.492188 L 24.976562 36.492188 L 24.78125 37.109375 L 24.515625 37.921875 L 24.257812 38.726562 C 23.96875 39.519531 23.96875 39.519531 23.585938 40.207031 C 23.246094 40.847656 23.246094 40.847656 23.339844 41.539062 C 23.4375 41.984375 23.535156 42.433594 23.632812 42.882812 L 23.632812 43.554688 L 23.183594 44.144531 C 22.40625 45.195312 22.195312 46.335938 21.910156 47.589844 L 21.738281 48.316406 C 21.582031 48.96875 21.429688 49.625 21.28125 50.28125 L 21.078125 50.992188 C 20.667969 52.921875 20.671875 55.082031 21.230469 56.96875 C 21.460938 57.523438 21.703125 58.070312 21.960938 58.613281 C 22.652344 60.1875 22.65625 61.691406 22.625 63.394531 L 21.617188 63.058594 C 21.277344 62.402344 21.277344 62.402344 20.976562 61.535156 L 20.628906 60.550781 L 20.269531 59.476562 L 19.898438 58.375 C 19.640625 57.601562 19.382812 56.828125 19.128906 56.050781 C 18.742188 54.871094 18.332031 53.703125 17.921875 52.53125 C 17.671875 51.777344 17.425781 51.023438 17.179688 50.273438 L 16.800781 49.21875 C 16.480469 48.1875 16.261719 47.328125 16.234375 46.246094 C 16.726562 44.871094 17.4375 43.746094 18.253906 42.546875 C 18.53125 42.046875 18.804688 41.542969 19.066406 41.035156 L 19.457031 40.308594 C 21.40625 36.621094 23.214844 32.875 24.976562 29.097656 C 23.832031 30.183594 22.9375 31.234375 22.121094 32.585938 C 21.457031 33.65625 20.792969 34.707031 20.039062 35.714844 C 19.460938 36.503906 19.011719 37.292969 18.589844 38.175781 C 17.9375 39.53125 17.171875 40.691406 16.234375 41.875 L 15.5625 41.875 L 15.5625 42.546875 L 14.890625 42.546875 C 14.484375 41.351562 14.089844 40.152344 13.691406 38.953125 L 13.34375 37.925781 L 13.019531 36.929688 L 12.714844 36.019531 C 12.515625 35.042969 12.601562 34.417969 12.875 33.46875 C 13.238281 32.847656 13.238281 32.847656 13.671875 32.289062 C 14.535156 31.140625 15.269531 29.964844 15.960938 28.703125 L 16.402344 27.898438 L 16.8125 27.140625 C 17.246094 26.40625 17.246094 26.40625 17.757812 25.78125 C 18.402344 24.84375 18.640625 23.925781 18.945312 22.832031 C 19.527344 20.761719 19.527344 20.761719 20.269531 20.015625 C 20.523438 19.449219 20.761719 18.875 20.984375 18.292969 L 21.34375 17.367188 L 21.617188 16.65625 L 22.289062 16.65625 Z M 62.976562 9.929688 L 66.671875 9.929688 C 65.992188 12.535156 65.199219 15.0625 64.296875 17.601562 C 63.417969 20.101562 62.554688 22.605469 61.75 25.136719 C 61.605469 25.597656 61.457031 26.058594 61.308594 26.519531 C 61.089844 27.195312 60.875 27.867188 60.667969 28.542969 C 60.472656 29.171875 60.273438 29.800781 60.070312 30.425781 L 59.726562 31.519531 C 59.277344 32.457031 59.277344 32.457031 58.449219 33.257812 L 57.59375 33.804688 L 56.585938 33.804688 L 56.816406 34.582031 L 56.921875 35.484375 C 56.460938 36.050781 56.460938 36.050781 55.914062 36.492188 L 55.578125 37.164062 L 54.90625 37.164062 L 54.648438 37.742188 C 54.175781 38.617188 53.601562 39.277344 52.949219 40.023438 C 51.496094 41.8125 50.511719 43.691406 49.859375 45.910156 L 49.859375 47.589844 C 49.1875 48.367188 49.1875 48.367188 48.515625 48.933594 L 50.195312 49.269531 C 49.527344 51.839844 48.664062 54.191406 47.484375 56.5625 L 47.140625 57.269531 C 46.570312 58.390625 46.21875 58.984375 45.152344 59.695312 L 44.480469 59.359375 L 44.691406 58.601562 C 45.488281 55.484375 45.714844 52.476562 45.824219 49.269531 L 46.5 49.269531 L 46.476562 48.113281 L 46.5 46.917969 L 46.835938 46.582031 C 46.984375 45.355469 47.109375 44.128906 47.226562 42.898438 C 47.402344 41.15625 47.714844 39.527344 48.179688 37.839844 L 49.1875 38.511719 C 49.417969 39.226562 49.417969 39.226562 49.523438 39.855469 L 50.871094 39.855469 L 50.871094 38.847656 L 50.195312 38.847656 L 50.195312 37.164062 L 51.207031 36.828125 C 51.332031 36.046875 51.445312 35.261719 51.542969 34.476562 L 51.207031 34.140625 C 51.191406 33.578125 51.191406 33.019531 51.207031 32.457031 L 52.214844 32.457031 L 51.878906 30.441406 L 52.550781 30.441406 L 52.886719 28.421875 L 53.558594 28.421875 L 53.6875 27.6875 C 54.019531 26.1875 54.578125 25.019531 55.410156 23.738281 C 56.4375 22.128906 56.921875 20.542969 57.257812 18.671875 L 57.59375 16.992188 C 58.519531 16.820312 59.351562 16.671875 60.285156 16.65625 C 61.125 17.054688 61.125 17.054688 61.628906 17.664062 L 61.628906 19.007812 L 62.300781 19.007812 C 62.355469 17.898438 62.339844 17.09375 61.945312 16.046875 C 61.519531 14.601562 61.636719 13.40625 61.964844 11.945312 C 62.492188 10.75 62.492188 10.75 62.976562 9.929688 M 57.929688 20.691406 L 57.59375 21.027344 C 57.582031 21.808594 57.582031 22.59375 57.59375 23.378906 L 56.585938 23.714844 C 57.027344 24.242188 57.027344 24.242188 57.59375 24.722656 L 58.601562 24.722656 C 59.375 23.105469 59.375 23.105469 59.613281 21.363281 Z M 16.816406 9.726562 C 20.007812 9.628906 20.007812 9.628906 21.28125 10.265625 C 21.738281 11.644531 21.824219 12.859375 21.617188 14.300781 C 21.28125 15.019531 20.878906 15.625 20.421875 16.273438 C 19.550781 17.554688 18.921875 18.964844 18.253906 20.351562 L 17.582031 20.351562 C 17.453125 20.617188 17.453125 20.617188 17.320312 20.886719 C 15.988281 23.5 14.472656 26.035156 12.9375 28.527344 L 12.382812 29.429688 L 11.863281 30.105469 L 10.855469 30.441406 C 10.433594 28.964844 10.007812 27.484375 9.585938 26.007812 L 9.3125 25.054688 L 9.0625 24.179688 C 8.917969 23.667969 8.785156 23.15625 8.65625 22.640625 C 8.492188 21.992188 8.265625 21.394531 8.019531 20.773438 C 7.84375 20.296875 7.667969 19.820312 7.492188 19.34375 L 7.21875 18.65625 C 6.988281 17.980469 6.988281 17.980469 6.820312 16.65625 C 7.605469 14.660156 9.578125 13.261719 11.191406 11.945312 L 11.863281 12.285156 C 11.925781 15.449219 11.925781 15.449219 11.527344 16.992188 L 13.882812 17.328125 L 13.355469 16.464844 C 12.875 15.308594 12.875 15.308594 12.832031 14.195312 C 13.269531 12.753906 13.769531 11.695312 14.71875 10.523438 C 15.5625 9.929688 15.5625 9.929688 16.816406 9.726562 M 9.511719 18.335938 L 9.175781 19.679688 L 10.855469 20.351562 L 11.527344 19.679688 C 11.421875 18.972656 11.421875 18.972656 11.191406 18.335938 Z M 12.875 20.015625 C 12.328125 20.507812 12.328125 20.507812 11.863281 21.027344 L 13.210938 21.363281 L 13.546875 20.015625 Z M 10.519531 23.378906 L 10.519531 24.050781 L 11.527344 24.050781 L 11.527344 23.378906 Z M 38.429688 56.332031 C 39.453125 56.671875 40.214844 57.074219 41.117188 57.675781 C 42.152344 60.90625 41.917969 64.230469 41.335938 67.511719 C 41.074219 68.628906 40.707031 69.476562 40.109375 70.453125 L 40.78125 70.453125 C 40.605469 71.382812 40.410156 72.246094 40.109375 73.144531 L 40.699219 73.859375 C 41.660156 75.089844 42.089844 76.34375 42.464844 77.851562 L 42.464844 78.859375 L 43.472656 79.195312 L 42.800781 81.550781 L 32.710938 81.886719 L 33.046875 79.535156 C 32.933594 78.753906 32.933594 78.753906 32.710938 78.1875 L 33.34375 77.851562 C 34.085938 77.261719 34.085938 77.261719 34.25 76.574219 C 34.347656 76.105469 34.441406 75.632812 34.539062 75.164062 C 34.816406 74.183594 35.386719 73.542969 36.074219 72.808594 L 35.402344 72.808594 C 35.578125 71.878906 35.773438 71.015625 36.074219 70.117188 L 35.402344 70.117188 C 35.339844 69.195312 35.339844 69.195312 35.402344 68.101562 L 35.925781 67.429688 L 36.410156 66.753906 L 36.246094 65.882812 C 36.03125 64.457031 36.242188 63.300781 36.515625 61.902344 L 36.648438 61.164062 C 36.933594 59.636719 37.257812 58.140625 37.757812 56.667969 Z M 26.996094 56.332031 L 28.339844 56.667969 L 28.339844 58.011719 L 29.351562 58.011719 L 29.351562 59.359375 L 31.367188 59.359375 C 31.367188 64.066406 31.367188 64.066406 31.136719 65.117188 C 31.003906 66.761719 31.433594 67.933594 32.039062 69.445312 C 31.578125 69.949219 31.578125 69.949219 31.03125 70.453125 L 30.359375 70.453125 L 30.359375 71.128906 L 31.367188 71.464844 C 31.28125 72.050781 31.28125 72.050781 31.03125 72.808594 L 30.335938 73.417969 L 29.6875 74.152344 C 29.574219 75.386719 29.574219 75.386719 29.6875 76.507812 L 30.359375 76.507812 L 29.6875 81.550781 L 27.667969 81.886719 C 27.164062 80.125 26.65625 78.359375 26.152344 76.597656 L 25.601562 74.664062 L 25.261719 73.488281 L 24.976562 72.472656 L 24.730469 71.703125 L 24.640625 71.128906 L 25.316406 70.453125 C 25.371094 69.558594 25.371094 69.558594 25.316406 68.542969 C 25.285156 66.898438 25.511719 65.644531 25.988281 64.066406 C 26.042969 63.054688 26.027344 62.050781 25.988281 61.039062 L 27.332031 61.039062 L 27.332031 60.03125 L 25.988281 59.695312 L 25.652344 60.367188 C 25.433594 59.785156 25.433594 59.785156 25.316406 59.023438 C 25.648438 58.300781 25.648438 58.300781 26.132812 57.59375 L 26.617188 56.875 Z M 28.339844 34.8125 L 29.011719 35.148438 C 29.332031 35.941406 29.332031 35.941406 29.65625 36.984375 L 30.011719 38.117188 L 30.378906 39.308594 L 30.75 40.492188 C 30.976562 41.21875 31.203125 41.945312 31.429688 42.671875 C 31.625 43.304688 31.828125 43.933594 32.039062 44.5625 C 32.160156 46.347656 31.867188 47.597656 31.199219 49.25 C 30.507812 51.074219 30.210938 52.382812 30.359375 54.316406 L 30.023438 54.988281 C 29.054688 54.777344 29.054688 54.777344 28.003906 54.316406 C 27.5 53.234375 27.332031 52.480469 27.332031 51.289062 L 28.339844 51.625 L 28.339844 52.296875 L 29.011719 52.296875 C 28.710938 50.332031 28.710938 50.332031 27.835938 48.597656 C 27.015625 47.503906 26.871094 46.230469 26.660156 44.898438 C 26.570312 43.917969 26.582031 43.398438 26.980469 42.5 C 27.421875 41.292969 27.554688 40.09375 27.691406 38.828125 C 28.007812 35.953125 28.007812 35.953125 28.339844 34.8125 M 51.207031 54.652344 L 51.878906 54.988281 C 49.652344 61.492188 47.421875 68 45.152344 74.488281 L 44.480469 74.488281 C 43.601562 69.804688 43.601562 69.804688 44.042969 67.609375 C 44.464844 66.5 44.953125 65.460938 45.488281 64.402344 C 45.691406 63.964844 45.894531 63.527344 46.097656 63.089844 C 47.519531 60.058594 49.214844 57.34375 51.207031 54.652344 M 56.480469 9.910156 L 57.195312 9.914062 C 57.777344 9.917969 58.359375 9.921875 58.941406 9.929688 C 58.558594 11.101562 58.179688 12.207031 57.59375 13.292969 L 55.578125 13.292969 L 55.796875 13.902344 L 55.914062 14.636719 C 55.292969 15.378906 54.628906 16.082031 53.917969 16.738281 L 53.328125 17.304688 C 52.847656 17.761719 52.363281 18.21875 51.878906 18.671875 L 50.871094 18.335938 C 50.398438 17.679688 49.949219 17.007812 49.523438 16.316406 L 50.195312 15.644531 L 51.207031 15.644531 L 50.871094 14.972656 C 50.855469 14.300781 50.855469 13.628906 50.871094 12.957031 L 51.878906 12.957031 L 52.003906 12.179688 C 52.214844 11.273438 52.214844 11.273438 52.886719 10.265625 C 54.105469 9.859375 55.214844 9.894531 56.480469 9.910156 M 43.136719 38.511719 L 43.808594 38.511719 C 43.828125 39.402344 43.839844 40.289062 43.851562 41.179688 C 43.855469 41.425781 43.863281 41.675781 43.867188 41.929688 C 43.882812 43.519531 43.691406 44.925781 43.3125 46.46875 C 43.125 47.300781 43 48.125 42.886719 48.972656 L 42.765625 49.84375 C 42.691406 50.433594 42.613281 51.027344 42.542969 51.617188 C 42.242188 53.789062 42.242188 53.789062 41.589844 54.855469 L 41.117188 55.324219 L 39.4375 54.988281 C 39.390625 52.363281 39.601562 50.09375 40.445312 47.589844 C 40.730469 46.605469 40.996094 45.617188 41.265625 44.625 C 41.832031 42.566406 42.425781 40.527344 43.136719 38.511719 M 50.535156 19.007812 L 52.214844 19.679688 C 52.019531 20.945312 51.660156 21.875 51.015625 22.980469 L 50.554688 23.785156 L 50.195312 24.386719 L 47.84375 23.714844 C 48.132812 20.832031 48.132812 20.832031 48.851562 19.679688 L 50.535156 19.679688 Z M 4.46875 9.929688 L 9.175781 9.929688 C 8.53125 11.542969 8.121094 12.210938 6.820312 13.292969 L 5.476562 13.292969 Z M 46.835938 26.742188 C 47.507812 26.730469 48.179688 26.726562 48.851562 26.742188 C 48.648438 27.761719 48.320312 28.46875 47.738281 29.328125 C 46.816406 30.75 46.136719 32.238281 45.488281 33.804688 L 44.816406 33.804688 C 45.230469 31.519531 45.722656 29.269531 46.5 27.078125 Z M 55.578125 41.535156 L 56.25 41.535156 C 55.617188 43.902344 54.945312 46.257812 54.230469 48.597656 L 53.558594 48.597656 C 53.449219 46.550781 53.699219 45.074219 54.570312 43.21875 C 55.09375 42.210938 55.09375 42.210938 55.578125 41.535156 M 34.058594 55.660156 L 35.402344 55.660156 L 35.738281 58.011719 L 33.046875 58.6875 C 33.234375 57.5625 33.503906 56.65625 34.058594 55.660156 " fill-opacity="1" fill-rule="nonzero"/></svg>